
<svg width="356" height="426" stroke="#000" stroke-linecap="round" stroke-width="2" xmlns="http://www.w3.org/2000/svg" xmlns:xlink="http://www.w3.org/1999/xlink">
<path d="m2 2h352v246a176 176 0 0 1-352 0z" fill="#0277ba" stroke-width="4"/>
<path d="m178 44v162" stroke="#fff"/>
<use transform="matrix(-1 0 0 1 356-1.155e-5)" xlink:href="#e"/>
<path d="m12 65 17-18-17-19 25 6 7-25 7 25 26-6-17 19 17 18-25-5-8 24-8-24z" fill="#f5df03"/>
<path d="m293 19a26 26 0 1 1 0 50 32 32 0 1 0 0-50" fill="#fff"/>

<g id="e">
<path d="m178 52h-42m8 11h34m0-19h-6v-14h-12v14h-12v-14h-12v22l8 11-6 129h-75v112l-19 55h133" fill="#fff" stroke-width="3"/>
<path d="m179 329h-38v-108l38-22"/>
<path d="m152 212v38m13-38v38m-25-24h38m-38 14h38m0-28v38" stroke="#f5df03" stroke-width="3"/>
<path d="m72 89h60m-50 8h40m-50-27v19l10 8-3 95h46l-3-95 10-8v-19h-12v12h-12v-12h-12v12h-12v-12z" fill="#fff" stroke-width="3"/>
<path d="m155 153h14m-52 55v16m-36-16v16m18-32v16m36 0v-16m-72 32h74m-74-16h92m-74 32v16m18-16v-16m-36 32h45m-45-16h45m-27 32v16m18-16v-16m-36 32h45m-45-16h45m-9 32v-16m63-225v18m-18 0h34m-16 18v18m0 18v18m16-18v-18m-37 18h37m-36-18h36m-36-18h36m-76 40v14m-11-28v14m22 0v-14m-22-28v14m22 0v-14m-18 56h14m-28-14h42m-41.5-14h41m-40.5-14h40" fill="none" stroke-width="1"/>
<path id="c" d="m179 212a40 40 0 0 0-40 40h-15a55 55 0 0 1 55-55" fill="#fff"/>
<path d="m179 214a38 38 0 0 0-38 36" fill="none"/>
<path d="m112 215v112m-4 0v-111l4-2c17 3 32 22 32 36v77z" fill="#f5df03"/>
<path d="m63 304h45m-52-128h123m0-23h-10v15h-14v-15h-16v15h-14v-15h-16v15h-14v-15h-16v15h-14v-15h-9v23l7 16h116" fill="#fff" stroke-linecap="butt" stroke-width="3"/>

<g id="d">
<circle cx="102" cy="125" r="6" stroke="none"/>
<path d="m102 125v-20" stroke-width="4"/>
</g>

<g id="f" fill="none" stroke-width="1.5">

<g id="a">
<path id="b" d="m119 257c0-2 2-4 4-4 0-6 8-6 8 0h13"/>
<use transform="matrix(1, 0, 0, -1, 0, 514)" xlink:href="#b"/>
</g>
<circle cx="139" cy="257" r="1"/>
<circle cx="127" cy="257" r="1.2"/>
</g>
<use transform="translate(0, 36)" xlink:href="#f"/>
</g>
<path d="m178 315.4c59.2 0 112.4 18.1 134.7 44.6-33.4 39.7-82.7 62.7-134.7 62.7s-101.2-23-134.6-62.8c22.3-26.5 75.4-44.6 134.6-44.6z" fill="#49b132"/>
<use transform="matrix(1.2, 0, 0, 1.2, 96.4, 23.4)" x="-34" y="-62" xlink:href="#d"/>
<path d="m166 193.5 4 19.5c5-1 12-1 16 0l4-19.5" fill="#fff"/>
</svg>
