<?xml version="1.0" encoding="UTF-8"?>
<svg xmlns="http://www.w3.org/2000/svg" xmlns:xlink="http://www.w3.org/1999/xlink" width="600" height="300">
<rect fill="#00c" height="300" width="600"/>
<path fill="#fff" d="M0,0V100L300,300H450z"/>
<path fill="#fff" d="M150,0H300L600,200V300z"/>
<g>
<use xlink:href="#shield" stroke="#fff" stroke-width="6"/>
<path id="shield" fill="#00c" d="M225,55V220A20,20 0 0,0 245,240H285A15,15 0 0,1 300,255A15,15 0 0,1 315,240H355A20,20 0 0,0 375,220V55z"/>
<path fill="#fff" d="M228,130c10,0 14,5 24,5s14,-5 24,-5s14,5 24,5s14,-5 24,-5s14,5 24,5s14,-5 24,-5V165c-10,0 -14,5 -24,5s-14,-5 -24,-5s-14,5 -24,5s-14,-5 -24,-5s-14,5 -24,5s-14,-5 -24,-5z"/>
<g id="star" fill="#ff0" transform="translate(267.5,82.5)">
<path id="h" d="M0,-12.5 6,0 0,12.5 -6,0z"/>
<use xlink:href="#h" transform="rotate(60)"/>
<use xlink:href="#h" transform="rotate(120)"/>
</g>
<use xlink:href="#star" x="16.25" y="25"/>
<use xlink:href="#star" x="32.5"/>
<use xlink:href="#star" x="48.75" y="25"/>
<use xlink:href="#star" x="65"/>
<g fill="none" stroke="#00c" stroke-width="12" stroke-linecap="round">
<path id="p1" d="m251.5 213.5c31.5-24.5 63.5-21.5 94.5 0"/>
<use xlink:href="#p1" stroke="#ff0" stroke-width="8"/>
<path id="p2" d="m363.5 196.5l-26.6019 6c-5.10928 1.15239-8.89917 7.50724-3.39808 13.2741m-74.25 5.976c22.75-29.75 63.75-25.75 80 1.75"/>
<path id="p3" fill="#ff0" stroke-width="4" d="m262.186 212.5c4.19219-3.94839-7.92829-8.69527-13.6231-16.7855-12.1684 1.211-15.9695-1.24938-16.0619-3.22371-0.12192-2.60517 9.419-4.25099 11.8178-7.98786 0.21029-1.45261 2.05303-3.69411 3.13533 0.0538 0.92712-1.99921 2.55604-3.16617 3.2894 0.29619 0 0 2.54463-0.13322 4.57642-0.14348 5.92855-0.0299 8.10231 10.0254 17.2804 9.89344 6.36879-0.0916 13.9036-5.72331 27.1391-5.78042 13.8642-0.0598 32.1913 10.6132 42.7605 8.21639l-11.9182 12.6722-30.3289-6.54873z"/>
<use xlink:href="#p2" stroke="#ff0" stroke-width="8"/>
<use xlink:href="#p3" stroke="none"/>
<circle fill="#00c" stroke="none" cx="243" cy="189" r="1.5"/>
</g>
</g>
</svg>