<svg xmlns="http://www.w3.org/2000/svg" height="213" width="426" viewBox="0 0 426 213"><path d="m0 0h426v213h-426" fill="#007fab"/><path d="m0 0h142v213h-142" fill="#dfb346"/><path d="m127.8 41.18v118.6c0 6.385-5.664 12.05-12.05 12.05h-33.35c-5.749 0-8.451 2.162-11.37 5.68-2.861-3.403-5.684-5.68-11.37-5.68h-33.41c-6.385 0-12.05-5.662-12.05-12.05v-118.6" fill="#007fab"/><g fill-rule="evenodd" transform="translate(13.55 41)"><path d="m53.5 20.8-0.54 0.86 0.02 2.28-0.25 0.89c-1.2 0.001-3.31-0.07-4.48 0.08-0.28 0.42-0.74 0.89-0.79 1.66 0 2.42 0.24 4.77 0.19 7.18l5.08-0.14c-0.001 0.47-0.06 1.05-0.07 1.52-8.1 0.54-16.22 1.48-24.2 2.92-0.1-0.32-0.64-1.4-0.71-2 0.89-0.39 2.03-0.49 2.66-0.58 0.47-0.36 0.49-0.77 0.61-1.12-0.59-2.21-1.22-4.56-1.78-7-1.68-0.33-2.31 0.25-3.56 0.32-0.11-0.7-0.42-1.57-0.67-2.33-0.14-0.44-0.79-0.71-1-0.87-1.84-0.02-2.73 0.34-4.55 0.55-1.4 0.18-2.48 0.71-3.75 1.31 0.15 1.09 0.42 2.33 0.59 3.42-0.98 0.24-2.1 0.34-3.06 0.6-0.3 0.23-0.46 0.47-0.65 1.36 0.22 0.34 0.58 1.14 0.81 1.84 0.5 1.84 0.53 2.48 1.02 4.12 0.31 0.34 0.83 0.99 1.31 0.88 0.72-0.16 1.82-0.22 2.39-0.38 0.14 0.86 0.32 1.71 0.46 2.57-0.36 0.15-0.72 0.29-1.2 0.48-0.17 0.23-0.24 0.91-0.16 1.29 0.55 2.65 1.02 4.59 1.56 7.15 0.21 0.26 0.49 0.57 0.78 0.74 0.22 3.96 0.48 7.93 0.57 11.9 0.001 0.31 0.001 0.63 0.001 0.94l-0.93 0.27c0.46 6.39 0.15 12.61-1.58 18.54-0.81 2.8-2.03 5.53-3.52 8.19-0.69 1.21-1.43 2.55-2.41 3.89-1.18 1.62-2.46 3.27-2.72 5-0.32 3.26 3.11 4 5.67 3.8 2.87-0.3 5-1.37 6.98-2.9 5-3.9 7.74-11 10.15-17.51 0.15-0.41 0.3-0.81 0.45-1.2 2.5-3.22 5.24-6.15 8.15-8.26 1.77-1.28 3.89-2.42 6-3.36 3.11-1.32 6.34-2.25 9.46-2.49 5.2-0.39 10.34 0.91 15.4 3.51 4.53 2.37 7.59 6.6 10.6 10.61l2.69 3.59c1.01 2.43 2.09 4.94 3.53 7.61 0.91 1.6 2.19 3.44 3.6 5.19 2.78 3.45 5.26 5.39 9.73 5.33 0.86-0.001 1.73-0.07 2.63-0.51 2.75-1.49 2.22-4.24 0.62-6.35-6.72-9.1-7.77-20.23-8.31-31.1-0.02-0.44-0.4-1.03-0.42-1.47-0.19-0.05-0.37-0.11-0.56-0.16 0.07-2.12 0.18-4.21 0.31-6.34 0.12-2.16 0.1-4.28-0.02-6.43 0.21-0.2 0.39-0.48 0.49-0.62 0.47-1.91 0.86-3.85 1.33-5.76 0.27-1.08 0.87-1.99 0.17-3-0.56-0.83-1.31-0.88-1.69-1.13 0.04-0.31 0.08-0.71 0.33-1.85 0.04-0.2 0.09-0.4 0.13-0.6 1.35 0.14 2.69 0.4 4 0.56 0.5-2.72 0.85-5.46 1.36-8.19-1.42-0.08-2.38-0.17-3.7-0.57 0.12-0.7 0.03-2.06 0.66-2.25-0.04-0.69-0.05-1.22-0.21-1.61-3.05-0.53-5.36-0.83-7.58-1.42-0.53-0.07-1.44 0.41-1.56 0.78-0.3 0.95-0.59 1.89-0.88 2.84-1.96-0.19-2.6-0.55-3.31-0.72-0.28 0.42-0.72 0.77-1.02 1.26 0.19 1.2-0.88 4.27-1.42 6.5 1.45 0.31 2.9 0.56 4.35 0.85-0.21 0.7-0.44 1.4-0.65 2.1-7.39-1.43-14.73-1.84-22.26-2.49-0.52-0.05-1.02 0.03-1.52-0.16-0.13-0.16-0.06-0.52-0.09-1.17 1.5-0.19 3.24-0.18 4.89-0.27-0.08-2.84-0.05-5.62-0.13-8.46-1.41-0.12-2.92-0.23-4.32-0.36 0.001-1.04-0.09-2.9-0.19-3.21-0.31-0.46-0.79-0.83-1.49-0.84-2.84-0.05-5.09 0-7.93-0.02"/><path fill="#dfb346" d="m78.96 49c-0.5 0.3-0.9 0.5-0.9 1l-0.3 4.9c-0.1 1.2 0.19 2.23 1.58 2.33 2.8 0.2 5.4 0.3 8.3 0.3 0.8 0 1.81-1.03 1.81-2.03l0.2-3.4c0.1-0.6-0.6-1.9-2-2.2-2.4-0.4-4.8-0.6-7.2-1-0.5-0.1-1-0.2-1.5 0.1m0 1.4-0.3 4.3c-0.1 1-0.1 1.5 1.1 1.6 2.4 0.2 5.3 0.4 7.6 0.3 0.7 0 1.3-0.7 1.3-1.5l0.1-2.8c0.1-0.6-0.4-1.4-1.6-1.6-2-0.3-5.3-0.7-7.3-0.9-0.4 0-0.9 0.1-0.9 0.6m1.5 0.3-0.9 0.8v3.1c0 0.2 0.4 0.8 0.8 1.1 0.3 0.2 0.8 0.4 1.2 0.4l4.4 0.2c1.1 0 1.9-1.2 1.8-2.3l-0.3-2.4zm0.3 1c-0.1 0-0.3 0.1-0.3 0.2v0.8c2.05 0.52 4.2 0.41 6.3 0.5l-0.1-0.8zm-0.4 2.5c0 0.4 0.7 1 1.2 1l4.3 0.1c0.83 0 0.95-0.59 0.9-1.3l-3.7-0.1c-1.1 0-1.8-0.1-2.7-0.4zm-9.69-2.59c-1.2 1.2-1.96 1.94-3.56 2.84-3 1.7-6.19 2.62-9.28 2.52-5.56 0.12-10.32-2.43-12.92-5.42 1-0.7 1.37-1.43 2.1-2.1 2.67-2.43 6-3.9 9.9-3.9 4.8 0 9.26 2.36 13.76 6.1m-13.75-5.16c4.2-0.06 8.4 2.3 12.4 5.1-0.9 0.9-1.9 1.7-3.4 2.5-2.7 1.4-5.3 2-8.1 2-3.4 0-5.8-0.8-8.2-1.9-1.9-1.1-2.6-2-3.4-2.6 0.8-0.8 1.19-1.21 1.9-1.8 2.39-2 5.5-3.26 8.8-3.3m8.93 4.61h0.48c-0.21 0.68-1.86 1.7-2.81 2.19-2 1-3.78 1.69-5.78 1.69-2.7 0-4.18-0.54-5.9-1.4-1.48-0.74-1.9-1.4-2.5-2 0.6-0.6 0.98-0.78 1.48-1.19 1.8-1.4 4.5-2.3 6.8-2.3 2.5 0 6.32 1.5 8.23 3zm-1.9-0.03c-1.8-0.8-3.3-1.89-6.5-1.95-2.4-0.04-4.2 0.95-6 1.95zm-12.8 1c4.2 0 8.5 0.1 12.6 0-1.7 0.9-3.1 1.88-6.4 2-2.3 0.08-4.6-0.9-6.2-2m-14.68-2.92c0.5 0.3 1 0.5 1 1.1l0.5 4.9c0.1 1.2-0.4 2-1.8 2.2-2.8 0.4-5.4 0.5-8.2 0.5-0.8 0-1.6-0.7-1.7-1.7l-0.4-3.4c-0.1-0.7 0.6-2.1 2-2.4 2.4-0.5 4.8-0.8 7.2-1.2 0.5-0.1 0.9-0.2 1.4 0m0.2 1.4 0.5 4.3c0.1 1-0.2 1.42-1.3 1.62-2.4 0.3-5.1 0.5-7.5 0.5-0.7 0-1.3-0.52-1.3-1.32l-0.2-2.8c-0.2-0.6 0.3-1.4 1.5-1.7 2-0.4 5.2-0.9 7.3-1.2 0.4-0.1 0.9 0.1 1 0.6m-1.61 0.34 1 0.8 0.2 3.1c0 0.2-0.43 0.72-0.83 1.02-0.3 0.3-0.7 0.4-1.2 0.5l-4.4 0.3c-1.1 0.1-1.9-1.2-1.9-2.2l0.33-2.42zm-0.29 1.06c0.1 0 0.3 0.1 0.3 0.2l0.1 0.8c-2.05 0.51-4.2 0.47-6.3 0.6l0.11-0.73zm0.6 2.5c0.1 0.4-0.8 1.1-1.2 1.1l-4 0.2c-0.87-0.09-1.28-0.38-1.3-1.3 2.07-0.32 4.57-0.1 6.4-0.7zm-5.73 14.1c-0.03 1.57-0.55 2.27-1.7 2.7zm-0.41-0.7c-0.4 0.2-1.19 0.7-1.39 1.1-0.3 0.6-0.4 1.5-0.5 2zm-2.4 5.1c0.3-0.2 0.5-0.3 0.9-0.5 0.5-0.3 1.1-0.6 1.5-0.9 0.7-0.5 1-1.5 1.2-2.8 0.3-1 0.2-1.6-0.3-2-1.4 0.4-2.63 0.99-3.1 2.2-0.43 1.09-0.3 2.5-0.2 4m4.5-7.2c0-0.2-0.2-0.3-0.4-0.3-1.7 0.6-3 1.1-4 2.3-0.9 1.1-1.1 2.3-1 3.7 0.1 1 0.3 1.8 0.5 2.9 0.8-0.5 1.4-0.8 2.1-1.2 1.5-0.9 2.2-2 2.6-3.7 0.4-1.4 0.3-2.7 0.2-3.7zm0.69-0.74c-0.2-0.2-0.43-0.36-0.53-0.56-2.1 0.5-3.96 1.1-5.36 2.8-1.1 1.5-1.29 3.2-1.09 5 0.2 1.3 0.4 2.3 0.6 3.7 1-0.7 1.79-1.1 2.69-1.7 1.9-1.1 3.3-2.5 3.8-4.7 0.4-1.8 0.39-3.34-0.11-4.54m54.3 3.34c0.18 1.42 0.69 2.45 1.5 2.8zm0.4-0.9c1.4 0.81 1.67 1.83 1.7 3.3zm1.06 4.61c-1.56-0.7-1.97-1.85-2.24-3.46-0.16-0.99-0.18-1.7 0.22-2.11 0.6-0.3 2.66 0.95 3.16 2.25 0.5 1.1 0.41 2.67 0.41 4.28-0.4-0.2-1.25-0.76-1.55-0.96m-3-6.86c0-0.2 0.2-0.3 0.4-0.3 1.8 0.6 3.1 1.6 4 2.7s1.06 2.3 1 3.8c-0.04 0.91-0.2 1.8-0.4 2.9-0.9-0.5-1.5-0.9-2.2-1.3-1.6-0.9-2.3-2-2.7-3.7-0.36-1.41-0.2-3.1-0.1-4.1m-0.81-0.53c0.1-0.4 0.5-0.6 0.6-0.7 1.6 0 4 1.46 5.4 3.2 1.15 1.47 1.13 3.23 1.01 5.13-0.08 1.2-0.31 2.17-0.51 3.47-1.1-0.5-1.79-1-2.7-1.5-1.89-1-3.3-2.6-3.8-4.9-0.39-1.8-0.3-3.5 0-4.7m-1.93 11.37c2.48 4.14 4.12 9.5 6.12 13.9 1.6 3.3 3.8 6.16 6.39 9.1 1.79 2.07 6.9 4 9.47 1.91 1.37-1.12 0.69-2.77-0.59-4.28-3.48-4.7-5.37-9.52-6.64-15.79-1-5-1.41-10.65-1.71-16.2-7.58-2.31-12.98-3.19-18.39-4.15-14.74-2.61-28.3-1.86-40.69 0.37-4.6 0.83-10.49 2-15.4 3.53 0.29 4.87 0.12 9.91-0.95 15.1-1.46 5.98-4.51 12.1-7.8 16.4-0.8 1.1-1.4 2.1-1.6 3.1-0.3 1.7 1 2.29 3.1 2.5 2.31 0.23 5.22-1.02 7.1-2.4 4.7-3.4 6.8-8.2 8.7-13.4 1.9-5.1 3.4-9.9 5.6-13.2 1.6-2.3 6.8-6.3 11.35-7.97 7.56-2.78 17.1-2.51 24 0.55 7.09 3.12 9.11 6.2 11.95 10.95zm-24.74-10.1c6.08-0.05 12.1 1.58 17.1 5.18 3.4 2.5 6 6.1 8.6 9.5-2.2-5.1-5.19-9.62-10.3-12.7-3.19-1.92-6.7-2.9-10.3-3.6-6.2-1.3-12.8-0.3-18.5 2.6-3.2 1.6-5.9 3.4-8.1 6.2-0.67 1.18-2.21 4.09-2.3 4.6 2.51-2.44 5.15-5.2 8.2-7 4.74-2.79 10.1-4.73 15.6-4.78m14.65-21c7.7 0.71 15.5 2.47 23 4.57 0.6-2.2 1-4.3 1.6-6.5 0.22-0.59 0.23-0.82-0.28-1.24l-1.74-0.82c0.2-1.7 0.89-4.66 0.89-4.66 1.2 0 2.81 0.28 4 0.48 0.3-1.8 0.46-3.68 0.86-5.48-2.37-0.35-3.07-0.74-3.62-0.8 0.2-1.3 0.64-3.88 0.64-3.88-2.4-0.4-4.5-0.5-6.6-1.1-0.4 1.2-1.14 3.78-1.14 3.78-1.68-0.23-2.84-0.12-4-0.68-0.4 1.7-0.7 3.58-1.1 5.28l3.39 0.6c0.37 0.19 0.81 0.94 0.81 0.94-0.26 0.93-0.92 2.97-1.22 3.89-4.6-0.9-9.4-1.7-14.1-1.9-4-0.18-8-0.8-11.9-1-0.08-0.81-0.09-1.93-0.14-2.91 0.06-0.66 0.29-0.73 0.76-0.81 1.28-0.03 3.1-0.1 4.19-0.18-0.1-2 0-4-0.1-6-1.6-0.1-2.8-0.2-4.3-0.4v-3.3c0-0.4-0.1-0.6-0.5-0.6h-7.2c-0.1 1.3-0.1 2.6-0.2 3.9-1.7 0.1-3.2 0-4.8 0-0.3 0.1-0.4 0.3-0.4 0.6 0 1.9 0.1 3.9 0.1 5.8 1.7 0 3.3-0.1 5-0.1-0.1 1.3-0.1 2.7-0.1 4-8.83 0.55-19 1.64-26.3 3.2-0.4-1.5-0.88-2.92-1.38-4.32 1.3-0.3 1.88-0.78 3.58-0.88-0.4-1.9-1.3-5.9-1.3-5.9-1.28 0.3-2.65 0.47-3.8 0.6-0.2-1.1-0.24-2.3-0.64-3.3-2.54 0.36-5.17 0.36-6.8 1.29l0.53 3.47-3.62 0.88c0.56 1 1 3.8 1.5 5.8 1.2-0.1 3.67-0.67 3.67-0.67 0.3 1.7 0.51 3.3 0.81 5-0.6 0.2-1 0.4-1.6 0.6 0.5 2.5 0.94 4.55 1.34 6.65 4.2-0.9 8.71-1.16 13-1.8 5.71-0.86 10.7-2.08 17.1-2.7 7.43-0.72 15.6-0.001 22.1 0.59m-22.2 0.73c6.6-0.6 11-0.68 21.43 0.42 7.9 0.8 15.62 2.31 23.2 4.51 0.2 3.3 0.05 5.87-0.15 8.37-0.1 1.4-0.14 2.87-0.14 4.27-14.1-4.1-24.86-5.47-37.4-5.37-8.1 0.1-22.7 1.4-35.2 5.1 0-3.8-0.4-8.5-0.7-13 4.8-0.9 9.6-1.1 14.4-2s9.6-1.9 14.5-2.3"/></g><g transform="translate(13.55 41)" stroke="#000" stroke-width="0.9" fill="none"><circle cy="40.4" cx="58.4" r="2.71"/><circle cy="41.1" cx="48.4" r="2.18"/><circle cy="40.98" cx="67.5" r="2.13"/><circle cy="41.9" cx="76.2" r="1.61"/><circle cy="42" cx="39.45" r="2.03"/><circle cy="43.1" cx="32" r="1.82"/><circle cy="44.4" cx="26.36" r="1.49"/><g stroke-width="0.8"><circle cy="45.5" cx="21.48" r="1.44"/><circle cy="44.86" cx="94.1" r="0.92"/><circle cy="43.75" cx="89.3" r="1.28"/></g><circle cy="42.68" cx="83.5" r="1.41"/><circle cy="52.3" cx="41.4" r="1.49"/><circle cy="52.4" cx="74.2" r="1.49"/><circle cy="54.5" cx="92.3" r="1.49"/><circle cy="55.1" cx="23.4" r="1.49"/><circle cy="68.1" cx="34.91" r="1.49"/><circle cy="65.6" cx="23.89" r="1.49"/><circle cy="85.2" cx="22.39" r="1.4"/><circle cy="90.7" cx="20.1" r="1.29"/><circle cy="90.5" cx="96.3" r="1.29"/><circle cy="84.96" cx="93.6" r="1.4"/><circle cy="78.8" cx="91.5" r="1.55"/><circle cy="78.95" cx="24.76" r="1.55"/><circle cy="67.75" cx="80.7" r="1.49"/><circle cy="65.2" cx="92.1" r="1.49"/><circle cy="61.1" cx="50.64" r="1.49"/><circle cy="61.2" cx="65.4" r="1.49"/><circle cy="62.5" cx="72.3" r="1.82"/><circle cy="60.84" cx="57.5" r="1.82"/><circle cy="62.5" cx="43.64" r="1.82"/></g></svg>