<?xml version="1.0" encoding="UTF-8"?>
<!DOCTYPE svg PUBLIC "-//W3C//DTD SVG 1.1//EN" "http://www.w3.org/Graphics/SVG/1.1/DTD/svg11.dtd">
<!-- Creator: CorelDRAW X8 -->
<svg xmlns="http://www.w3.org/2000/svg" xml:space="preserve" width="1000px" height="500px" version="1.1" style="shape-rendering:geometricPrecision; text-rendering:geometricPrecision; image-rendering:optimizeQuality; fill-rule:evenodd; clip-rule:evenodd"
viewBox="0 0 1000 500"
 xmlns:xlink="http://www.w3.org/1999/xlink">
 <defs>
  <style type="text/css">
   <![CDATA[
    .fil2 {fill:black}
    .fil9 {fill:blue}
    .fil3 {fill:#0033FF}
    .fil0 {fill:#009900}
    .fil8 {fill:#4C99E6}
    .fil6 {fill:#990000}
    .fil7 {fill:#E66619}
    .fil4 {fill:red}
    .fil5 {fill:#FFEE00}
    .fil1 {fill:white}
   ]]>
  </style>
 </defs>
 <g id="Слой_x0020_1">
  <metadata id="CorelCorpID_0Corel-Layer"/>
  <rect class="fil0" width="1000" height="100"/>
  <rect class="fil1" y="100" width="1000" height="100"/>
  <rect class="fil0" y="200" width="1000" height="100"/>
  <rect class="fil1" y="300" width="1000" height="100"/>
  <rect class="fil0" y="400" width="1000" height="100"/>
  <path class="fil2" d="M571 122l-1 0c-1,2 -12,6 -15,7 -5,3 -12,5 -17,6 -7,2 -13,3 -19,4l-17 1c-2,0 -3,0 -4,0l-21 -1c-7,-1 -13,-2 -19,-4 -7,-2 -29,-8 -33,-13l-1 0c-1,2 -8,8 -9,10l-28 29c6,13 9,15 15,31 3,9 7,30 6,39 -2,18 -1,19 -7,38 -3,8 -7,17 -11,24 -2,4 -2,4 0,8 5,11 10,19 18,28 16,18 33,29 57,36 6,1 13,2 19,3 13,3 11,5 14,9 4,-18 47,2 91,-50 6,-7 16,-22 18,-30 -1,-4 -5,-11 -7,-15 -3,-5 -5,-10 -7,-15 -10,-30 -7,-64 7,-92 2,-2 8,-12 8,-14 0,-1 -24,-25 -27,-29 -3,-2 -8,-7 -10,-10l0 0z"/>
  <path class="fil3" d="M391 161c3,6 6,12 9,18 4,9 7,20 9,30l2 21 -1 16 55 0c0,-2 1,-2 1,-4l-2 -12c-2,-5 -4,-8 -6,-12l13 -15c8,4 17,6 26,6l0 -66 -11 -1c-9,0 -20,-1 -29,-4 -5,-2 -11,-3 -17,-5 -3,-2 -13,-6 -16,-7l-16 18c-6,5 -11,11 -17,17z"/>
  <path class="fil3" d="M419 336l46 0c2,-4 2,-1 5,-3 -3,-2 -6,-2 -10,-5 -10,-11 -20,-1 -24,0 -3,0 -5,1 -7,1 -3,0 -9,2 -11,0 -2,-2 6,-4 9,-5 0,-1 -2,-2 -2,-3 -1,-2 -2,-4 -3,-5 -3,-2 -6,0 -8,-5 1,-2 4,-5 7,-5l0 -2c3,0 2,0 3,1 1,1 3,2 4,2 3,3 3,5 7,5 4,0 17,-6 27,1 5,4 6,6 9,9 13,13 13,-8 20,-6 4,1 4,11 -4,14 -4,2 -8,2 -12,0 0,5 -1,3 -3,6l25 0 0 -42c-6,-5 -17,0 -33,-17 -1,-1 -6,-9 -6,-10 4,-8 6,-11 7,-19l-56 0c0,3 -1,10 -2,13 -2,7 -7,18 -10,24 -1,2 -5,11 -5,12 -1,3 9,18 11,22 4,6 11,13 16,17l0 0z"/>
  <path class="fil4" d="M498 174l0 24 24 0 0 6 2 -1 13 14 -3 6 12 0 0 23 24 0 0 -23 14 0c0,-4 1,-10 2,-13 0,-3 2,-10 2,-12l-18 0 0 -24 25 0 0 5 2 -5 -2 0 0 -22 -2 -3 -23 0 0 25 -24 0 0 -25 -24 0 0 25 -24 0 0 0z"/>
  <path class="fil2" d="M436 160l-8 -8 -1 12 -9 -6c0,6 6,13 6,18 0,3 -3,5 -5,7 -2,3 -1,6 2,7 -3,12 1,7 -1,14 3,5 3,2 4,5 2,3 -2,11 5,7 3,3 5,6 10,7 2,1 5,1 7,0 2,-2 4,-4 4,-5 7,1 3,-1 6,-6 1,-3 1,-3 1,-5 2,-1 3,0 4,-3 0,-1 -1,-2 -1,-4 -1,-4 2,-2 0,-11l1 -2c0,-5 -1,-4 -3,-7 -4,-9 9,-17 8,-22 -2,0 -6,3 -9,3l0 -8c-4,1 -7,5 -10,7l-6 -11 -5 11 0 0z"/>
  <path class="fil0" d="M498 315l96 0c4,-7 6,-11 10,-18l-3 -5 -100 0 -1 0 -2 2 0 21 0 0z"/>
  <path class="fil1" d="M498 337l77 0c6,-4 15,-16 19,-22l-96 0 0 22z"/>
  <path class="fil1" d="M501 292l100 0c0,-2 -3,-7 -5,-10 -2,-4 -4,-8 -4,-12l-57 0c-4,7 -5,10 -13,15 -4,2 -5,3 -9,4 -5,2 -10,3 -12,3l0 0z"/>
  <path class="fil0" d="M575 337l-77 0 0 33c3,-1 1,-2 10,-4 10,-3 22,-3 33,-8 8,-3 30,-15 34,-21z"/>
  <path class="fil0" d="M497 370l0 -33 -24 0c-2,0 -3,1 -4,1 -2,0 -3,-1 -5,-1 -11,0 -31,0 -43,0 4,7 25,18 33,21 13,6 32,5 43,12z"/>
  <path class="fil5" d="M460 218c2,3 4,8 5,11 1,1 3,12 3,13 -1,9 -3,17 -8,25 1,2 4,7 6,9l0 -16 9 0c1,-6 1,-6 4,-10 6,-13 4,-7 11,-10 0,0 4,-4 5,-4 0,-4 0,-6 4,-8 5,-1 4,-2 7,-6 1,-2 2,-5 4,-7 3,-4 5,-1 6,-7 -3,2 -7,3 -10,3 -7,1 -18,1 -24,-2 -3,-1 -7,-2 -10,-3l-12 12 0 0z"/>
  <path class="fil5" d="M425 178c-1,1 -1,2 -3,4 -2,2 -3,2 -2,6 2,-1 -1,-1 2,-2 1,2 0,2 0,4 -2,11 -1,4 0,13 3,-3 1,-3 2,-5 2,3 0,4 -2,7 4,-1 4,-5 4,-5 2,2 0,1 0,7 0,2 0,2 0,4 1,2 0,2 0,4l3 -1c2,1 2,2 3,3 1,1 1,1 2,3l3 0c0,1 0,1 0,2 2,-1 1,0 2,-2l1 2c2,-2 0,0 1,-2 1,1 1,1 2,2 7,-4 2,1 7,-6l4 0c0,-4 0,-3 1,-6 1,-1 1,-4 1,-5l2 0c-1,-2 -2,-3 -1,-5 1,2 -1,2 3,4 -1,-4 -2,-2 -1,-7 1,-9 -4,-4 1,-11 -5,-10 -3,-8 -12,-9 -2,0 -2,0 -7,0l-16 1 0 0z"/>
  <path class="fil0" d="M535 270l57 0c-4,-7 -5,-15 -7,-22l-56 0c5,18 10,15 6,22l0 0z"/>
  <path class="fil6" d="M422 307c-2,0 -3,0 -4,2 -2,2 -5,3 1,5 2,0 4,1 5,2 0,1 1,3 2,4 1,2 2,3 3,4 -3,3 -8,2 -10,5 7,0 5,-1 8,-1 16,-1 13,-6 20,-9 3,-1 5,-1 8,0 4,1 3,2 5,5 3,7 7,5 11,8 -1,5 -4,1 -5,4l5 0c2,-2 4,-4 2,-7 4,0 9,4 15,0 3,-2 7,-9 2,-12 -4,1 -7,13 -15,9 -3,-1 -9,-9 -14,-12 -4,-2 -12,-3 -16,-2 -2,0 -4,0 -6,1 -9,3 -7,-2 -12,-5 -3,-2 -2,0 -4,-3l-1 2 0 0z"/>
  <polygon class="fil1" points="570,149 546,149 546,174 570,174 "/>
  <polygon class="fil1" points="546,222 570,222 570,198 546,198 "/>
  <polygon class="fil1" points="498,174 522,174 522,149 498,149 "/>
  <polygon class="fil1" points="522,198 546,198 546,174 522,174 "/>
  <path class="fil7" d="M528 225l0 1c-2,0 -1,0 -2,-2 -3,4 -5,14 -5,19 1,2 4,4 5,7 -3,-1 -5,-5 -8,-7 -1,5 -4,11 -7,15 2,4 7,8 7,12 -2,-1 -2,-3 -3,-4 -1,4 -3,10 -2,14 1,1 1,1 4,1 -1,-3 -1,-8 -1,-11l2 0 0 11 6 0c1,-5 -6,-9 -3,-15 5,-10 0,-5 0,-17 2,0 1,-1 2,4 0,2 1,4 2,5 1,-2 0,-2 2,-2 -1,4 -2,0 0,9 1,3 2,7 3,9 1,0 4,-6 5,-8 -5,-6 -9,-20 -8,-26 0,-4 0,-8 2,-12 1,-2 2,-3 2,-5l-3 2 0 0z"/>
  <path class="fil1" d="M588 198c0,-1 6,-17 7,-19l0 -5 -25 0 0 24 18 0z"/>
  <path class="fil4" d="M546 136l0 13 24 0 0 -22c-1,-1 -1,0 -2,0l-15 6c-2,1 -5,2 -7,3l0 0z"/>
  <path class="fil8" d="M479 268l0 18 22 0 0 -19 -11 1c-4,0 -7,0 -11,0l0 0z"/>
  <path class="fil1" d="M546 246l0 -23 -12 0c-3,2 -5,12 -5,16 0,3 0,5 0,7l17 0z"/>
  <path class="fil5" d="M436 162l-6 -7 -2 11c-3,-1 -5,-4 -8,-5 1,3 2,6 4,9 4,0 6,-2 17,-2 7,0 13,1 17,1 2,-2 5,-5 6,-8l-8 2 0 -8c-4,2 -6,6 -10,8l-5 -11 -5 10 0 0z"/>
  <path class="fil2" d="M432 276l-7 0c0,2 2,4 3,6l-3 7c11,2 4,-4 11,6 0,1 0,0 0,1l4 -7c3,0 5,1 8,0l-4 -7c2,-2 3,-4 4,-6 -8,0 -7,0 -9,-3 -1,-2 -1,-3 -3,-4 -2,2 -2,6 -4,7z"/>
  <path class="fil1" d="M570 246l15 0c0,-6 -1,-13 -1,-18 0,-2 0,-3 0,-5l-14 0 0 23z"/>
  <path class="fil7" d="M521 207c1,1 1,4 0,5 0,-1 0,-4 -1,-5l-2 1c-1,2 -2,5 -3,8 -2,3 -3,5 -3,9 3,-1 0,-2 3,-2 0,2 -1,2 -2,4 -1,3 0,5 -1,7 -1,-2 0,-2 -1,-4l-6 13c3,-1 6,-3 8,-5 1,-1 2,-2 4,-3 2,-2 1,-3 3,-3 0,2 0,0 -1,2 0,1 1,0 0,2 -1,2 -2,3 -2,5l2 1c1,-3 2,-7 3,-10 0,-4 2,-7 3,-10l-6 -9c3,0 1,1 3,2 0,-1 3,-7 2,-8 -1,-1 -2,-1 -3,0l0 0z"/>
  <path class="fil1" d="M522 141l0 8 24 0 0 -13c-4,1 -7,2 -11,3 -3,1 -11,1 -13,2l0 0z"/>
  <polygon class="fil1" points="570,149 593,149 570,127 "/>
  <path class="fil1" d="M522 204l0 -6 -24 0 0 11c3,0 11,0 13,-1 3,-1 9,-3 11,-4z"/>
  <path class="fil5" d="M433 277l-6 0 3 5 -3 6 6 0 3 5 4 -5 6 0 -3 -6c1,-1 3,-4 3,-5l-6 0 -3 -5 -4 5z"/>
  <path class="fil8" d="M467 276c1,4 8,7 11,10l0 -18 -11 -6 0 14z"/>
  <path class="fil8" d="M502 281l0 6 -20 0c2,1 5,2 7,2 3,1 5,1 8,2 3,0 3,-1 6,-1 5,-1 15,-4 18,-8 -4,0 -6,0 -9,-1 -2,0 -7,0 -10,0z"/>
  <path class="fil4" d="M498 149l24 0 0 -8c-4,0 -4,2 -12,1l-12 1 0 6z"/>
  <path class="fil7" d="M497 232c0,2 -1,4 -1,5 3,0 3,-2 7,-2l1 2c-1,2 -2,3 -5,2 -10,10 -3,8 -5,12 -2,-1 0,0 -2,-3 -1,2 -1,6 2,7l-2 6c5,-1 4,-14 4,-18 3,1 1,0 2,5 0,0 2,3 4,3 1,-4 -2,-2 3,-10 0,-1 1,-4 1,-5 0,-1 -1,-4 -1,-5 -3,1 -5,1 -8,1l0 0z"/>
  <path class="fil7" d="M495 262l7 5 0 13c1,-2 1,-3 1,-6 0,-3 2,-18 3,-19l-7 -4c-1,2 -1,4 -2,6 -1,2 -2,3 -2,5l0 0z"/>
  <path class="fil1" d="M597 174c2,-2 6,-10 7,-13l-9 -9 0 22 2 0z"/>
  <path class="fil7" d="M510 280c1,-1 1,0 1,-3 1,-2 1,-3 1,-4 1,-3 1,-6 1,-9 0,-1 -5,-6 -6,-8 -1,6 -3,8 -1,13 2,4 2,3 3,8 0,3 0,2 1,3l0 0z"/>
  <path class="fil8" d="M480 265l5 0c0,-4 3,-12 5,-15 3,-5 5,-8 9,-12 3,0 4,1 4,-2 -8,0 -16,13 -19,19 -2,3 -2,7 -4,10l0 0z"/>
  <path class="fil2" d="M432 210c3,3 4,0 8,0 3,-1 4,2 8,-1l0 -2 -2 -2c-5,3 -3,2 -6,1 -2,0 0,0 -2,1 -2,0 -2,-2 -5,-2 -1,2 -1,3 -1,5l0 0z"/>
  <path class="fil7" d="M525 279l4 -3c-2,-3 -3,-11 -4,-15 -1,2 -4,7 -3,9 0,2 3,8 3,9l0 0z"/>
  <path class="fil5" d="M437 176l9 0c0,-2 0,-6 0,-7l-9 0c0,2 0,4 0,7l0 0z"/>
  <path class="fil7" d="M506 248c0,4 0,7 4,9 2,-7 2,-6 2,-16l-6 7z"/>
  <path class="fil7" d="M527 223c3,-1 6,-3 7,-6l-2 -2c-2,2 0,2 -2,2l1 -3 -3 -3c-1,7 -4,9 -1,12l0 0z"/>
  <path class="fil7" d="M507 225c0,4 0,6 0,9l4 -6c0,-2 0,-3 0,-4 -1,-3 0,-2 0,-4 -1,1 -4,3 -4,5l0 0z"/>
  <path class="fil5" d="M427 170c1,2 1,1 1,4 -2,1 -1,1 -3,1l0 1 7 0 0 -6c-2,-1 -4,0 -5,0l0 0z"/>
  <path class="fil8" d="M495 264l1 1c-6,1 -10,1 -15,1 -2,0 -6,-2 -8,-3 -2,-3 4,-2 -4,-2 2,1 9,6 12,6 1,0 4,0 9,0 7,0 3,0 9,-1l-4 -2 0 0z"/>
  <path class="fil1" d="M445 322c2,0 5,0 7,0 3,1 4,2 6,2 0,-6 -10,-5 -13,-2l0 0z"/>
  <path class="fil7" d="M504 276l0 4 4 0c0,-3 -1,-7 -3,-9 0,-1 0,-1 0,-1l-1 -1c0,3 0,5 0,7z"/>
  <path class="fil5" d="M456 174c-1,1 0,1 -3,0l1 -3 2 0 0 2 1 -2c-1,-1 -4,-1 -5,-2l-1 7 5 1 0 -3 0 0z"/>
  <path class="fil7" d="M478 254l2 1c0,-2 0,-2 1,-3 2,2 0,0 0,6 3,-5 2,-7 2,-13 -1,1 -3,6 -5,9l0 0z"/>
  <path class="fil5" d="M447 176l3 0c0,-2 1,-4 1,-7l-4 0c0,3 0,5 0,7l0 0z"/>
  <path class="fil7" d="M484 243l0 8c1,-1 2,-2 3,-4 2,-3 1,-1 1,-5 -2,1 -2,1 -4,1l0 0z"/>
  <path class="fil5" d="M433 170c0,3 0,4 0,6l3 0 0 -7c-2,0 -2,0 -3,1l0 0z"/>
  <path class="fil9" d="M439 170c0,3 0,4 4,4 3,-4 -1,-6 -4,-4z"/>
  <path class="fil2" d="M427 188l1 1c1,-1 1,-1 2,-2l2 2 1 -3 1 2c-3,2 -2,0 -5,1 2,2 6,1 6,-3 -2,-1 -6,0 -8,2l0 0z"/>
  <path class="fil2" d="M449 188c1,0 1,1 1,-2 -2,0 -3,-1 -4,0 -1,2 2,4 4,4l2 -2c2,1 1,1 2,0 -1,-1 -1,-1 -3,-1l-1 2 -1 -1 0 0z"/>
  <path class="fil7" d="M525 219c0,-2 2,-9 1,-10 -1,0 -1,3 -2,5 -1,2 -2,3 1,5z"/>
  <path class="fil7" d="M513 251l4 -9 -2 -1c-2,2 -2,7 -2,10z"/>
  <path class="fil7" d="M488 259l3 0c1,-2 0,-4 -1,-7 -1,2 -2,6 -2,7l0 0z"/>
  <path class="fil2" d="M441 200c1,1 3,-1 4,-2 2,2 2,4 5,4 -1,-1 -4,-5 -5,-6 -1,1 -4,3 -4,4l0 0z"/>
  <path class="fil4" d="M425 175c2,0 1,0 3,-1 0,-3 0,-2 -1,-4l-3 1 1 4 0 0z"/>
  <path class="fil2" d="M436 213c2,1 1,0 4,0 2,0 2,0 4,1 0,-1 1,-2 -3,-3 -2,0 -4,0 -5,2z"/>
  <path class="fil2" d="M445 184c11,0 5,1 9,2 -2,-4 -5,-3 -9,-3l0 1z"/>
  <path class="fil2" d="M427 184c2,0 2,0 4,0 2,0 4,0 5,0l0 -1c-3,0 -7,-1 -9,1z"/>
  <path class="fil4" d="M456 174l0 -1 0 -2 -2 0 -1 3c3,1 2,1 3,0z"/>
  <path class="fil2" d="M433 201c1,0 2,-1 3,-2 2,1 1,1 3,1 0,-1 0,1 -3,-3 -1,0 -3,3 -3,4z"/>
  <path class="fil7" d="M510 218c3,-1 0,0 3,0 0,-1 1,-3 1,-4 -2,1 -4,1 -4,4l0 0z"/>
  <path class="fil7" d="M503 252l2 1c0,-2 0,-4 -1,-6 -1,2 -1,3 -1,5z"/>
  <path class="fil8" d="M495 264c-2,-2 -5,-4 -8,-4l2 1c3,1 3,2 6,3z"/>
  <path class="fil8" d="M487 265c2,-1 2,-1 1,-3 -2,0 -2,1 -1,3z"/>
  <path class="fil2" d="M419 311c2,0 1,0 3,-1 -2,-2 -4,-2 -3,1z"/>
  <path class="fil7" d="M499 230l5 0 0 -2c-1,0 0,0 -2,1 -1,0 -2,1 -3,1z"/>
  <path class="fil2" d="M457 190c1,-2 1,-4 0,-5 -1,1 -1,3 0,5z"/>
  <path class="fil7" d="M515 240c1,-1 1,-2 2,-4 -2,2 -4,2 -2,4z"/>
  <path class="fil8" d="M478 264c2,1 2,0 2,-2 -2,1 -2,0 -2,2z"/>
  <path class="fil7" d="M479 259c1,0 0,0 2,0 -1,-1 -2,-2 -2,0z"/>
  <path class="fil5" d="M449 188c-1,-2 -1,-1 -2,-2 0,2 0,1 2,2z"/>
  <path class="fil7" d="M506 229c0,-2 0,-1 -1,-3 -1,1 0,2 1,3z"/>
  <polygon class="fil5" points="424,206 425,206 425,204 "/>
  <path class="fil7" d="M489 243c2,-2 2,-1 0,-1l0 1z"/>
 </g>
</svg>
