<?xml version="1.0" encoding="UTF-8"?>
<svg width="800" height="400" version="1.1" xmlns="http://www.w3.org/2000/svg" xmlns:xlink="http://www.w3.org/1999/xlink">
 <g transform="translate(0 -652.36)">
  <g transform="matrix(.66667 0 0 .66668 .0026112 652.37)">
   <rect width="1200" height="600" fill="#fff"/>
  </g>
  <rect x=".0039062" y="652.36" width="800" height="57.158" fill="#fc0"/>
  <rect x=".0039062" y="767.3" width="800" height="57.158" fill="#fc0"/>
  <rect x=".0039062" y="881.19" width="800" height="57.158" fill="#fc0"/>
  <rect x=".0039062" y="995.22" width="800" height="57.158" fill="#fc0"/>
  <g transform="matrix(.89594 0 0 .89427 315.78 757.03)">
   <path d="m0.99339 1.0003 0.013991 183.01c0.021534 10.547 9.4463 19.486 19.987 19.497h63.004c4.5011 1.0923 8.3232 7.91 9.9969 10.508 1.6099-2.5873 5.4822-9.4153 10.011-10.494h65.004c10.535-0.0249 18.016-9.0181 17.993-19.518l7e-3 -183z" fill="#0034b0"/>
   <rect x="1.0289" y="26.998" width="185.98" height="26.001" fill="#fff"/>
   <rect x="1.0289" y="79.875" width="185.95" height="26.001" fill="#fff"/>
   <rect x="1.0289" y="105.56" width="185.95" height="34.438" fill="#090"/>
   <rect x="1.0289" y="158.1" width="185.95" height="26.001" fill="#fff"/>
   <path d="m149.98 96.438v12.562c0.0106 4.2396 5.3383 7.8319 9.0156 8.9844-8.2206-1.5282-20.412-0.86592-20.412-0.86592s-4.2307 0.82201-6.4475 0.86592l4.8125-6.5v-17.625z" fill="#630"/>
   <path d="m160.95 100.97c-0.38759-0.62713-1.9038-0.87437-3.457-0.56373-2.0076 0.40153-3.2775-0.012-4.6287-1.5075-1.5427-1.7073-2.6581-1.9668-6.503-1.5126-3.1736 0.37486-5.2288 0.10295-6.5-0.85999-2.2042-1.6696-5.9755-1.9013-6.889-0.42322-0.45174 0.73093-1.0321 0.72983-1.9159-0.0036-0.6973-0.5787-2.6175-0.78226-4.2671-0.45234-2.236 0.44721-3.1593 0.1827-3.6283-1.0395-0.50689-1.3209-1.03-1.4248-2.6934-0.53457-2.4201 1.2952-7.5404 0.93143-7.2987-0.51853 0.0917-0.55 0.31666-1.675 0.5-2.5 0.23745-1.0686-0.38575-1.4276-2.1667-1.2481-1.375 0.13858-4.75 0.3374-7.5 0.44183-4.9807 0.18913-5.0019 0.17661-5.5-3.252-0.44196-3.0423-0.88395-3.4787-3.8073-3.7595-4.0602-0.38993-5.2587-2.8339-2.4815-5.0603 2.4538-1.9672 3.5897-6.0546 2.1609-7.7762-1.4662-1.7666-0.19791-3.3458 2.687-3.3458 2.9544 0 3.1799-1.5342 0.44098-3-2.6943-1.442-2.518-2.8526 0.5-4 2.6214-0.99666 3.2181-2.4381 1.4593-3.5251-0.57237-0.35375-0.77447-1.4819-0.44911-2.507 0.4372-1.3775-0.20454-2.2755-2.4593-3.4415-1.678-0.86772-3.0318-1.9036-3.0085-2.302 0.02332-0.39838 2.7649-2.0743 6.0925-3.7243 3.3275-1.65 6.2775-3.3659 6.5556-3.813 0.27802-0.44716-0.27485-1.6753-1.2286-2.7292-1.6494-1.8226-1.642-1.946 0.15204-2.5277 4.2892-1.3907 6.3861-2.8657 6.3861-4.4922 0-0.94822 0.73625-2.0066 1.6361-2.3519 1.4992-0.57531 1.491-0.78815-0.098-2.544-2.1005-2.321-1.2651-4.0422 1.9618-4.0422 1.3101 0 2.6831-0.48724 3.0512-1.0828 1.1588-1.8749 9.7728-5.0528 12.108-4.4667 1.4577 0.36587 2.5471 4e-3 3.1318-1.041 0.64781-1.1576 2.7371-1.694 7.5316-1.9336 3.6493-0.18238 7.0979-0.61762 7.6635-0.96718 0.56561-0.34957 1.2983 0.0679 1.6283 0.92781 0.32996 0.85986 1.0788 1.5634 1.6642 1.5634s1.9098 0.76515 2.9431 1.7003c1.5425 1.3959 2.4001 1.5036 4.7904 0.60133 3.9788-1.5018 5.897 0.56596 2.9766 3.2089-1.7135 1.5507-1.8077 2.0446-0.64847 3.4018 0.74586 0.87323 1.6354 2.3752 1.9767 3.3377 0.41112 1.1593 1.672 1.75 3.7353 1.75 3.6704 0 3.5862 2.0854-0.12609 3.1227-2.1003 0.58693-2.1575 0.70717-0.42586 0.896 2.5058 0.27326 2.4778 0.27593 5.7686-0.55003 2.0368-0.51119 2.7314-0.31591 2.7314 0.76789 0 0.79939 0.9 2.2679 2 3.2634s2 2.7752 2 3.955c0 1.1798 0.53091 2.6759 1.1798 3.3248 1.2666 1.2666-0.0425 4.8544-3.1234 8.5605-1.3876 1.6692-1.3506 1.9714 0.398 3.25 1.0603 0.77532 2.5168 1.4097 3.2367 1.4097 2.3684 0 1.3699 3.6512-1.3357 4.8839l-2.6445 1.2049 2.6445 2.7603c3.37 3.5176 3.7422 9.6677 0.64454 10.651-1.2673 0.40224-2 1.513-2 3.0322 0 1.374 0.85379 2.8544 2 3.4678 2.464 1.3187 2.5488 2.8721 0.25 4.5788-1.4715 1.0925-1.551 1.6252-0.5 3.3467 1.7344 2.8407 1.5614 4.2319-0.5 4.0222-3.7543-0.38189-4.9728 0.14849-6.1186 2.6633-1.2168 2.6705-1.8103 2.7348-7.8814 0.8531-1.6688-0.51723-2.25-0.29501-2.25 0.86025 0 2.0063-1.6571 3.0395-2.5522 1.5912z" fill="#090"/>
   <path d="m90.75 19.75c-1.6061 5.5038-5.0334 8.763-13.312 10.438-6.3856 3.1295-8.6062 8.6017-12.625 13.062l-2.8125-2.9375c1.8462-1.4607 3.4823-3.4258 4.5-6.875-6.722-7.305-5.5222-14.255-1.125-21.062-1.3649 6.0657-0.81627 11.557 2.8125 16.125l2.1875-3.1875c-1.6202-8.5189 1.4377-13.706 6.8125-16.562-3.1868 5.5504-5.1558 11.158-3.1875 16.875 4.2292-5.1042 9.3862-11.879 12.688-15.312-0.01632 5.0953-5.2234 9.4828-8.5625 14.125 2.1527-0.38884 6.25-3.875 6.25-3.875 0.27554 0.68884-1.9706 3.8015-3.0625 5.8125 3.3858-1.1684 6.5515-3.2907 9.4375-6.625z" fill="#fff" stroke="#808080"/>
   <path d="m62.314 48.769c-14.839-4.7792-36.78-4.2483-29.036-28.594 0.484 3.5355 0.3917 7.6014 2.0771 11.137 0.2733-4.8497 0.44074-9.7488 4.1543-12.993-2.9328 6.1939-1.54 11.784 0.53033 17.28 0.65475-3.6305 1.6446-8.2148 2.8726-12.419-0.26156 4.2868-0.83186 9.5459 0.7513 13.833 2.4571 6.2342 16.042 8.9235 16.143 8.5997 0 0 0.14479 2.0462 2.5073 3.156z" fill="#fff" stroke="#808080"/>
   <path d="m135.56 4.5c-7.8867 14.673-23.779 13.566-34.375 21.312-14.662 18.657-22.066 19.934-30.688 24.125l-10.25-1c-8.1306-7.3139-21.786-12.681-10.75-26.75-1.6747 10.291 3.9639 16.751 12.75 21.562-5.4579-6.2932-13.451-12.219 2.125-21.562-4.29 6.8608-8.291 13.715 2.25 20.25l9.0625-2.75c0.79023-4.7201-2.4235-10.217 3.125-13.625-0.29949 4.293-1.1517 8.6836 1.25 12.5 6.4086-0.26534 10.226-7.2136 13.5-15.562-0.48525-5.9543 1.0703-10.524 5.25-13.312-1.0706 3.754-3.4002 6.9896-1.875 11.812 3.1198-1.9493 4.993-9.3372 7.6875-12.25 1.1872 6.5134-3.3136 9.5401-1.875 13.312 0.60574 0.2596 7.1219-13 6.6875-14.25l-0.0625 9.3125c4.0524-0.82852 7.426-5.3421 10.312-12.5l-0.6875 9.5625c5.8435-1.5673 11.208-5.8493 16.562-10.187z" fill="#fff" stroke="#808080"/>
   <path d="m75.688 61.812c18.194-4.1115 14.968-14.505-0.25-7.375-6.8776-8.4988-14.602-8.6863-23.312 0.8125-3.8531 4.5074-6.71 6.6458-9.5 8.625-6.4857 3.0439-5.9636 7.2675 0.125 7.5 1.9453 2.8151 6.1503 2.0793 10.375 1.3125-3.6852 8.9577-7.9147 13.898-12.392 16.754l2.8295 0.37121-14.688 26.562c-13.727 0.90327-26.023 16.059-9.5625 12.438 1.7912 0.21836 4.3218-0.71361 4.75 1.625l5.375 0.25c-4.8454 7.521-2.6865 10.139 9.125 6 7.6501-1.2337 15.334-2.673 22.5-1 1.7371-0.35392 3.3521-1.0332 5.5625-0.125 5.1939 2.6925 9.2142 4.1007 5.6875-2.75 4.5517 1.8586 9.2402 2.076 14.125-0.0625-1.1025 1.4937-4.3504 3.2398-2.9375 4.4375 2.3747 0.51533 4.7274 0.65666 6.9375-1.625 2.5061-0.3892 4.9287-1.1543 7.75-0.125 2.6341 1.8555 4.7927 0.38231 6.9375-1.1875l11.875 0.0625c3.7995 0.51265 7.4898 2.008 11.438 1.1875l3.9375 0.0625c7.8662-0.12898 6.1892-2.8273 1.125-6.4375l1.1875-19.062 0.875 13.438c0.0703 6.1738 3.5827 2.6852 4.3125 0.25 1.407-6.4008-1.8555-11.829-4.25-17.438-4.578-4.3312-9.5676-9.2027-22-8.875-15.398-8.5174-27.169-0.55185-40.75-0.8125-11.429-2.5151 1.3067-23.632 2.8125-34.812z" fill="#630" stroke="#391200"/>
   <path d="m69.625 56.312c-5.1859 0.24333-9.4955 1.8166-12.25 5.75" fill="none" stroke="#391200" stroke-width="1px"/>
   <path d="m58.688 60.75c8.7157 1.6599 7.012-1.8898 8.3125-3.9375-2.875-0.46489-5.75 1.2133-8.625 3.5625z" fill="#391200"/>
   <path d="m42.438 64.188c-0.20517 2.2959-0.61163 4.6143 0.625 6.75 2.5427-0.23549 5.1054-0.59072 7.8125-1.8125" fill="none" stroke="#391200" stroke-width="1px"/>
   <path d="m52.812 72.812c3.4693-0.71489 4.6853-0.07784 6.625 0.125 2.2163 0.55072 3.8254 0.40756 4.875-0.375 1.677 0.11451 2.8229-0.3021 3.5-1.1875" fill="none" stroke="#391200" stroke-width="1px"/>
   <path d="m52.141 74.797c-1.7889 2.7945-3.4853 5.697-5.1094 8.6562 6.5603 4.2841 13.618 5.1521 21.344 4.1094l2.2344-8.7344c-7.3222 1.4629-13.313 0.17244-18.469-4.0312z" fill="#fc0" stroke="#a80" stroke-width="1px"/>
   <path d="m30.469 125.56c-2.8237 2.1898-6.1409 2.9184-9.125 3.3438" fill="none" stroke="#391200" stroke-width="1px"/>
   <path d="m45.688 89.5c0.11445-1.4294-2.8909-1.9034-6.3541 0.76831-13.468 11.542-10.402 31.065-8.7709 35.169 5.3864-9.9682 10.72-20.247 15.125-35.938z" fill="#fff" stroke="#808080" stroke-width="1px"/>
   <path d="m45.375 110.44c-10.4 3.1625-3.1941 15.646-16.25 20.438" fill="none" stroke="#391200" stroke-width="1px"/>
   <path d="m32.125 138.44c12.724-15.226 20.901 0.95412 30.5-15.188" fill="none" stroke="#391200" stroke-width="1px"/>
   <path d="m57.688 129c2.875 0.69889 5.75 3.344 8.625 1.375 2.9998-2.9368 4.2741 1.604 6.375 2.5625" fill="none" stroke="#391200" stroke-width="1px"/>
   <path d="m85.938 132.94c1.4631-1.0998 2.5006-3.0035 5.375-1.4375 6.2806-1.9189 11.935-1.0208 17.562 0l12.75 0.0625" fill="none" stroke="#391200" stroke-width="1px"/>
   <path d="m0.99339 1.0003 0.013991 183.01c0.021534 10.547 9.4463 19.486 19.987 19.497h63.004c4.5011 1.0923 8.3232 7.91 9.9969 10.508 1.6099-2.5873 5.4822-9.4153 10.011-10.494h65.004c10.535-0.0249 18.016-9.0181 17.993-19.518l7e-3 -183z" fill="none" stroke="#000050" stroke-width="2"/>
  </g>
 </g>
</svg>
