<?xml version="1.0" encoding="UTF-8" standalone="no"?>
<!-- Created with Inkscape (http://www.inkscape.org/) -->

<svg
   xmlns:dc="http://purl.org/dc/elements/1.1/"
   xmlns:cc="http://creativecommons.org/ns#"
   xmlns:rdf="http://www.w3.org/1999/02/22-rdf-syntax-ns#"
   xmlns:svg="http://www.w3.org/2000/svg"
   xmlns="http://www.w3.org/2000/svg"
   xmlns:sodipodi="http://sodipodi.sourceforge.net/DTD/sodipodi-0.dtd"
   xmlns:inkscape="http://www.inkscape.org/namespaces/inkscape"
   width="1875"
   height="937.50012"
   id="svg2"
   version="1.1"
   inkscape:version="0.48.4 r9939"
   sodipodi:docname="Flag of Karlovac county.svg">
  <defs
     id="defs4" />
  <sodipodi:namedview
     id="base"
     pagecolor="#ffffff"
     bordercolor="#666666"
     borderopacity="1.0"
     inkscape:pageopacity="0.0"
     inkscape:pageshadow="2"
     inkscape:zoom="0.35355339"
     inkscape:cx="909.16064"
     inkscape:cy="264.57749"
     inkscape:document-units="px"
     inkscape:current-layer="layer1"
     showgrid="false"
     inkscape:object-paths="false"
     inkscape:snap-intersection-paths="false"
     inkscape:object-nodes="false"
     inkscape:snap-smooth-nodes="false"
     inkscape:window-width="1920"
     inkscape:window-height="1017"
     inkscape:window-x="-8"
     inkscape:window-y="-8"
     inkscape:window-maximized="1"
     fit-margin-top="0"
     fit-margin-left="0"
     fit-margin-right="0"
     fit-margin-bottom="0" />
  <metadata
     id="metadata7">
    <rdf:RDF>
      <cc:Work
         rdf:about="">
        <dc:format>image/svg+xml</dc:format>
        <dc:type
           rdf:resource="http://purl.org/dc/dcmitype/StillImage" />
        <dc:title></dc:title>
      </cc:Work>
    </rdf:RDF>
  </metadata>
  <g
     inkscape:label="Layer 1"
     inkscape:groupmode="layer"
     id="layer1"
     transform="translate(601.51852,106.23096)">
    <g
       id="g4380"
       transform="matrix(3.125,0,0,3.125,1278.2269,-1766.447)">
      <g
         transform="translate(-23.174358,9.9934988)"
         id="g4231">
        <g
           id="g4339">
          <rect
             y="671.2757"
             x="-578.34418"
             height="149.99997"
             width="600"
             id="rect4147"
             style="fill:#ffcc00;fill-opacity:1;stroke:none" />
          <rect
             style="fill:#ff0000;fill-opacity:1;stroke:none"
             id="rect4075"
             width="600"
             height="149.99997"
             x="-578.34418"
             y="521.27563" />
        </g>
      </g>
      <g
         transform="matrix(0.87663421,0,0,0.8772379,-448.10489,128.59224)"
         id="g3985">
        <path
           inkscape:connector-curvature="0"
           id="path4083"
           d="m 76.9375,517.15625 0,4.375 0,109.15625 c 0,38.67713 15.828581,60.62544 34.625,75.21875 18.79642,14.59331 40.14809,22.69914 52.15625,34.6875 l 3.09375,3.09375 3.0625,-3.09375 c 12.00739,-11.96543 33.35899,-20.03417 52.15625,-34.625 18.79726,-14.59083 34.65625,-36.56118 34.65625,-75.25 l 0,-109.1875 0,-4.375 -4.375,0 -171.03125,0 -4.34375,0 z m 8.71875,8.75 162.28125,0 0,104.8125 c 0,36.38336 -13.82777,54.82025 -31.25,68.34375 -16.22446,12.59376 -35.83555,20.23861 -49.875,32.59375 C 152.77338,719.27911 133.16274,711.59707 116.9375,699 99.514426,685.47294 85.65625,667.05843 85.65625,630.6875 l 0,-104.78125 z"
           style="font-size:medium;font-style:normal;font-variant:normal;font-weight:normal;font-stretch:normal;text-indent:0;text-align:start;text-decoration:none;line-height:normal;letter-spacing:normal;word-spacing:normal;text-transform:none;direction:ltr;block-progression:tb;writing-mode:lr-tb;text-anchor:start;baseline-shift:baseline;color:#000000;fill:#ffe800;fill-opacity:1;stroke:#000000;stroke-width:1.45757639;stroke-miterlimit:4;stroke-dasharray:none;marker:none;visibility:visible;display:inline;overflow:visible;enable-background:accumulate;font-family:Sans;-inkscape-font-specification:Sans" />
        <path
           style="fill:#ff0000;fill-opacity:1;stroke:#000000;stroke-width:1;stroke-linecap:butt;stroke-linejoin:miter;stroke-miterlimit:4;stroke-opacity:1;stroke-dasharray:none"
           d="m 252.30829,630.72393 0,-109.18908 -171.013377,0 0,109.16495 c 0,75.04806 59.371287,80.7186 85.506687,106.81092 26.1354,-26.04407 85.50669,-31.71461 85.50669,-106.78679 z"
           id="path3837"
           inkscape:connector-curvature="0"
           sodipodi:nodetypes="sccscs" />
        <path
           inkscape:connector-curvature="0"
           style="fill:#ffffff;stroke:#000000;stroke-width:1;stroke-linecap:round;stroke-linejoin:round;stroke-miterlimit:4;stroke-opacity:1;stroke-dasharray:none;stroke-dashoffset:0"
           d="m 81.28125,539.6875 0,16.375 171,0 0,-16.375 -171,0 z m 0,32.75 0,16.375 171,0 0,-16.375 -171,0 z m 0,32.75 0,16.375 171,0 0,-16.375 -171,0 z M 81.5,637.90625 c 0.319975,5.90754 1.038712,11.34575 2.09375,16.375 l 166.4375,0 c 1.05349,-5.03138 1.74398,-10.46513 2.0625,-16.375 l -170.59375,0 z"
           id="rect3803" />
        <path
           inkscape:connector-curvature="0"
           style="fill:#0000cc;fill-opacity:1;stroke:#000000;stroke-width:1px;stroke-linecap:butt;stroke-linejoin:miter;stroke-opacity:1"
           d="M 166.9375,572.40625 89,671.25 c 16.91739,37.99686 57.45183,45.92289 77.8125,66.25 20.40676,-20.33545 61.05794,-28.23957 77.90625,-66.46875 l -77.78125,-98.625 z"
           id="path3851" />
        <path
           inkscape:connector-curvature="0"
           style="fill:#ffff00;fill-opacity:1;stroke:#000000;stroke-width:0.625;stroke-linecap:round;stroke-linejoin:round;stroke-miterlimit:4;stroke-opacity:1;stroke-dasharray:none;stroke-dashoffset:0"
           d="m 166.8451,630.71958 -4.48308,7.8571 -9.19461,0 4.5973,8.0593 -4.5973,8.0593 9.19461,0 4.48308,7.8571 4.48308,-7.8571 9.22316,0 -4.5973,-8.0593 4.5973,-8.0593 -9.22316,0 -4.48308,-7.8571 z"
           id="path3821" />
        <path
           style="fill:#ffffff;stroke:#000000;stroke-width:0.625;stroke-linecap:butt;stroke-linejoin:miter;stroke-miterlimit:4;stroke-opacity:1;stroke-dasharray:none"
           d="m 122.16251,655.38227 c 11.89038,-18.28264 37.45287,-61.35719 64.0726,-50.17733 -26.34302,6.10926 -40.00258,29.75132 -55.58105,54.80909 z"
           id="path3913"
           inkscape:connector-curvature="0"
           sodipodi:nodetypes="cccc" />
        <path
           style="fill:none;stroke:#000000;stroke-width:0.625;stroke-linecap:butt;stroke-linejoin:miter;stroke-miterlimit:4;stroke-opacity:1;stroke-dasharray:none"
           d="m 171.80863,607.21544 c -16.4592,8.24512 -31.40788,25.87841 -44.21446,49.4001"
           id="path3915"
           inkscape:connector-curvature="0"
           sodipodi:nodetypes="cc" />
        <path
           style="fill:#ffff00;fill-opacity:1;stroke:#000000;stroke-width:0.625;stroke-linecap:butt;stroke-linejoin:round;stroke-miterlimit:4;stroke-opacity:1;stroke-dasharray:none"
           d="m 137.21571,659.04908 c -2.54031,0.41293 -2.87679,-2.13699 -1.73691,-3.18433 1.68215,-1.54559 5.34817,0.12865 5.40372,3.18433 0.0386,2.12351 -3.28519,4.77075 -5.40372,4.92124 -6.67948,0.47446 -16.0162,-11.00625 -18.8165,-7.91258 0,0 4.73135,-0.37736 1.54392,2.89484 -1.40609,1.44349 -4.66917,-1.29607 -5.01774,-3.28082 -0.31927,-1.81796 1.78784,-3.28407 3.57032,-3.76331 2.84856,-0.76586 5.26426,2.43696 8.20206,2.70186 1.35913,0.12255 4.05279,-0.57897 4.05279,-0.57897 0,0 0.74312,1.9132 1.25443,2.79835 0.89266,1.5453 5.00537,3.04411 6.94763,2.21939 z"
           id="path3911"
           inkscape:connector-curvature="0"
           sodipodi:nodetypes="cssscsssscsc" />
        <path
           style="fill:#ffffff;stroke:#000000;stroke-width:0.625;stroke-linecap:butt;stroke-linejoin:miter;stroke-miterlimit:4;stroke-opacity:1;stroke-dasharray:none"
           d="m 182.5683,674.29527 c -5.2716,2.96955 -10.93044,11.28529 -13.79876,11.09691 -5.69145,-0.37381 -17.6076,-8.56385 -27.40455,-14.18475 -5.33027,-8.62412 -9.27751,-10.54102 -13.60578,-12.15836 l -6.36866,21.23858 c 4.16688,2.01786 9.26926,2.72 14.86021,2.88514 8.7656,11.83613 20.22853,19.92541 32.61527,27.98352 7.99287,-5.89891 15.34821,-11.03278 24.5097,-18.33403 2.29969,-5.60828 3.10142,-14.5211 -10.80743,-18.52701 z"
           id="path3860"
           inkscape:connector-curvature="0"
           sodipodi:nodetypes="csccccccc" />
        <path
           style="font-size:medium;font-style:normal;font-variant:normal;font-weight:normal;font-stretch:normal;text-indent:0;text-align:start;text-decoration:none;line-height:normal;letter-spacing:normal;word-spacing:normal;text-transform:none;direction:ltr;block-progression:tb;writing-mode:lr-tb;text-anchor:start;baseline-shift:baseline;color:#000000;fill:#ffff00;fill-opacity:1;stroke:#000000;stroke-width:0.625;stroke-linejoin:round;stroke-miterlimit:4;stroke-dasharray:none;marker:none;visibility:visible;display:inline;overflow:visible;enable-background:accumulate;font-family:Sans;-inkscape-font-specification:Sans"
           d="m 122.0625,676.90625 c -0.70802,0.0438 -2.13795,0.16096 -2.36571,0.83277 -1.33935,1.64574 -1.07979,2.74472 -2.77122,4.05714 0.82134,-0.72752 1.71398,-1.68672 0.99841,-2.7368 -0.58087,-0.74449 -2.26438,-0.96161 -3.00887,-0.38074 -1.38363,1.07861 -2.30731,1.67336 -2.20246,3.68385 0.0908,1.74111 0.97886,3.00698 2.44078,3.41721 1.46192,0.41023 3.66588,1.33028 5.11629,0.14578 1.45041,-1.18431 3.13337,-3.27739 4.15298,-6.09924 0.42437,-1.11561 -1.16842,-2.9854 -2.36022,-2.91997 z"
           id="path3905"
           inkscape:connector-curvature="0"
           sodipodi:nodetypes="cccccsscccc" />
        <path
           style="fill:#ffffff;stroke:#000000;stroke-width:0.625;stroke-linecap:butt;stroke-linejoin:miter;stroke-miterlimit:4;stroke-opacity:1;stroke-dasharray:none"
           d="m 193.37573,692.82228 c 0,0 2.125,0.40285 2.89484,-0.19299 8.07779,-6.25208 19.87795,-17.56206 19.87795,-17.56206 l -9.4565,-38.01898 c -7.23438,1.51683 -12.2707,4.88261 -12.35134,19.68495 -3.22761,7.50145 -11.77238,13.34423 -11.77238,15.0532 l 0,2.50887 c 5.93091,5.34409 9.96357,11.36612 10.80743,18.52701 z"
           id="path3856"
           inkscape:connector-curvature="0"
           sodipodi:nodetypes="cscccscc" />
        <path
           style="font-size:medium;font-style:normal;font-variant:normal;font-weight:normal;font-stretch:normal;text-indent:0;text-align:start;text-decoration:none;line-height:normal;letter-spacing:normal;word-spacing:normal;text-transform:none;direction:ltr;block-progression:tb;writing-mode:lr-tb;text-anchor:start;baseline-shift:baseline;color:#000000;fill:#ffffff;fill-opacity:1;stroke:#000000;stroke-width:0.625;stroke-miterlimit:4;stroke-dasharray:none;marker:none;visibility:visible;display:inline;overflow:visible;enable-background:accumulate;font-family:Sans;-inkscape-font-specification:Sans"
           d="m 206.75,633.40625 a 1.50015,1.50015 0 0 0 -1.375,1.625 c 1.04753,14.89054 5.40718,27.86734 9.625,40.75 a 1.50015,1.50015 0 1 0 2.84375,-0.9375 c -4.22202,-12.89546 -8.45358,-25.60081 -9.46875,-40.03125 a 1.50015,1.50015 0 0 0 -1.625,-1.40625 z"
           id="path3866"
           inkscape:connector-curvature="0" />
        <path
           style="font-size:medium;font-style:normal;font-variant:normal;font-weight:normal;font-stretch:normal;text-indent:0;text-align:start;text-decoration:none;line-height:normal;letter-spacing:normal;word-spacing:normal;text-transform:none;direction:ltr;block-progression:tb;writing-mode:lr-tb;text-anchor:start;baseline-shift:baseline;color:#000000;fill:#ffffff;fill-opacity:1;stroke:#000000;stroke-width:0.625;stroke-miterlimit:4;stroke-dasharray:none;marker:none;visibility:visible;display:inline;overflow:visible;enable-background:accumulate;font-family:Sans;-inkscape-font-specification:Sans"
           d="m 193.0625,655.90625 a 1.50015,1.50015 0 0 0 -0.90625,2.6875 l 20.0625,15.96875 a 1.5007322,1.5007322 0 1 0 1.875,-2.34375 L 194.03125,656.25 a 1.50015,1.50015 0 0 0 -0.96875,-0.34375 z"
           id="path3868"
           inkscape:connector-curvature="0" />
        <path
           style="font-size:medium;font-style:normal;font-variant:normal;font-weight:normal;font-stretch:normal;text-indent:0;text-align:start;text-decoration:none;line-height:normal;letter-spacing:normal;word-spacing:normal;text-transform:none;direction:ltr;block-progression:tb;writing-mode:lr-tb;text-anchor:start;baseline-shift:baseline;color:#000000;fill:#ffffff;fill-opacity:1;stroke:#000000;stroke-width:0.625;stroke-miterlimit:4;stroke-dasharray:none;marker:none;visibility:visible;display:inline;overflow:visible;enable-background:accumulate;font-family:Sans;-inkscape-font-specification:Sans"
           d="m 191.28439,658.45987 a 1.50015,1.50015 0 0 0 -0.75,2.6875 l 20.0625,15.9375 a 1.50015,1.50015 0 1 0 1.84375,-2.34375 l -20.0625,-15.96875 a 1.50015,1.50015 0 0 0 -1.09375,-0.3125 z"
           id="path3870"
           inkscape:connector-curvature="0" />
        <path
           style="font-size:medium;font-style:normal;font-variant:normal;font-weight:normal;font-stretch:normal;text-indent:0;text-align:start;text-decoration:none;line-height:normal;letter-spacing:normal;word-spacing:normal;text-transform:none;direction:ltr;block-progression:tb;writing-mode:lr-tb;text-anchor:start;baseline-shift:baseline;color:#000000;fill:#ffffff;fill-opacity:1;stroke:#000000;stroke-width:0.625;stroke-miterlimit:4;stroke-dasharray:none;marker:none;visibility:visible;display:inline;overflow:visible;enable-background:accumulate;font-family:Sans;-inkscape-font-specification:Sans"
           d="M 173.1875,680.46875 A 1.50015,1.50015 0 0 0 171.90625,682.5 c 2.47267,6.74527 6.14159,12.88271 11.25,18.15625 a 1.5027644,1.5027644 0 1 0 2.15625,-2.09375 c -4.80261,-4.95786 -8.24886,-10.69706 -10.59375,-17.09375 a 1.50015,1.50015 0 0 0 -1.53125,-1 z"
           id="path3872"
           inkscape:connector-curvature="0" />
        <path
           style="font-size:medium;font-style:normal;font-variant:normal;font-weight:normal;font-stretch:normal;text-indent:0;text-align:start;text-decoration:none;line-height:normal;letter-spacing:normal;word-spacing:normal;text-transform:none;direction:ltr;block-progression:tb;writing-mode:lr-tb;text-anchor:start;baseline-shift:baseline;color:#000000;fill:#ffffff;fill-opacity:1;stroke:#000000;stroke-width:0.625;stroke-miterlimit:4;stroke-dasharray:none;marker:none;visibility:visible;display:inline;overflow:visible;enable-background:accumulate;font-family:Sans;-inkscape-font-specification:Sans"
           d="m 164.625,682.25 a 1.50015,1.50015 0 0 0 -1.3125,1 c -2.34489,6.39669 -5.79114,12.13589 -10.59375,17.09375 a 1.50015,1.50015 0 1 0 2.15625,2.0625 c 5.10841,-5.27354 8.77733,-11.37973 11.25,-18.125 a 1.50015,1.50015 0 0 0 -1.5,-2.03125 z"
           id="path3874"
           inkscape:connector-curvature="0" />
        <path
           style="font-size:medium;font-style:normal;font-variant:normal;font-weight:normal;font-stretch:normal;text-indent:0;text-align:start;text-decoration:none;line-height:normal;letter-spacing:normal;word-spacing:normal;text-transform:none;direction:ltr;block-progression:tb;writing-mode:lr-tb;text-anchor:start;baseline-shift:baseline;color:#000000;fill:#ffffff;fill-opacity:1;stroke:#000000;stroke-width:0.625;stroke-miterlimit:4;stroke-dasharray:none;marker:none;visibility:visible;display:inline;overflow:visible;enable-background:accumulate;font-family:Sans;-inkscape-font-specification:Sans"
           d="m 155.46875,677.34375 a 1.50015,1.50015 0 0 0 -1.15625,1 c -2.37787,6.48666 -4.42256,10.32901 -9.25,15.3125 a 1.50015,1.50015 0 1 0 2.15625,2.0625 c 5.08358,-5.24791 7.46656,-9.68845 9.90625,-16.34375 a 1.50015,1.50015 0 0 0 -1.65625,-2.03125 z"
           id="path3876"
           inkscape:connector-curvature="0" />
        <path
           style="font-size:medium;font-style:normal;font-variant:normal;font-weight:normal;font-stretch:normal;text-indent:0;text-align:start;text-decoration:none;line-height:normal;letter-spacing:normal;word-spacing:normal;text-transform:none;direction:ltr;block-progression:tb;writing-mode:lr-tb;text-anchor:start;baseline-shift:baseline;color:#000000;fill:#ffffff;fill-opacity:1;stroke:#000000;stroke-width:0.625;stroke-miterlimit:4;stroke-dasharray:none;marker:none;visibility:visible;display:inline;overflow:visible;enable-background:accumulate;font-family:Sans;-inkscape-font-specification:Sans"
           d="M 141.03125,669.15625 A 1.50015,1.50015 0 0 0 139.75,670.5625 c -0.48914,5.91459 -0.98563,6.98383 -5.875,12.03125 a 1.5027644,1.5027644 0 1 0 2.15625,2.09375 c 5.02165,-5.18398 6.21133,-7.7706 6.71875,-13.90625 a 1.50015,1.50015 0 0 0 -1.71875,-1.625 z"
           id="path3878"
           inkscape:connector-curvature="0" />
        <path
           style="fill:#ffffff;stroke:#000000;stroke-width:0.625;stroke-linecap:butt;stroke-linejoin:miter;stroke-miterlimit:4;stroke-opacity:1;stroke-dasharray:none"
           d="m 168.53348,692.7786 3.27515,16.98981 c -0.52879,3.3926 -5.42933,3.1235 -5.86797,0 z"
           id="path3880"
           inkscape:connector-curvature="0"
           sodipodi:nodetypes="cccc" />
        <path
           sodipodi:type="arc"
           style="fill:#ffffff;stroke:#000000;stroke-width:0.625;stroke-linecap:butt;stroke-linejoin:miter;stroke-miterlimit:4;stroke-opacity:1;stroke-dasharray:none;stroke-dashoffset:0"
           id="path3862"
           sodipodi:cx="216.22778"
           sodipodi:cy="676.74402"
           sodipodi:rx="4.9809489"
           sodipodi:ry="4.9809489"
           d="m 221.20873,676.74402 c 0,2.7509 -2.23004,4.98095 -4.98095,4.98095 -2.7509,0 -4.98095,-2.23005 -4.98095,-4.98095 0,-2.7509 2.23005,-4.98095 4.98095,-4.98095 2.75091,0 4.98095,2.23005 4.98095,4.98095 z"
           transform="translate(-1.0917149,0)" />
        <path
           transform="matrix(0.50204112,0,0,0.50204112,106.58083,336.99069)"
           d="m 221.20873,676.74402 c 0,2.7509 -2.23004,4.98095 -4.98095,4.98095 -2.7509,0 -4.98095,-2.23005 -4.98095,-4.98095 0,-2.7509 2.23005,-4.98095 4.98095,-4.98095 2.75091,0 4.98095,2.23005 4.98095,4.98095 z"
           sodipodi:ry="4.9809489"
           sodipodi:rx="4.9809489"
           sodipodi:cy="676.74402"
           sodipodi:cx="216.22778"
           id="path3864"
           style="fill:#ffffff;stroke:#000000;stroke-width:1.24491799;stroke-linecap:butt;stroke-linejoin:miter;stroke-miterlimit:4;stroke-opacity:1;stroke-dasharray:none;stroke-dashoffset:0"
           sodipodi:type="arc" />
        <path
           style="font-size:medium;font-style:normal;font-variant:normal;font-weight:normal;font-stretch:normal;text-indent:0;text-align:start;text-decoration:none;line-height:normal;letter-spacing:normal;word-spacing:normal;text-transform:none;direction:ltr;block-progression:tb;writing-mode:lr-tb;text-anchor:start;baseline-shift:baseline;color:#000000;fill:#ffffff;stroke:#000000;stroke-width:0.625;stroke-miterlimit:4;stroke-dasharray:none;marker:none;visibility:visible;display:inline;overflow:visible;enable-background:accumulate;font-family:Sans;-inkscape-font-specification:Sans"
           d="m 113.2531,667.32313 c -0.12923,1.65935 0.11626,2.88491 1.21509,3.0748 l 5.03495,0.47134 c 1.1781,0.25362 1.56387,-0.11796 1.79426,-2.03513 0.22665,-1.88612 0.35259,-2.34771 -0.82551,-2.60133 l -4.72503,-1.08548 c -1.54066,-0.34555 -2.14347,0.77456 -2.49376,2.1758 z"
           id="path3882"
           inkscape:connector-curvature="0"
           sodipodi:nodetypes="cccsccc" />
        <path
           style="font-size:medium;font-style:normal;font-variant:normal;font-weight:normal;font-stretch:normal;text-indent:0;text-align:start;text-decoration:none;line-height:normal;letter-spacing:normal;word-spacing:normal;text-transform:none;direction:ltr;block-progression:tb;writing-mode:lr-tb;text-anchor:start;baseline-shift:baseline;color:#000000;fill:#ffffff;stroke:#000000;stroke-width:0.625;stroke-miterlimit:4;stroke-dasharray:none;marker:none;visibility:visible;display:inline;overflow:visible;enable-background:accumulate;font-family:Sans;-inkscape-font-specification:Sans"
           d="m 118.75606,660.98384 c -1.15417,-0.36644 -2.91055,0.1944 -3.27718,1.34851 -0.36663,1.15411 -0.81996,2.55776 0.33412,2.92458 l 4.99992,1.13151 c 1.14694,0.57812 2.82704,0.0825 3.28255,-1.11838 0.4555,-1.20092 -0.0686,-3.14119 -1.31046,-3.46913 -1.38828,-0.53194 -2.82728,-0.34394 -4.02895,-0.81709 z"
           id="path3884"
           inkscape:connector-curvature="0"
           sodipodi:nodetypes="csccscc" />
        <path
           style="font-size:medium;font-style:normal;font-variant:normal;font-weight:normal;font-stretch:normal;text-indent:0;text-align:start;text-decoration:none;line-height:normal;letter-spacing:normal;word-spacing:normal;text-transform:none;direction:ltr;block-progression:tb;writing-mode:lr-tb;text-anchor:start;baseline-shift:baseline;color:#000000;fill:#ffffff;stroke:#000000;stroke-width:0.625;stroke-miterlimit:4;stroke-dasharray:none;marker:none;visibility:visible;display:inline;overflow:visible;enable-background:accumulate;font-family:Sans;-inkscape-font-specification:Sans"
           d="m 121.06589,657.37062 c -0.95149,-0.15091 -1.96254,0.51549 -2.76485,1.40313 -0.64599,0.71469 -0.99087,1.83952 -0.0576,2.07857 l 5.12997,1.17701 c 1.02977,0.39326 2.19111,0.4296 2.49817,-0.62908 0.30706,-1.05868 -0.0626,-3.08107 -1.14293,-3.29983 -2.10019,-0.82449 -2.12982,-0.48667 -3.66273,-0.7298 z"
           id="path3886"
           inkscape:connector-curvature="0"
           sodipodi:nodetypes="ssccscs" />
        <path
           style="font-size:medium;font-style:normal;font-variant:normal;font-weight:normal;font-stretch:normal;text-indent:0;text-align:start;text-decoration:none;line-height:normal;letter-spacing:normal;word-spacing:normal;text-transform:none;direction:ltr;block-progression:tb;writing-mode:lr-tb;text-anchor:start;baseline-shift:baseline;color:#000000;fill:#ffffff;stroke:#000000;stroke-width:0.625;stroke-miterlimit:4;stroke-dasharray:none;marker:none;visibility:visible;display:inline;overflow:visible;enable-background:accumulate;font-family:Sans;-inkscape-font-specification:Sans"
           d="m 114.20374,670.19651 c -1.02275,-0.0411 -0.95747,0.97356 -0.99838,1.99632 -0.0409,1.02275 -0.14064,2.37163 0.88211,2.41238 l 5.63644,0.51911 c 1.01447,0.13908 1.18388,-0.75047 1.32296,-1.76495 0.13909,-1.01447 0.14968,-2.16053 -0.86479,-2.29961 -1.55658,-0.16821 -4.61453,-0.73129 -5.97834,-0.86325 z"
           id="path3888"
           inkscape:connector-curvature="0"
           sodipodi:nodetypes="csccscc" />
        <path
           style="font-size:medium;font-style:normal;font-variant:normal;font-weight:normal;font-stretch:normal;text-indent:0;text-align:start;text-decoration:none;line-height:normal;letter-spacing:normal;word-spacing:normal;text-transform:none;direction:ltr;block-progression:tb;writing-mode:lr-tb;text-anchor:start;baseline-shift:baseline;color:#000000;fill:#ffffff;stroke:#000000;stroke-width:0.625;stroke-miterlimit:4;stroke-dasharray:none;marker:none;visibility:visible;display:inline;overflow:visible;enable-background:accumulate;font-family:Sans;-inkscape-font-specification:Sans"
           d="m 112.94865,676.48156 c -0.0317,0.78465 0.88175,2.16865 1.66376,2.24033 l 4.01259,0.15311 c 0.80999,0.10646 1.64381,-0.53373 1.75018,-1.34373 0.10636,-0.81 0.34625,-2.34262 -0.46377,-2.44889 l -4.56173,-0.39136 c -1.08612,-0.0581 -2.49007,-0.008 -2.40103,1.79054 z"
           id="path3890"
           inkscape:connector-curvature="0"
           sodipodi:nodetypes="cccsccc" />
        <path
           style="font-size:medium;font-style:normal;font-variant:normal;font-weight:normal;font-stretch:normal;text-indent:0;text-align:start;text-decoration:none;line-height:normal;letter-spacing:normal;word-spacing:normal;text-transform:none;direction:ltr;block-progression:tb;writing-mode:lr-tb;text-anchor:start;baseline-shift:baseline;color:#000000;fill:#ffffff;stroke:#000000;stroke-width:0.625;stroke-miterlimit:4;stroke-dasharray:none;marker:none;visibility:visible;display:inline;overflow:visible;enable-background:accumulate;font-family:Sans;-inkscape-font-specification:Sans"
           d="m 123.53511,659.5821 c -0.64707,0.98347 -1.37746,1.92125 0.10838,2.74713 l 2.44419,1.18998 c 0.89631,0.71294 2.99154,0.3064 3.55068,-0.75502 0.55913,-1.06144 -0.33524,-2.88712 -1.32367,-3.42518 l -2.50332,-0.95049 c -1.12678,-0.62252 -1.74205,0.38165 -2.27626,1.19358 z"
           id="path3892"
           inkscape:connector-curvature="0"
           sodipodi:nodetypes="sccsccs" />
        <path
           style="font-size:medium;font-style:normal;font-variant:normal;font-weight:normal;font-stretch:normal;text-indent:0;text-align:start;text-decoration:none;line-height:normal;letter-spacing:normal;word-spacing:normal;text-transform:none;direction:ltr;block-progression:tb;writing-mode:lr-tb;text-anchor:start;baseline-shift:baseline;color:#000000;fill:#ffffff;stroke:#000000;stroke-width:0.625;stroke-miterlimit:4;stroke-dasharray:none;marker:none;visibility:visible;display:inline;overflow:visible;enable-background:accumulate;font-family:Sans;-inkscape-font-specification:Sans"
           d="m 121.2654,663.89053 c -0.11673,1.07276 -0.69623,2.57244 0.21996,2.90456 l 3.45777,1.12345 c 1.04369,0.38465 2.87568,-0.27751 3.21815,-1.44914 0.34248,-1.17162 -0.89402,-2.52225 -1.93805,-2.90648 l -2.57991,-1.41876 c -1.38726,-0.41382 -1.94793,0.67468 -2.37792,1.74637 z"
           id="path3894"
           inkscape:connector-curvature="0"
           sodipodi:nodetypes="cccsccc" />
        <path
           style="fill:#ffffff;stroke:#000000;stroke-width:0.625;stroke-linecap:butt;stroke-linejoin:miter;stroke-miterlimit:4;stroke-opacity:1;stroke-dasharray:none"
           d="m 133.16293,672.36537 c -2.63753,-3.25482 -5.27505,-3.31146 -7.91258,-3.8598"
           id="path3903"
           inkscape:connector-curvature="0"
           sodipodi:nodetypes="cc" />
        <path
           style="font-size:medium;font-style:normal;font-variant:normal;font-weight:normal;font-stretch:normal;text-indent:0;text-align:start;text-decoration:none;line-height:normal;letter-spacing:normal;word-spacing:normal;text-transform:none;direction:ltr;block-progression:tb;writing-mode:lr-tb;text-anchor:start;baseline-shift:baseline;color:#000000;fill:#ffffff;stroke:#000000;stroke-width:0.625;stroke-miterlimit:4;stroke-dasharray:none;marker:none;visibility:visible;display:inline;overflow:visible;enable-background:accumulate;font-family:Sans;-inkscape-font-specification:Sans"
           d="m 120.42694,668.14529 c -0.14451,1.23798 -0.8423,2.85214 0.23665,3.15554 l 3.72145,0.75516 c 1.17688,0.48872 2.74771,0.08 3.09807,-1.27253 0.35038,-1.35254 -0.61057,-2.32744 -1.83741,-2.62329 l -3.41248,-1.18524 c -1.31244,-0.28135 -1.19717,-1.24701 -1.80628,1.17036 z"
           id="path3896"
           inkscape:connector-curvature="0"
           sodipodi:nodetypes="cccsccc" />
        <path
           style="font-size:medium;font-style:normal;font-variant:normal;font-weight:normal;font-stretch:normal;text-indent:0;text-align:start;text-decoration:none;line-height:normal;letter-spacing:normal;word-spacing:normal;text-transform:none;direction:ltr;block-progression:tb;writing-mode:lr-tb;text-anchor:start;baseline-shift:baseline;color:#000000;fill:#ffffff;stroke:#000000;stroke-width:0.625;stroke-miterlimit:4;stroke-dasharray:none;marker:none;visibility:visible;display:inline;overflow:visible;enable-background:accumulate;font-family:Sans;-inkscape-font-specification:Sans"
           d="m 119.84107,673.41076 c -0.17682,0.81721 -0.0717,1.96352 0.66238,2.13141 l 4.08932,0.54064 c 0.84704,0.28275 1.81385,-0.13031 1.98716,-1.10302 0.17331,-0.97271 -0.43721,-2.55386 -1.31604,-2.65856 l -4.41829,-0.99292 c -0.98692,-0.37281 -0.79025,1.09208 -1.00453,2.08245 z"
           id="path3898"
           inkscape:connector-curvature="0"
           sodipodi:nodetypes="sccsccs" />
        <path
           style="font-size:medium;font-style:normal;font-variant:normal;font-weight:normal;font-stretch:normal;text-indent:0;text-align:start;text-decoration:none;line-height:normal;letter-spacing:normal;word-spacing:normal;text-transform:none;direction:ltr;block-progression:tb;writing-mode:lr-tb;text-anchor:start;baseline-shift:baseline;color:#000000;fill:#ffffff;fill-opacity:1;stroke:#000000;stroke-width:0.625;stroke-miterlimit:4;stroke-dasharray:none;marker:none;visibility:visible;display:inline;overflow:visible;enable-background:accumulate;font-family:Sans;-inkscape-font-specification:Sans"
           d="m 119.52212,677.06928 c -0.0551,0.90074 -1.32335,1.90198 1.58258,2.16827 l 2.77177,0.52439 c 0.82358,0.15583 1.41071,-0.75958 1.54934,-1.68411 0.13863,-0.92451 -0.43667,-2.2311 -1.26032,-2.38648 l -3.15644,-0.63234 c -1.1081,-0.0735 -1.21375,0.52716 -1.48693,2.01027 z"
           id="path3901"
           inkscape:connector-curvature="0"
           sodipodi:nodetypes="cccsccc" />
      </g>
    </g>
  </g>
</svg>
