<?xml version="1.0" encoding="UTF-8" standalone="no"?>
<!-- Created with Inkscape (http://www.inkscape.org/) -->

<svg
   xmlns:dc="http://purl.org/dc/elements/1.1/"
   xmlns:cc="http://creativecommons.org/ns#"
   xmlns:rdf="http://www.w3.org/1999/02/22-rdf-syntax-ns#"
   xmlns:svg="http://www.w3.org/2000/svg"
   xmlns="http://www.w3.org/2000/svg"
   xmlns:sodipodi="http://sodipodi.sourceforge.net/DTD/sodipodi-0.dtd"
   xmlns:inkscape="http://www.inkscape.org/namespaces/inkscape"
   width="1200"
   height="600"
   id="svg3008"
   version="1.1"
   inkscape:version="0.48.2 r9819"
   sodipodi:docname="New document 3">
  <defs
     id="defs3010" />
  <sodipodi:namedview
     id="base"
     pagecolor="#ffffff"
     bordercolor="#666666"
     borderopacity="1.0"
     inkscape:pageopacity="0.0"
     inkscape:pageshadow="2"
     inkscape:zoom="0.0875"
     inkscape:cx="4949.3617"
     inkscape:cy="250.3554"
     inkscape:document-units="px"
     inkscape:current-layer="layer1"
     showgrid="false"
     fit-margin-top="0"
     fit-margin-left="0"
     fit-margin-right="0"
     fit-margin-bottom="0"
     inkscape:window-width="1280"
     inkscape:window-height="748"
     inkscape:window-x="-8"
     inkscape:window-y="-8"
     inkscape:window-maximized="1" />
  <metadata
     id="metadata3013">
    <rdf:RDF>
      <cc:Work
         rdf:about="">
        <dc:format>image/svg+xml</dc:format>
        <dc:type
           rdf:resource="http://purl.org/dc/dcmitype/StillImage" />
        <dc:title></dc:title>
      </cc:Work>
    </rdf:RDF>
  </metadata>
  <g
     inkscape:label="Layer 1"
     inkscape:groupmode="layer"
     id="layer1"
     transform="translate(2107.0739,-1173.3991)">
    <g
       transform="matrix(0.30216667,0,0,-0.30216667,-2107.0739,1773.3991)"
       inkscape:label="Untitled-2"
       id="g3024">
      <path
         id="path3026"
         style="fill:#59b5e8;fill-opacity:1;fill-rule:evenodd;stroke:none"
         d="m 0,1985.6591 3971.3182,0 0,-992.8296 -3971.3182,0 0,992.8296 z"
         inkscape:connector-curvature="0" />
      <path
         id="path3028"
         style="fill:#009938;fill-opacity:1;fill-rule:evenodd;stroke:none"
         d="m 0,992.8295 3971.3182,0 L 3971.3182,0 0,0 0,992.8295 z"
         inkscape:connector-curvature="0" />
      <path
         id="path3030"
         style="fill:#000000;fill-opacity:1;fill-rule:nonzero;stroke:none"
         d="m 1412.3945,1655.814 0,-1075.5496 c 0,-76.9039 63.978,-140.8748 140.8536,-140.9031 l 324.248,0 c 20.2748,0 40.7268,-10.8496 57.926,-26.2488 17.1779,-15.3992 31.1031,-35.3481 38.3031,-53.5748 2.2748,-5.8748 4.3725,-12.1536 4.3725,-18.5244 0,-11.8489 15.1015,-12.0756 15.1228,0 0,6.3708 2.0764,12.6496 4.3512,18.5244 7.2,18.2267 21.1252,38.1756 38.3031,53.5748 17.1992,15.3992 37.6441,26.2488 57.9189,26.2488 l 324.2552,0 c 76.8968,0.0283 140.8748,63.9992 140.8748,140.9031 l 0,1075.5496 -1146.5292,0 z"
         inkscape:connector-curvature="0" />
      <path
         id="path3032"
         style="fill:#00adf0;fill-opacity:1;fill-rule:evenodd;stroke:none"
         d="m 2543.8575,1640.8471 -1116.4252,0 0,-1060.5756 0,-0.0496 c 0,-34.6039 14.2016,-66.0543 36.9992,-88.8519 22.826,-22.826 54.3048,-36.9993 88.8803,-36.9993 l 0.021,0 324.248,0 c 39.1819,0 80.6315,-36.8291 101.4024,-71.9291 2.5512,-4.2945 4.826,-8.6244 6.7252,-12.848 11.2252,24.5267 33.7748,51.9236 59.648,68.5771 7.3063,4.7268 14.9032,8.6244 22.6063,11.4024 7.8945,2.8488 15.8953,4.5213 23.8748,4.7693 0.574,0 1.1977,0.0283 1.8992,0.0283 l 324.2197,0 0.05,0 c 34.5544,0 66.0048,14.2016 88.8307,37.0205 l 0.021,0 c 22.826,22.8047 36.9992,54.2764 36.9992,88.852 l 0,0.0283 0,1060.5756 z m -948.848,-202.826 c 0,0 2.5228,2.374 6.0023,3.9473 3.5008,1.6016 7.3489,3.1748 9.7512,3.274 2.374,0.05 5.1733,0.1276 6.8244,-0.1701 1.6725,-0.2764 3.1252,-0.2764 4.4504,0.1701 1.2969,0.4252 8.8441,2.7 11.4449,3.274 2.6008,0.5811 12.1252,3.7772 14.4992,4.2024 2.4024,0.4535 9.9284,2.6291 14.6551,2.9763 4.7481,0.3756 11.3741,1.3252 13.3229,1.2473 1.9488,-0.071 2.0267,-0.3473 4.0464,-0.4252 2.0551,-0.099 2.9764,-0.3756 4.3512,0.6307 1.4032,1.0205 3.1039,3.8197 7.1008,6.3496 4.0252,2.5228 15.2008,9.248 19.0984,11.9197 3.8551,2.6787 11.5512,8.9504 12.5788,10.7291 1.0488,1.8 1.9488,3.1252 1.9488,4.4717 0,1.3535 -1.7504,6.4275 -1.7008,7.6039 0.078,1.1481 0.3543,2.8488 1.4528,3.3945 1.1267,0.5528 2.4732,1.3536 3.2456,1.4032 0.7795,0.05 1.9276,-0.05 2.4024,-0.9496 0.5031,-0.9 1.226,-2.4733 2.0764,-2.8489 0.8504,-0.3756 4.6984,-1.7291 6.874,-1.4031 2.1756,0.3543 5.074,1.5023 7.4976,1.552 2.374,0.05 3.8268,0.2976 6.0803,-0.3756 2.2252,-0.652 2.7992,-1.1764 4.6985,-0.7725 1.8708,0.3969 16.1716,3.7205 18.9212,4.6205 2.7284,0.9 18.7299,7.774 21.352,8.8795 2.622,1.1197 25.3984,12.4725 31.8756,15.0945 6.4984,2.6291 41.2015,15.6543 47.6008,17.6032 6.4488,1.9488 32.322,9.2763 41.9244,11.0976 9.6023,1.8496 34.2496,5.4283 43.6748,6.2504 9.4464,0.8504 41.4496,3.4795 52.8023,2.9764 11.3244,-0.4961 43.7457,-3.2528 54.5244,-4.0252 10.7717,-0.7725 37.4245,-4.9252 49.1741,-7.8733 11.7212,-2.948 40.096,-10.7787 48.8267,-13.4504 8.6953,-2.7 43.3985,-13.748 48.2457,-15.548 4.8756,-1.7787 26.7732,-7.7527 37.7291,-9.652 10.9489,-1.8992 29.0481,-5.2511 35.4473,-6.222 6.4488,-0.9283 16.1008,-1.878 23.2512,-1.7787 7.1716,0.099 7.2496,-0.2268 9.4464,0.6732 2.1756,0.9 8.6528,3.1748 12.3307,4.7055 3.6992,1.4953 8.2488,3.5717 10.0985,5.2228 1.8496,1.6229 6.2503,9.2977 7.9724,12.6 1.7504,3.2457 2.8772,6.952 4.3016,7.852 1.4527,0.9213 0.5244,1.3465 3.274,1.7433 2.7779,0.4252 5.8535,1.226 7.9724,0.5315 2.1756,-0.7299 6.378,-3.3024 7.278,-4.9252 0.9283,-1.6512 2.4732,-6.5551 2.4732,-8.6031 0,-2.0481 -0.326,-7.9725 -1.8496,-11.0481 -1.5236,-3.0756 -4.7268,-10.4527 -7.5756,-13.6275 -2.8488,-3.1748 -3.8764,-5.2016 -7.8732,-7.5756 -3.9969,-2.3244 -25.4764,-9.5953 -31.826,-10.8496 -6.3496,-1.1977 -25.3984,-3.9969 -36.1205,-3.8764 -10.7504,0.099 -30.5008,2.7779 -38.4023,4.1031 -7.8733,1.3252 -27.8292,6.2221 -36.8292,8.4756 -9.0212,2.2748 -34.0937,8.9221 -44.4472,11.9764 -10.3252,3.0756 -46.6512,10.5449 -52.9016,11.7709 -6.2504,1.226 -41.7472,8.1 -52.2992,8.8016 -10.552,0.7228 -30.1961,1.8496 -38.5016,1.8496 -8.2701,0 -33.3496,-1.552 -43.7953,-3.0756 -10.4244,-1.5237 -21.5787,-2.8488 -36.6236,-6.3496 -15.0519,-3.4725 -32.2299,-9.6024 -38.3811,-12.1748 -6.1228,-2.5512 -20.7708,-11.1473 -26.2984,-14.4213 -5.5205,-3.3024 -8.1,-5.0315 -8.2984,-5.6268 -0.1985,-0.6023 -1.3252,-1.5236 0.496,-1.9488 1.8567,-0.4039 7.4764,0 10.9772,0.4252 3.4795,0.3969 16.1504,1.8213 21.5787,2.2252 5.4213,0.4252 17.1993,0.1984 24.8741,0.1984 7.6748,0 29.2748,-1.226 35.4968,-1.7008 6.2504,-0.5527 37.3748,-5.1519 46.6795,-6.9732 9.3189,-1.8496 33.0733,-9.3047 40.4504,-12.0756 7.3701,-2.7779 32.0244,-13.2023 40.6205,-17.8299 8.6031,-4.5992 35.4047,-19.5449 40.0252,-22.0961 4.5992,-2.5795 29.4732,-17.7023 37.2543,-22.5283 7.774,-4.7976 38.1685,-23.4213 47.7,-29.5724 9.4961,-6.1512 27.7229,-16.9725 38.374,-21.0756 10.6512,-4.1032 18.8221,-7.4764 29.0481,-10.552 10.2472,-3.0756 31.1244,-7.6748 38.1756,-7.7953 7.0724,-0.078 20.4732,-0.1771 27.8504,2.374 7.3771,2.5512 16.1716,8.8016 18.8504,10.8496 2.6503,2.0481 6.0236,7.4764 9.0992,10.0205 3.0472,2.5795 5.2228,4.1032 6.2504,4.2024 0.9992,0.099 3.6708,0.6236 6.3212,-0.099 2.6504,-0.7229 5.1307,-1.3252 5.9528,-2.452 0.822,-1.1197 1.9275,-4.7197 1.8496,-6.7465 -0.1276,-2.048 -1.9772,-9.5244 -3.8977,-13.0039 -1.9488,-3.4724 -8.1779,-12.7205 -15.0519,-17.1 -6.8528,-4.4008 -17.8016,-11.1472 -30.5008,-14.2228 -12.6992,-3.0756 -21.3732,-4.826 -31.3228,-4.7268 -9.9284,0.1276 -27,1.2543 -36.8504,3.3024 -9.8292,2.0267 -34.6748,9.7015 -45.326,13.5 -10.6512,3.7984 -38.0764,15.548 -45.1276,19.0275 -7.0724,3.4725 -31.4504,17.6244 -36.5457,20.5725 -5.1023,2.9763 -26.1,15.3779 -34.5047,20.2464 -8.3976,4.9252 -38.0693,21.1039 -42.1441,23.0528 -4.1031,1.9488 -10.6512,4.2023 -22.4291,9 -11.7709,4.826 -26.0008,10.0275 -36.9496,12.2031 -10.9488,2.1473 -45.0213,7.2496 -53.1992,7.774 -8.1992,0.4961 -29.4024,-0.4252 -34.8236,-1.3252 -5.4284,-0.9283 -20.6504,-5.3291 -24.5552,-7.0795 -3.8976,-1.722 -10.2472,-5.6197 -11.1472,-6.9449 -0.9213,-1.3252 -2.3528,-4.2023 -1.9488,-5.8535 0.3968,-1.6512 1.226,-4.5992 4.996,-5.6268 3.8055,-1.0205 15.2504,-2.4449 20.778,-3.6992 5.5275,-1.1976 21.2031,-5.9244 26.426,-8.4756 5.2015,-2.5724 17.596,-10.2472 19.5236,-12.0685 1.9488,-1.8567 6.7748,-6.1512 7.4764,-7.5047 0.7228,-1.2969 1.7504,-4.8756 1.4527,-6.1229 -0.3047,-1.2259 -1.4527,-3.2527 -4.6275,-3.9755 -3.1536,-0.7229 -11.126,-0.099 -13.3016,-0.5245 -2.1473,-0.4039 -9.2976,-1.7291 -14.0244,-3.4724 -4.6984,-1.7504 -17.9008,-7.3772 -23.6268,-9 -5.726,-1.6299 -18.326,-4.7055 -21.7984,-5.726 -3.4725,-1.0488 -8.2984,-2.0764 -8.2984,-2.0764 0,0 1.2259,-10.6228 1.1267,-14.5275 -0.1063,-3.8764 0.2481,-16.2496 -0.7795,-22.9961 -1.0205,-6.7748 -1.6724,-13.4504 -2.7709,-21.4512 -0.8291,-6.0236 -1.9559,-17.8015 -1.6511,-21.3023 0.2976,-3.4725 -0.2764,-14.3221 -0.8292,-23.4709 -0.5953,-9.652 -1.474,-15.0307 -2.2748,-24.6756 -0.1984,-2.5299 -0.5244,-3.926 -0.496,-6.4488 0.071,-4.826 1.1267,-7.5047 2.5015,-12.1819 0.9992,-3.3732 1.6937,-5.2441 3.1252,-8.4968 3.8197,-8.7237 7.7244,-12.7772 13.4504,-20.4024 5.4992,-7.3205 8.2701,-11.9197 15.1937,-17.9504 3.6,-3.1252 5.5063,-5.2937 9.8292,-7.2992 2.3952,-1.0984 3.8763,-1.3748 6.3496,-2.0976 10.1763,-2.9268 16.2708,-3.0969 26.8228,-3.6 14.1024,-0.652 28.9276,2.1968 36.0992,2.5015 7.1504,0.2977 27.574,1.474 34.6252,1.5449 7.0512,0.1276 26.9787,-0.4181 44.2276,-1.0984 8.1708,-0.3473 12.7771,-0.9496 20.9763,-0.9992 6.8953,-0.021 10.8213,-0.2268 17.6741,0.5527 6.3212,0.7016 9.8007,1.8496 16.0511,3.0473 7.3701,1.4031 11.4237,2.7779 18.8717,3.6283 6.2008,0.7229 9.7228,0.7725 15.9732,0.8221 15.9024,0.1275 24.8244,-1.8 40.5284,-4.3016 19.7008,-3.1465 30.8267,-5.4213 49.8968,-11.3457 16.3276,-5.074 35.5748,-13.2236 40.9536,-15.8031 5.3716,-2.5725 10.1763,-4.7764 16.8519,-7.4481 6.1441,-2.4732 9.574,-4.2023 16.0229,-5.8039 6.7252,-1.6937 10.6724,-2.374 17.596,-2.4945 8.6032,-0.1275 13.6772,0.2977 21.8055,3.0473 6.0237,2.0267 9.6733,3.2244 14.5701,7.2496 8.3764,6.8527 10.4811,13.9252 13.2024,24.3992 1.9488,7.4268 2.1756,16.2 1.7008,19.5732 -0.4536,3.3803 -2.126,13.3795 -6.5977,20.452 -4.0748,6.4488 -7.4551,9.6519 -13.9039,13.748 -3.6,2.2536 -5.7472,3.5008 -9.8008,4.6559 -5.1732,1.4457 -11.2252,1.5236 -13.6701,0.8221 -2.4803,-0.7016 -3.7559,-1.0489 -5.0315,-1.7504 -1.2968,-0.7016 -2.1472,-1.6229 -3.6212,-2.452 -1.0772,-0.5953 -0.7512,-1.2756 -2.8772,-1.3961 -2.0976,-0.1275 -7.0016,2.2252 -7.8236,4.3016 -0.8008,2.1189 0,5.1732 1.1764,8.1992 2.1472,5.5984 8.5748,9.3473 11.0267,10.7504 2.4237,1.3748 6.6969,3.5008 11.2252,5.1236 4.9961,1.8 7.4693,2.6717 13.1953,3.3733 5.726,0.7015 10.6512,0.1984 17.2276,-1.2756 9.1275,-2.0764 13.9464,-4.8969 21.7984,-9.9992 7.1291,-4.6489 10.8496,-7.9229 16.5756,-14.2229 4.7268,-5.2299 6.874,-8.6244 10.6228,-14.5771 3.8268,-6.0733 6.1512,-9.4748 8.7307,-16.1504 3.5433,-9.326 4.4717,-15.1229 4.7693,-25.1008 0.3756,-11.948 -0.9212,-18.9709 -4.7693,-30.274 -3.1535,-9.2268 -5.9811,-14.152 -11.2748,-22.3512 -5.1023,-7.8236 -8.1,-12.4016 -15.0803,-18.6236 -5.3008,-4.7481 -8.9716,-6.5977 -14.9953,-10.3961 -3.9756,-2.5512 -6.1511,-4.1315 -10.4031,-6.2008 -5.3008,-2.6008 -8.4756,-3.7275 -14.1732,-5.2016 -7.1292,-1.8496 -11.3741,-2.7283 -18.7016,-2.4236 -4.7481,0.1488 -9.7229,1.3961 -12.0473,1.7504 -2.3244,0.3189 -5.2015,0.9213 -5.2015,0.9213 0,0 0.248,-11.8772 -0.099,-22.9748 -0.3755,-11.0977 -1.6511,-38.8985 -2.2535,-41.2229 -0.5953,-2.3244 -1.8709,-9.4252 -0.8008,-13.9748 1.0559,-4.5496 5.3292,-26.7519 6.0307,-32.3504 0.6945,-5.6267 4.5496,-24.8527 4.6488,-28.5732 0.1205,-3.7559 0.9497,-13.5496 1.0489,-14.8535 0.1275,-1.2756 1.5519,-4.3016 3.3023,-6.3 1.7221,-1.9985 8.6244,-10.9276 14.2441,-18.3969 5.6055,-7.4764 16.3559,-18.3543 20.778,-21.3803 4.4504,-3.0189 16.2992,-8.2984 20.2748,-10.7504 3.9756,-2.4449 11.7,-6.7748 13.3228,-8.7732 1.6299,-1.9772 6.3,-8.1 7.1291,-10.3252 0.8221,-2.2252 1.9985,-5.2725 2.0977,-7.9512 0.1275,-2.7 -0.6024,-8.8724 -1.148,-13.8969 -0.6024,-5.0244 -1.6512,-23.322 -1.5237,-31.5992 0.099,-8.2984 0.574,-27.248 1.1693,-33.9023 0.5528,-6.6473 1.6299,-18.3969 3.1536,-23.6764 1.5023,-5.2441 2.0976,-5.6976 6.2008,-9.4465 4.0748,-3.7275 8.6952,-6.6543 11.374,-9.4535 2.7,-2.7992 10.9984,-12.3945 12.6212,-15.7748 1.6299,-3.3945 3.2811,-11.5228 3.026,-16.4197 -0.2197,-4.9039 -0.574,-9.2268 -2.7709,-12.6 -2.2535,-3.4299 -3.0755,-5.152 -6.8031,-7.7315 -3.7205,-2.5724 -5.2016,-3.848 -11.4024,-4.6701 -6.1724,-0.8008 -6.9945,-0.3543 -9.6732,0 -2.7,0.3473 -2.8205,1.1764 -5.0244,-0.4748 -2.2252,-1.6299 -5.0244,-4.3299 -5.8748,-7.9299 -0.8008,-3.6213 -1.0276,-10.8213 -1.6228,-16.0724 -0.5741,-5.2725 -1.1764,-4.7977 -1.1764,-6.2008 0,-1.3961 1.4244,-5.2512 0.822,-7.1221 -0.574,-1.8496 -3.0189,-6.6756 -6.548,-8.4047 -3.4724,-1.7433 -8.8512,-5.0244 -10.148,-6.4205 -1.304,-1.4244 -2.0977,-2.8275 -6.2008,-4.6984 -4.0748,-1.8496 -17.2276,-3.6 -29.0268,-5.6055 -11.7992,-1.9701 -20.374,-4.2945 -26.3976,-3.5008 -6.0237,0.8291 -9.5528,1.7504 -10.7008,3.7559 -1.1764,1.9701 -2.0977,4.6701 -1.9772,5.6977 0.099,1.0488 0.099,2.2252 0.099,2.2252 0,0 -3.1464,2.1259 -5.3716,1.8779 -2.2252,-0.2268 -5.726,-1.2756 -8.2772,-1.2756 -2.6008,0 -6.7748,1.0488 -7.2496,3.0189 -0.4748,2.0055 3.1535,7.4764 6.0732,9.1276 2.9055,1.6512 20.5016,13.8543 27.0567,19.2756 6.5197,5.4496 23.3433,19.7007 26.0433,23.4283 2.6788,3.7488 12.1536,20.3244 12.8551,24.1937 0.7016,3.8268 1.7504,23.1803 1.5237,30.1748 -0.2268,7.0299 -3.1536,39.2315 -3.8481,45.3047 -0.7299,6.052 -3.0259,19.8496 -4.9039,25.1008 -1.8709,5.2725 -6.1016,14.1945 -13.2236,17.8229 -7.1221,3.6283 -12.7984,6.2007 -16.8236,5.7472 -4.0252,-0.4961 -11.8489,-1.6441 -19.4528,-3.3945 -7.5968,-1.7787 -17.1709,-3.7559 -18.1205,-3.5291 -0.9283,0.248 -5.4779,5.8535 -9.8008,11.7 -4.3299,5.8252 -13.2803,17.0504 -16.6535,22.3016 -3.3732,5.2724 -2.4732,7.5968 -7.8236,9.3755 -5.3717,1.7221 -9.3473,4.5213 -18.6024,4.8756 -9.2197,0.3473 -14.5205,0.2977 -22.3512,1.8213 -7.8236,1.5307 -10.1693,2.3528 -12.9685,3.9756 -2.8063,1.6512 -3.6283,1.8779 -3.6283,1.8779 0,0 -0.7016,-0.7015 -0.8008,-3.4015 -0.1205,-2.6717 0.1984,-5.8961 2.9268,-10.6725 2.6504,-4.8047 8.6244,-8.3055 13.3015,-13.4504 4.6701,-5.1519 17.9504,-15.1795 20.5229,-20.4519 2.5512,-5.2512 4.3016,-12.5717 2.9976,-16.1717 -1.2756,-3.6283 -10.9984,-15.9024 -15.3992,-19.9772 -4.3724,-4.0748 -23.3008,-23.9031 -27.3968,-29.048 -4.1032,-5.1307 -19.63,-25.6748 -23.1237,-30.2527 -3.5008,-4.5497 -12.1039,-15.0024 -14.3291,-19.0489 -2.2252,-4.0252 -2.7,-5.2015 -2.7,-6.4984 0,-1.2756 4.1031,-11.9055 3.6283,-16.2283 -0.4535,-4.3229 -0.2267,-7.8237 -4.0748,-13.2024 -3.8763,-5.3717 -11.5795,-12.9756 -16.0015,-14.5984 -4.4504,-1.6512 -7.8237,-1.9772 -11.9268,-1.1764 -4.0961,0.8291 -7.526,1.7504 -9.574,2.1047 -2.0481,0.3473 -3.2244,0.9496 -3.2244,0.9496 0,0 -1.7504,-11.0551 -3.8481,-18.0779 -2.1047,-7.0016 -2.7,-10.9772 -5.3787,-13.6488 -2.6717,-2.7 -7.7244,-5.4 -9,-6.0733 -1.2756,-0.7299 -8.752,-5.8535 -14.9457,-7.7244 -6.2008,-1.8496 -26.9291,-3.5008 -35.9291,-3.026 -9.0213,0.4465 -14.2724,1.3961 -16.8236,2.6717 -2.5725,1.2756 -5.478,4.4504 -5.478,4.4504 0,0 -12.5716,1.2756 -15.7464,2.5512 -3.1536,1.3039 -5.5985,2.5724 -6.052,3.522 -0.4748,0.9284 -1.2969,2.6788 0.4535,4.6772 1.7504,1.9771 33.0237,25.0512 38.1473,28.6795 5.1519,3.6213 15.3,12.7488 16.3488,14.2724 1.0488,1.5024 1.878,6.1725 4.4504,9.4465 2.5724,3.2811 9.7512,9.5811 14.4283,13.4291 4.6701,3.8481 6.8953,6.3 9.5953,7.2496 2.6788,0.9213 1.6299,0 4.3016,1.7504 2.7,1.7504 18.652,21.5717 24.7748,30.8977 6.1512,9.3543 20.048,32.8039 23.5488,38.6291 3.5291,5.8252 11.3244,18.7937 12.026,21.7205 0.7016,2.9268 0.9283,5.4992 0.8291,6.4275 -0.1275,0.9496 -5.5063,9.0709 -10.7504,12.7985 -5.2795,3.7488 -19.1267,13.2023 -23.3008,14.1519 -4.2236,0.9213 -11.6787,0.3473 -21.5291,1.3961 -9.8008,1.0559 -20.3244,2.3244 -21.1252,2.452 -0.822,0.0992 -1.0488,0.574 -1.0488,0.574 0,0 -13.5,37.0984 -14.7756,41.2016 -1.2968,4.0748 -6.8953,18.574 -8.0716,20.4236 -1.1764,1.8779 -2.9268,5.2512 -4.8048,5.8535 -1.8708,0.574 -2.5724,1.2756 -5.9456,-0.0992 -3.3733,-1.4315 -9.7016,-4.8047 -12.9756,-4.8047 -3.274,0 -6.0733,0.8291 -8.6528,1.2756 -2.5512,0.4748 -8.348,-0.6024 -12.5504,-2.5725 -4.1953,-1.9771 -7.696,-4.0748 -14.2724,-3.6 -6.5268,0.4465 -14.1024,3.2457 -18.5528,2.5512 -4.4504,-0.6803 -6.5976,-1.8779 -10.4953,-2.6787 -3.9259,-0.8221 -3.7275,-2.0977 -9.0779,-1.6512 -5.3717,0.4748 -20.452,3.274 -23.8252,2.9268 -3.4016,-0.3473 -3.0472,-0.1276 -8.5465,-0.9213 -5.4779,-0.8291 -12.3307,-0.4748 -18.0496,0.9213 -5.7259,1.4031 -7.8307,2.7 -11.3244,2.3527 -3.5291,-0.3543 -3.9756,-1.0771 -8.1779,-1.3039 -4.2024,-0.2268 -5.8536,-0.9213 -10.6512,0.7016 -4.7764,1.6511 -8.8512,3.1748 -11.7709,3.274 -2.9267,0.0992 -1.4811,-0.3473 -5.6267,-0.6024 -4.1528,-0.2197 -5.3008,-0.2197 -9.7512,0.8291 -4.4221,1.0772 -6.4276,2.4733 -6.4276,2.4733 0,0 -0.9496,-1.6725 -0.4748,-3.2457 0.4536,-1.552 2.5512,-9.1276 2.7284,-10.6795 0.1984,-1.552 1.4456,-10.4953 1.6511,-12.9756 0.1701,-2.4449 0.8221,-9.8221 0.9993,-11.126 0.1984,-1.2756 -0.3544,-4.3724 1.6511,-7.0228 1.9985,-2.6504 6.1725,-9.9709 10.6441,-15.7961 4.4788,-5.8252 8.4048,-10.6795 8.7803,-11.9764 0.3473,-1.2543 1.9985,-11.2748 2.5512,-17.3267 0.5457,-6.0237 1.6441,-14.6977 1.2969,-16.3489 -0.3756,-1.6228 -0.3756,-1.8 -0.9284,-3.274 -0.5456,-1.474 -0.5456,-2.3031 0.2764,-4.4787 0.8291,-2.1756 8.5748,-19.1481 11.0268,-24.7465 2.4732,-5.6551 7.1504,-17.2488 8.6031,-20.5299 1.474,-3.2953 2.1969,-5.322 3.1961,-6.4984 0.9992,-1.1764 4.4787,-3.8268 6.3992,-4.826 1.9276,-1.0205 7.3772,-4.4008 10.474,-7.5969 3.104,-3.1748 6.5055,-4.2732 7.774,-6.2007 1.2756,-1.9276 2.8276,-4.6489 2.8276,-5.4 0,-0.7229 2.2039,-1.7008 3.1039,-2.8985 0.9213,-1.1763 3.2457,-2.2748 2.2252,-5.5488 -1.0063,-3.2811 -3.4795,-6.1299 -3.4795,-6.1299 0,0 1.6512,-5.726 0.8291,-8.1992 -0.8291,-2.4733 -2.0551,-4.0961 -4.5,-6.3213 -2.4803,-2.2748 -5.3291,-6.3779 -7.5756,-7.4055 -2.2535,-0.9992 -4.3015,-2.0197 -4.3015,-2.0197 0,0 0.1984,-4.9252 1.8212,-8.8299 1.6512,-3.8693 5.1307,-16.1717 4.5284,-22.0961 -0.6236,-5.9244 -2.6788,-14.7259 -5.726,-17.4047 -3.0756,-2.6433 -8.8016,-7.3701 -13.1244,-9.5953 -4.3016,-2.2748 -34.3772,-9.2267 -41.7473,-10.4527 -7.3559,-1.226 -12.6992,-2.2465 -16.1787,-2.0481 -3.4724,0.1985 -9.8221,1.0276 -12.0756,1.8213 -2.2465,0.8291 -2.2465,3.5008 -3.6709,4.5 -1.4527,1.0559 -1.0275,1.6512 -2.8771,1.6512 -1.8496,0 -8.3764,1.6512 -11.6788,2.2535 -3.274,0.6237 -7.5685,3.4725 -7.5685,4.9252 0,1.4244 5.1449,5.4992 7.1717,6.7465 2.048,1.226 28.0488,18.6236 31.1244,21.1039 3.0543,2.4236 13.3016,11.4449 14.1236,13.5 0.8008,2.0197 -0.6236,5.726 -0.822,8.3764 -0.2268,2.6717 1.6228,8.8228 2.8771,11.8984 1.2189,3.0756 1.8213,5.3008 1.8213,5.3008 0,0 -23.9457,51.9945 -27.6236,58.748 -3.678,6.7465 -12.5008,24.1512 -15.3496,26.8016 -2.8772,2.6717 -6.5481,7.2 -9.6237,8.6244 -3.0755,1.4244 -30.1039,11.2465 -31.1031,11.2465 -1.0488,0 -3.3024,1.0275 -3.3024,1.0275 0,0 3.5008,47.7 3.9048,51.5977 0.3968,3.8551 -3.678,14.1023 -8.8016,23.5275 -5.1236,9.4252 -20.8772,35.3977 -23.7473,39.5008 -2.8559,4.0961 -4.5,7.5756 -4.5,7.5756 0,0 -9.2267,-4.7055 -11.4519,-9.4252 -2.2748,-4.7055 -13.5284,-30.6992 -16.1788,-36.6236 -2.6716,-5.9315 -5.322,-12.0756 -5.322,-13.5283 0,-1.4245 0.3968,-17.6032 0.1984,-23.1024 -0.1984,-5.5488 -1.0205,-9.6449 -1.0205,-9.6449 0,0 -11.6504,-13.1031 -15.1511,-19.4527 -3.4796,-6.3284 -10.8497,-24.3497 -12.2741,-30.6993 -1.4527,-6.3496 -4.5,-31.5 -5.3504,-38.048 -0.8007,-6.5551 -0.9992,-14.152 0,-18.2268 1.0489,-4.1031 1.6725,-5.7259 4.3229,-8.3976 2.6716,-2.6787 7.5472,-9.2055 7.1504,-13.3016 -0.404,-4.1031 -2.6504,-16.1787 -3.8764,-18.8291 -1.2473,-2.6717 -4.3016,-8.0008 -9,-11.2748 -4.7268,-3.274 -8.8228,-3.6709 -13.5213,-5.726 -4.7055,-2.048 -5.1307,-1.2472 -5.726,-2.8701 -0.6023,-1.6299 -2.4519,-7.1504 -4.6984,-11.0551 -2.2819,-3.8976 -8.0008,-12.274 -11.8771,-15.1441 -3.9048,-2.8559 -11.8772,-8.1992 -22.7268,-9.6023 -10.8496,-1.4245 -26.3977,-3.5008 -35.426,-3.8977 -9,-0.4252 -15.7465,0.3969 -19.8496,0.6236 -4.0961,0.1985 -5.9244,0.9992 -5.726,2.452 0.2055,1.4244 1.8284,2.048 2.0268,3.274 0.2268,1.226 -0.8008,1.8213 -0.8008,1.8213 0,0 -17.8016,4.7268 -20.2748,6.548 -2.452,1.8567 -4.6984,2.8772 -2.6504,5.726 2.048,2.8772 13.1031,9.652 25.1787,16.4055 12.0756,6.7465 31.9252,20.8701 40.1244,31.7197 8.1709,10.8496 14.9245,22.5 16.7741,29.4803 1.8496,6.9449 9.6236,45.6449 11.4732,56.8984 1.8496,11.2465 4.3016,23.1237 4.0748,27.2268 -0.1984,4.0961 -6.1228,16.5969 -5.9244,19.6441 0.1984,3.0756 -0.1984,5.9528 -0.1984,5.9528 0,0 -13.6985,32.7259 -14.1237,34.1716 -0.4252,1.4315 -0.4252,2.452 -0.4252,2.452 0,0 15.5693,15.3496 17.2205,17.4047 1.6299,2.048 2.0268,2.6433 2.0268,2.6433 0,0 5.1236,14.5559 11.2535,21.5008 6.1441,6.952 12.0969,12.6992 12.0969,12.6992 0,0 6.3496,41.9528 6.3496,43.8024 0,1.8496 -2.6717,19.6512 -3.5008,20.4732 -0.8008,0.8291 -1.6228,1.226 -1.6228,1.226 0,0 -16.8024,7.3771 -20.4733,16.5756 -3.6779,9.1984 -4.7267,19.4527 -7.9795,22.5283 -3.274,3.0756 -18.2976,8.6953 -25.5968,18.6236 -6.2008,8.426 -9.1489,14.5276 -9.8292,24.9733 -0.7937,11.9763 4.1032,19.6512 8.8299,29.4732 3.6213,7.6039 9.3969,13.7268 7.9512,20.0764 -1.4031,6.3283 -7.8307,25.8732 -9.2055,42.9732 -1.226,15.2787 -2.7496,24.5268 1.4244,39.3024 2.452,8.5535 7.1788,17.3976 9.2268,20.8771 2.0268,3.5008 3.8764,5.3221 3.8764,5.3221 0,0 -5.1024,10.0275 -3.8764,15.9732 1.226,5.9315 9.1984,24.3567 17.3976,33.7748 8.2063,9.4039 19.8567,21.2811 21.9048,23.7543 2.048,2.452 2.8771,6.5268 2.8771,8.5961 0,2.0268 -0.8291,15.952 5.0953,25.3772 5.9528,9.4039 21.5008,24.7535 28.8496,31.5283 7.3772,6.7465 22.5284,20.048 24.5764,21.8977 2.048,1.8496 4.1031,5.9244 4.1031,5.9244 0,0 -9.2055,2.4519 -13.1031,2.4519 -3.8977,0 -13.9252,0.8221 -13.9252,0.8221 0,0 -3.0473,-6.3496 -5.9244,-12.0756 -2.8488,-5.726 -7.774,-12.6992 -14.1236,-17.0008 -6.3497,-4.2732 -25.2,-9.3968 -32.5489,-12.8976 -7.3771,-3.4725 -16.1787,-6.952 -21.5008,-14.726 -5.3291,-7.774 -9.1984,-11.4732 -9.8291,-16.3701 -0.5953,-4.9252 -0.5953,-6.3567 -0.5953,-6.3567 l -1.4527,-1.4244 c 0,0 -6.1229,5.9244 -6.5268,14.9528 -0.4252,9 0.4039,21.6779 4.4788,30.0755 4.096,8.3977 12.5007,15.7465 15.3496,21.6993 2.8771,5.9244 4.5212,13.1031 3.0968,15.3779 -1.4457,2.2252 -12.2953,9.9992 -13.9252,13.2732 -1.6512,3.2741 -4.0961,5.3221 -4.0961,5.3221 0,0 -8.1992,3.5008 -10.6511,4.6984 -2.452,1.2543 -14.9528,3.7063 -17.6032,8.4047 -2.6504,4.7268 -3.8976,7.3772 -1.8496,15.1512 2.0551,7.774 7.774,23.1449 9.2268,25.1717 1.4244,2.048 2.8488,13.1031 2.8488,13.1031 l 0.1984,7.3701 3.678,3.5291 z"
         inkscape:connector-curvature="0" />
      <path
         id="path3034"
         style="fill:#fff200;fill-opacity:1;fill-rule:evenodd;stroke:none"
         d="m 1961.104,1371.9951 c -0.7229,-0.5527 -3.9756,-1.0984 -12.6496,-3.4228 -8.6528,-2.3811 -37.9489,-9.9496 -44.0717,-12.1039 -6.1512,-2.1756 -16.0795,-3.6213 -21.8551,-3.4229 -5.7473,0.1772 -20.6221,4.1457 -25.2992,7.9512 -4.6984,3.7701 -11.0268,8.8512 -13.1953,13.5213 -2.1756,4.6984 -1.2756,6.4771 -1.1055,8.4756 0.2055,1.9984 1.1055,3.7984 1.1055,3.7984 0,0 -3.8055,3.2528 -8.6528,4.7055 -4.8755,1.4244 -7.8236,1.8 -12.3519,1.9701 -4.5,0.1772 -6.8457,-0.9 -9.9213,-1.0701 -3.0756,-0.1772 -5.9527,-0.8008 -8.4756,1.6228 -2.5512,2.4024 -3.2527,4.7481 -5.5984,4.9252 -2.3528,0.1772 -1.8,0.3473 -5.8039,-1.9984 -3.9473,-2.3244 -5.9244,-2.7496 -7.5473,-4.3795 -1.6512,-1.6228 -3.2527,-4.6984 -3.2527,-4.6984 0,0 -4.6985,2.3031 -4.3512,4.6984 0.3756,2.4024 2.374,8.1779 6.6756,11.0764 4.3228,2.8771 16.0795,8.4756 19.5236,9.9 3.4016,1.4527 5.2299,2.7283 9.5528,2.8984 4.3511,0.1772 7.9511,0.9283 7.9511,0.9283 l -0.5527,2.3244 c 0,0 -5.7969,1.8 -9.3756,1.8 -3.6213,0 -8.8512,-0.1771 -14.0953,-0.9 -5.2299,-0.7015 -5.0527,-1.4244 -7.2,-1.6015 -2.1756,-0.1985 -6.3283,-0.9213 -8.3055,1.0771 -1.9984,1.9772 -3.4441,2.6717 -2.5228,6.3 0.9,3.6213 3.4228,9.3969 5.7472,12.9969 2.3528,3.6283 6.1512,7.6252 9.5811,8.3764 3.4228,0.7015 5.4213,1.4527 7.9441,1.0771 2.5299,-0.3756 4.1528,-0.9 5.4,-0.9 1.2756,0 2.5299,-0.3543 2.7284,0.3473 0.1771,0.7228 -0.7229,1.8 -2.5512,2.8984 -1.8,1.0772 -5.5772,2.5299 -8.8229,3.0756 -3.2527,0.5244 -6.6756,0.7016 -10.3039,-0.5457 -3.6,-1.2756 -3.6,-1.6299 -6.1228,-2.5299 -2.5229,-0.9 -7.0512,-1.0984 -9.1985,0.7299 -2.1756,1.8 -3.6779,4.3229 -6.7535,5.9457 -3.0756,1.6299 -5.0457,2.1756 -6.8457,2.3527 -1.8283,0.1772 -3.6283,0.1772 -3.6283,0.1772 0,0 -1.6229,2.1756 -0.9,2.1756 0.7299,0 7.6039,0.5244 9.1984,1.0701 1.6299,0.5527 8.3764,4.8756 9.8291,6.8527 1.4457,1.9772 4.5,5.0457 7.9229,5.4213 3.4228,0.3543 6.4984,0.3543 8.674,0.1772 2.1756,-0.1772 3.4299,-0.7229 4.174,-0.5528 0.7016,0.1772 1.7787,1.1055 0.3543,1.8 -1.4527,0.7512 -1.9984,2.1756 -5.4283,2.1756 -3.4228,0 -8.4756,0.5528 -12.9969,-0.9 -4.5,-1.4457 -6.6756,-2.1472 -6.6756,-2.1472 0,0 -11.2535,-0.7512 -14.8748,0.3472 -3.6,1.0772 -11.374,3.4299 -12.6283,4.3512 -1.2756,0.9 -4.1457,1.4244 -4.5,2.3244 -0.3756,0.9 -1.2756,1.6299 0.3543,2.3527 1.6229,0.7016 3.7985,1.4528 6.6969,0.7016 2.8771,-0.7016 4.1244,-0.5244 7.3771,-0.1771 3.2528,0.3755 14.3221,2.7283 19.1764,4.6984 4.8969,1.9984 17.1709,5.7756 17.1709,5.7756 0,0 5.974,-1.4244 7.9299,-1.2473 1.9984,0.1701 4.6984,0.9 5.5984,1.0701 0.9213,0.1772 8.1213,-0.6945 9.9213,-1.2472 1.8,-0.5528 5.0528,-1.8213 6.3283,-4.8756 1.2756,-3.0756 1.1977,-5.4213 2.8772,-6.874 1.6937,-1.4245 1.5236,-1.4245 6.0236,-2.3528 4.5213,-0.9 4.1457,0.3756 6.4985,-1.2472 2.3244,-1.6229 5.4283,-3.7985 5.9527,-5.0528 0.5457,-1.2756 0.7228,-2.3457 0.7228,-2.3457 0,0 -0.5244,-0.7299 -2.3527,-1.4527 -1.8,-0.7229 -3.9473,-0.7229 -6.6756,-1.2473 -2.7,-0.5527 -3.6,-1.2756 -6.1228,-0.9283 -2.5229,0.3756 -4.0465,1.6512 -4.7481,1.6512 -0.7299,0 -1.8283,-0.1985 -1.8283,-1.2756 0,-1.0772 0.05,-3.2457 3.3236,-5.2229 3.2528,-1.9984 6.1299,-3.4511 8.8512,-5.4283 2.7,-1.9701 6.6756,-3.7984 7.0299,-5.7756 0.3473,-1.9701 1.0701,-4.9252 1.0701,-7.2709 0,-2.3527 0.5527,-8.2984 0.5527,-8.2984 0,0 3.4229,-0.9 5.0528,-1.8283 1.6228,-0.8717 2.3457,-1.6229 3.7984,-1.0772 1.4457,0.5528 1.2473,1.6299 3.4229,0.7299 2.1756,-0.9 2.5228,-0.5244 4.6984,-2.8771 2.1543,-2.3528 1.9772,-3.7985 3.2527,-6.3284 1.2473,-2.5228 0.7229,-3.9685 -0.1771,-5.2441 -0.9213,-1.2543 -3.274,-1.9772 -3.4512,-2.7 -0.1488,-0.7016 -0.9,-2.3244 0.3756,-3.4299 1.2543,-1.0984 1.6299,-1.8 4.3299,-1.9701 2.7,-0.2055 6.4205,1.4244 10.0984,0 3.6709,-1.4527 9.0709,-5.0811 13.7977,-9.4039 4.6771,-4.3229 9.9283,-8.4756 9.9283,-8.4756 0,0 6.8457,-1.3252 14.974,-2.3953 8.1213,-1.1055 19.552,-3.4512 24.7748,-5.6055 5.2229,-2.1756 13.9252,-5.4213 16.4268,-6.6969 2.5228,-1.2472 3.9685,-1.9771 5.7969,-3.6 1.7716,-1.6228 3.2244,-4.5 3.2244,-4.5 z m -283.3229,-112.3015 c 0,0 2.8489,12.2527 4.8969,16.526 2.0551,4.3015 6.5268,10.3748 13.6771,16.1007 7.1221,5.6977 25.4481,19.9772 28.5237,23.4497 3.0756,3.4724 13.8756,16.9511 13.8756,16.9511 0,0 0.3968,1.6229 2.6504,1.8213 2.2464,0.2055 10.8,-2.8488 18.3472,-2.6504 7.5543,0.2055 23.2512,3.2528 24.6543,4.7055 1.4244,1.4244 1.2473,3.0756 5.5205,4.6701 4.2803,1.6016 10.8,2.2039 13.252,2.8275 2.4519,0.6237 3.6779,0.2268 3.8976,2.0481 0.2055,1.8283 -0.4252,3.0543 -2.2464,3.4512 -1.8497,0.4252 -5.726,1.0275 -6.952,2.2535 -1.226,1.2189 -2.048,2.4449 -1.226,4.6984 0.8008,2.2465 1.6299,3.8764 3.4795,5.3221 1.8213,1.4031 3.4512,2.4236 3.0473,3.848 -0.3969,1.4315 -0.6024,1.8567 -2.452,1.8567 -1.8213,0 -3.0472,-1.0276 -3.8693,-0.2055 -0.8008,0.8008 0,4.4787 2.2465,7.526 2.2535,3.0756 4.0748,6.7535 7.3488,7.3488 3.274,0.6307 9.3756,1.0276 12.4512,0.8291 3.0472,-0.1984 4.8472,0.6236 7.4976,-0.6236 2.6787,-1.2047 4.3016,-2.6504 6.7252,-7.9512 2.4803,-5.3008 3.0756,-8.5748 6.7535,-12.8551 3.6709,-4.2732 5.3008,-6.7465 9.8008,-10.8 4.4717,-4.0961 8.5748,-6.3709 13.252,-8.1709 4.6984,-1.8 11.0197,-3.2244 11.0197,-3.2244 0,0 2.8984,-16.9512 3.1252,-27.8787 0.2764,-13.174 -1.8709,-20.5228 -2.948,-33.626 -1.0985,-13.2236 -1.5733,-20.7213 -2.6221,-33.9449 -0.9,-11.0764 -1.5307,-17.3267 -2.3528,-28.4031 -0.5527,-7.4481 -0.2763,-11.3244 -1.3251,-19.1268 -0.652,-4.8472 -1.6229,-4.9252 1.8496,-9.7724 3.4511,-4.8756 8.922,-13.0252 11.7779,-16.7032 2.8701,-3.6709 18.7725,-23.8748 20.8205,-26.5181 2.0268,-2.6504 6.1299,-11.1756 7.1504,-12.4299 1.0275,-1.226 -0.8008,-2.0268 13.0535,-5.6977 13.8473,-3.6496 24.4984,-7.1291 45.8717,-5.7259 21.3732,1.4527 53.4543,2.6504 62.6031,2.8771 9.1488,0.1984 28.4953,0.8008 58.0748,-1.6512 29.6008,-2.4236 22.4504,-2.6291 28.9701,-2.8488 6.5268,-0.2055 24.8811,2.6504 33.626,5.4992 8.7803,2.8772 12.5008,4.6985 32.2512,3.6709 19.7504,-1.0205 29.3527,-1.8213 58.6984,-10.9984 29.3528,-9.1772 32.0244,-11.0268 39.3803,-13.8756 7.3488,-2.8488 25.6748,-11.6504 37.0984,-15.7252 11.4237,-4.0748 22.1953,-5.8465 36.4748,-4.5 15.1512,1.4527 24.7465,3.3803 36.9496,12.4795 8.7237,6.4701 13.3512,11.4236 18.0993,21.2244 2.5724,5.2229 3.522,8.4756 4.6984,14.2016 1.9984,9.822 2.2748,15.9449 0,25.7457 -1.3748,5.8748 -2.6221,9.1488 -5.4992,14.4779 -4.7764,8.8725 -9.1276,13.174 -16.9512,19.5236 -3.7984,3.0969 -6.1512,4.6276 -10.4244,7.0725 -4.0465,2.3527 -6.2008,4.3016 -10.7717,5.2795 -3.9047,0.8008 -10.226,0 -10.226,0 0,0 5.3717,3.5008 9.2268,4.5992 6.5977,1.8992 10.9205,0.8717 17.5748,-0.7299 7.6961,-1.8992 11.7496,-4.4716 18.1488,-9.1488 5.7473,-4.1953 7.8237,-6.2717 12.9756,-12.8764 2.0764,-2.6433 3.6709,-4.0464 4.9748,-7.2 0.8504,-2.048 1.2756,-3.2953 1.3748,-5.5205 0.1489,-2.8275 -3.0543,-7.1291 -1.4244,-7.1291 1.6229,0 2.1473,1.3748 3.6992,1.6512 4.5213,0.7299 6.9733,-2.4732 9.1985,-7.3701 2.2535,-4.9039 3.4228,-8.7307 3.4228,-13.1811 0,-2.7496 0,-3.7205 -2.0197,-6.7961 -2.0551,-3.0756 -3.6496,-4.6771 -6.1299,-7.5259 -1.3961,-1.6016 -1.6228,-1.8284 -3.6992,-4.0536 -0.5953,-0.7228 -0.9992,-2.8984 1.2543,-2.048 2.2465,0.8008 4.0465,1.5732 6.7252,2.4236 1.9984,0.652 5.1236,1.5024 5.1236,1.5024 0,0 -1.2543,-9.8008 -3.3519,-15.6969 -1.8496,-5.0811 -2.9268,-8.1 -6.1725,-12.4299 -2.3527,-3.0969 -3.6283,-5.2228 -7.0512,-7.1504 -2.9267,-1.6441 -4.9748,-1.8992 -8.3267,-2.3244 -1.8992,-0.248 -2.9977,-0.2764 -4.8969,-0.1984 -0.2551,-1.0985 -0.1559,-1.878 0.3756,-2.8772 0.8433,-1.4953 2.0976,-1.8 3.848,-2.1756 1.8709,-0.3472 4.7481,-1.0984 4.7481,-1.0984 0,0 -5.4496,-8.5748 -10.4244,-12.6 -4.6276,-3.7488 -7.7741,-5.4496 -13.4221,-7.3488 -4.826,-1.6016 -7.8024,-2.8985 -12.8764,-2.2465 -1.9275,0.2693 -3.0047,0.6236 -4.8756,1.2189 -1.9488,0.652 -4.0748,2.6504 -4.9039,2.0764 -0.7937,-0.6236 -1.2189,-1.0488 -0.3968,-2.6717 0.8007,-1.6299 3.274,-5.9244 3.274,-6.5267 0,-0.6237 0.6023,-1.8284 -1.226,-2.6504 -1.8496,-0.8221 -6.3709,-3.8764 -18.9709,0.822 -12.6283,4.7055 -31.5992,16.9512 -40.7764,22.0252 -9.1984,5.0811 -20.374,12.2032 -23.6267,13.6559 -3.3024,1.4244 -10.226,4.0748 -12.0473,4.2732 -1.8496,0.1985 -2.6504,1.0276 -3.4795,0.3969 -0.8008,-0.5953 0,-2.2465 0,-2.2465 0,0 18.9496,-10.9771 21.8055,-16.6748 2.8488,-5.726 10.1976,-20.8275 11.0197,-25.526 0.8008,-4.6984 1.8283,-13.1031 -0.1984,-22.0251 -2.0481,-8.9504 -4.0961,-18.1276 -7.9725,-24.8741 -3.8763,-6.7252 -15.2787,-20.8275 -17.2984,-25.2992 -2.0551,-4.4504 -9.8008,-22.5992 -13.8756,-34.2283 -4.1031,-11.6221 -12.6496,-34.2496 -19.3748,-45.0496 -6.7535,-10.8213 -13.6559,-18.2268 -19.1551,-24.3 -5.5205,-6.0733 -6.5197,-8.7237 -11.2252,-11.7992 -4.6984,-3.0473 -10.8,-5.6977 -10.8,-5.6977 0,0 -0.4252,-0.4252 -2.6717,5.0953 -2.2535,5.4992 -3.6496,9.7512 -3.6496,9.7512 0,0 17.7237,23.6764 20.3741,29.2039 2.6503,5.4992 12.4511,25.448 13.6771,29.948 1.226,4.4717 3.4725,9.7725 3.4725,11.8276 0,2.048 0.8007,4.6701 -0.1985,6.5197 -1.0275,1.8496 -1.4244,2.6504 -2.048,2.2535 -0.6024,-0.4039 -4.2803,-14.074 -6.1299,-18.574 -1.8213,-4.4787 -8.5748,-19.3535 -10.3748,-22.0039 -1.8496,-2.6504 -11.0268,-15.3 -15.3213,-20.1969 -4.2803,-4.9039 -7.1504,-6.9236 -9.9992,-8.9504 -2.8559,-2.048 -5.5559,-3.0756 -7.3559,-3.9047 -1.8,-0.822 -3.6213,-0.822 -3.6213,-1.6228 0,-0.8008 6.9024,-6.9236 8.1213,-10.3748 1.226,-3.4725 6.7252,-32.6481 8.3764,-39.4016 1.6228,-6.6969 3.6779,-14.6197 15.3,-28.4953 11.6291,-13.8756 18.3543,-21.2244 19.9984,-23.0527 1.6299,-1.8496 3.4795,-2.8772 3.8551,-5.3221 0.3969,-2.4307 1.6512,-0.9779 0,-6.0803 -1.6299,-5.1236 -1.6299,-7.9724 -6.3,-12.6496 -4.7055,-4.6984 -27.3543,-33.0236 -33.0803,-39.5504 -5.6976,-6.5197 -24.8457,-29.9976 -26.674,-32.648 -1.8496,-2.6504 -8.1709,-13.4717 -9.5953,-15.4985 -1.4244,-2.048 -2.8559,-4.2519 -3.0756,-6.7039 -0.2055,-2.4449 -0.4039,-4.0961 0.4252,-6.1228 0.8221,-2.0481 2.6504,-3.8764 2.6504,-7.774 0,-3.8481 0.6236,-6.1016 -0.6307,-8.752 -1.1976,-2.6717 -1.8213,-5.4992 -4.2732,-6.5197 -2.452,-1.0276 -6.7252,-2.452 -9.8008,-1.8496 -3.0473,0.6236 -4.4717,0.822 -5.0953,3.6709 -0.6023,2.8488 -1.2047,4.1031 -0.2055,6.1015 1.0276,2.0481 0.6307,2.8985 2.6787,2.8985 2.0268,0 3.2457,0.1771 3.2457,-1.2473 0,-1.4244 -0.6236,-1.4244 -1.0205,-2.4519 -0.4039,-0.9993 -0.6023,-1.8284 0.8221,-1.6229 1.4244,0.2197 3.2527,1.6229 3.8551,3.274 0.6236,1.6229 1.4457,3.8764 -1.0063,6.7252 -2.4449,2.8489 -4.8968,4.2733 -7.1504,4.0748 -2.2464,-0.1984 -7.9724,-1.0275 -9.3685,-2.8488 -1.4031,-1.8283 -5.6764,-7.5543 -6.1016,-9.4039 -0.4039,-1.8213 -0.8008,-6.1016 -1.8283,-7.9512 -1.0205,-1.8213 -3.4725,-7.1504 -6.1228,-8.5465 -2.6504,-1.4244 -12.4512,-4.6984 -17.1284,-3.0755 -4.6984,1.6511 -9.1984,2.6503 -9.9992,7.3488 -0.8221,4.6771 -1.4457,5.6976 -0.1984,8.1496 1.226,2.4732 2.2252,5.726 4.4787,6.9519 2.2465,1.226 4.4717,2.6504 6.9449,3.4512 2.452,0.8221 8.9787,2.2465 10.6016,2.6504 1.6228,0.4252 2.8488,1.0488 3.8763,1.8496 1.0276,0.8221 1.6229,1.6229 1.6229,1.6229 0,0 -1.0205,-1.6229 -1.8213,0.4252 -0.8291,2.0267 1.226,3.2527 1.8213,4.2732 0.6236,1.0275 26.9008,38.7283 29.1543,42.6047 2.2252,3.8693 21.4228,34.6465 25.4976,43.6465 4.0748,8.9787 7.0512,16.3488 8.7733,20.9976 1.4244,3.8764 3.2031,8.752 1.9984,9.978 -1.1693,1.2259 -13.8189,6.1228 -16.2709,8.1496 -2.4519,2.048 -15.3,8.7732 -17.9504,10.6015 -2.6504,1.8496 -7.3488,3.2741 -7.9795,5.1237 -0.5953,1.8283 -0.7937,2.8488 0.8291,4.6771 1.6512,1.8496 9.8008,8.1709 12.026,9.5953 2.2465,1.4244 2.6504,2.452 4.5,2.8559 1.8496,0.3969 5.5205,0.8221 5.5205,0.8221 0,0 -3.2953,1.8283 -5.1236,1.6228 -1.8213,-0.1984 -5.0953,-0.3969 -9.9992,-2.2465 -4.8756,-1.8283 -12.4229,-5.1023 -15.0733,-6.7252 -2.6787,-1.6228 -5.6763,-4.0748 -8.5535,-5.3008 -2.8488,-1.2259 -3.0472,-1.8496 -6.7252,-2.4519 -3.6709,-0.6236 -7.5472,-0.4252 -7.5472,-0.4252 0,0 2.6503,7.1504 2.8488,12.4512 0.1984,5.3008 1.4244,25.9015 2.0267,30.3732 0.652,4.4787 1.8497,9.2055 3.0756,11.2252 1.226,2.0268 3.2741,3.4795 3.2741,3.4795 l -1.6512,0.8008 c 0,0 -5.074,-4.0748 -6.5268,-7.3276 -1.4244,-3.274 -3.0472,-13.2732 -3.6496,-16.9511 -0.6236,-3.678 -1.4457,-14.6481 -1.8496,-17.1 -0.3969,-2.452 -2.4449,-7.7528 -4.0748,-8.9717 -1.6229,-1.226 -4.8969,-3.6779 -6.3213,-4.5 -1.4244,-0.8008 -2.8771,-1.4244 -2.8771,-1.4244 0,0 -0.6024,8.5465 -2.8489,11.2181 -2.2252,2.6504 -5.9031,12.8268 -6.1228,23.6268 -0.2055,10.8283 -1.6299,25.1008 -1.4031,27.9779 0.1771,2.8489 1.4031,5.0953 2.6503,5.8961 1.1977,0.8291 2.6504,1.4244 1.6016,2.2535 -0.9992,0.8008 -2.2252,2.0268 -4.0748,0.6024 -1.8283,-1.4315 -3.4795,-4.6772 -4.2803,-6.5268 -0.822,-1.8283 -1.0205,-5.1023 -1.4244,-6.3 -0.4252,-1.2543 -0.8008,-2.4732 -2.4236,-1.6511 -1.6229,0.8007 -3.6709,3.8976 -4.2733,9.8007 -0.6236,5.8748 1.8709,20.1756 3.8764,26.9008 1.9984,6.7252 2.8205,21.026 4.6488,28.1481 1.8496,7.1007 13.4717,26.7023 18.1489,34.0228 4.6984,7.3488 13.2732,18.326 13.2732,23.4496 0,5.1024 1.0275,10.4031 -0.8221,14.2795 -1.8283,3.8764 -2.4519,8.5748 -4.8755,10.3961 -2.452,1.8283 -1.8497,1.8283 -4.5,2.452 -2.6504,0.6023 -3.0756,0.6023 -3.0756,0.6023 0,0 2.8771,-4.4787 3.274,-8.1496 0.4252,-3.6779 2.048,-16.9512 -0.1984,-21.2244 -2.2536,-4.252 -6.1016,-12.0047 -13.8756,-20.9764 -7.7528,-8.9787 -17.5252,-25.526 -19.552,-31.0039 -2.048,-5.4992 -6.1228,-28.9488 -7.9512,-32.6197 -1.8496,-3.6779 -3.0685,-11.6291 -4.0748,-13.4787 -1.0488,-1.8213 -1.4457,-4.7268 -2.6716,-5.8961 -1.226,-1.2047 -0.6024,-1.6016 -5.4993,-3.4512 -4.9039,-1.8283 -7.1291,-3.0543 -9.6023,-1.8283 -2.452,1.226 -5.4992,1.9984 -8.5465,7.7244 -3.0756,5.7047 -2.4803,6.1299 -4.1031,9.1771 -1.6016,3.0473 -2.9977,9.9993 -2.9977,9.9993 0,0 -1.0488,-2.452 -0.2267,-7.5473 0.822,-5.1023 2.2535,-10.6299 2.2535,-13.8756 0,-3.2527 1.5732,-6.9023 0.5953,-8.5535 -0.9992,-1.6229 -1.8213,-1.6229 -5.3008,-3.8764 -3.4441,-2.2252 -4.4717,-2.0197 -7.9441,-3.2457 -3.4795,-1.2259 -2.452,-1.8283 -7.3559,-1.2259 -4.8969,0.6023 -9.8008,0.3968 -12.2244,4.0748 -2.4449,3.6779 -2.4449,9.7724 -3.4725,12.2031 -1.0275,2.4449 -2.6787,6.5197 -5.1023,7.774 -2.4449,1.226 -5.3008,2.6504 -7.5473,2.2252 -2.2535,-0.3756 -2.0267,0 -4.4504,-1.4244 -2.4519,-1.4315 -3.274,-3.0543 -3.274,-3.0543 0,0 1.474,0.6023 3.4512,0.8008 2.0197,0.1984 5.1236,0.6519 7.3205,-1.1977 3.274,-2.7779 2.452,-8.3551 0.1984,-10.9984 -2.2252,-2.6504 -4.8685,-5.1024 -8.3197,-5.7047 -3.4512,-0.6236 -6.5267,-1.0488 -11.2252,2.6504 -4.6771,3.6779 -7.3275,6.4984 -10.8,11.7992 -3.4795,5.3008 -7.9795,15.4984 -7.9795,15.4984 0,0 0.2055,-7.5472 0.2055,-11.4236 0,-3.8764 0,-7.4977 1.0205,-10.1764 1.0275,-2.6433 1.226,-4.4716 2.2535,-6.3213 1.0205,-1.8283 4.5,-5.6976 4.5,-5.6976 0,0 -9.6023,-0.2268 -12.4512,-0.4252 -2.8488,-0.2055 -8.5748,-1.2047 -12.2527,0 -3.6709,1.2189 -9.9709,2.6717 -13.4221,6.7465 -3.4724,4.0748 -6.3283,7.9228 -7.9511,9.9496 -1.6512,2.048 -4.5,4.9039 -4.5,4.9039 0,0 2.2535,-6.7039 1.6228,-9.5527 -0.5953,-2.8489 -0.1984,-4.6985 -2.6504,-6.7252 -2.4449,-2.0481 -3.0472,-4.6985 -7.5472,-4.1032 -4.5,0.6307 -8.1496,4.3016 -10.6016,7.3559 -2.4449,3.0756 -6.7252,8.9504 -8.3764,14.4496 -1.6228,5.5205 -3.0472,14.6977 -2.4449,21.026 0.6236,6.3213 2.8488,14.6693 2.8488,14.6693 0,0 -5.0527,-7.9441 -5.8748,-10.1693 -0.8291,-2.2535 -2.048,-11.2252 -1.6228,-14.3008 0.4252,-3.0756 1.6228,-9.3756 2.2465,-12.8551 0.6023,-3.4724 1.8,-5.6693 2.1968,-7.5189 0.4039,-1.8283 0.6024,-3.0543 0.6024,-4.4787 0,-1.4244 -0.021,-2.2465 -0.8008,-2.6504 -0.7725,-0.3969 -3.4512,-1.8496 -6.8953,0 -3.4795,1.8283 -7.5543,3.848 -11.8559,12.4015 -4.2732,8.5748 -6.1228,20.4024 -4.2732,26.5252 1.8496,6.1229 4.9039,10.3961 6.9236,12.4512 2.0551,2.0481 3.4795,3.2457 4.9039,5.4992 1.4457,2.2465 2.6504,4.2733 2.6504,4.2733 0,0 1.4457,1.1763 -1.4031,0.1984 -2.8701,-0.9992 -3.0756,-0.9992 -4.3016,-2.0197 -1.1976,-1.0063 -4.5,-3.6567 -4.5,-3.6567 0,0 0.5032,4.5567 1.5024,7.2567 1.3252,3.5221 2.9267,5.1236 5.2015,8.1213 5.5985,7.3488 15.6473,12.9259 17.8725,15.5763 2.2535,2.6504 2.9551,5.6977 3.9756,9.6024 0.7795,3.0472 1.0771,4.8472 1.226,7.9937 -1.7008,-2.2961 -3.0473,-3.848 -4.0748,-6.0945 -0.9993,-2.2535 -1.4528,-3.7275 -3.0756,-5.974 -1.6229,-2.2535 -4.4717,-4.6276 -7.6465,-7.1787 -3.2031,-2.5512 -5.3504,-3.5008 -8.6527,-5.8748 -3.2245,-2.4024 -5.6764,-3.1465 -8.1497,-6.3284 -2.4236,-3.0968 -3.2031,-5.3433 -4.1031,-9.1701 -1.0488,-4.4008 -0.3969,-8.5535 -0.1984,-11.6291 0.2267,-3.0472 1.8496,-4.0748 -0.1985,-7.7244 -2.048,-3.6992 -3.4511,-6.1228 -4.4787,-9.9992 -1.0205,-3.8977 -1.4244,-11.2252 -1.8213,-13.2733 -0.4252,-2.048 0,-3.4724 -2.048,-4.9039 -2.0551,-1.4244 -1.8496,-1.4244 -4.4787,-0.6236 -2.6717,0.8291 -3.274,1.8496 -6.7465,1.4527 -3.4795,-0.4039 -4.7055,-0.1984 -5.9244,-1.0275 -1.2047,-0.8221 -2.8276,-1.6228 -2.8276,-1.6228 0,0 -0.2267,-0.3969 2.0268,-2.6504 2.2465,-2.2465 3.4512,-3.0473 6.1229,-4.4717 2.622,-1.4315 5.4992,-2.2252 5.4992,-2.2252 0,0 10.1976,-18.9779 10.1976,-23.2795 0,-4.2732 3.0543,-32.7969 5.726,-41.1732 2.6504,-8.3764 6.1299,-11.8276 6.1299,-11.8276 0,0 3.4441,-0.4252 4.0465,-2.048 0.6236,-1.6229 8.7732,-12.4512 9.8291,-15.3 0.9992,-2.8489 2.2181,-7.526 2.2181,-11.4024 0,-3.8693 -1.0205,-7.7457 -1.2189,-9.3756 -0.2055,-1.6228 -0.4252,-2.2464 -1.8496,-3.274 -1.4031,-1.0205 -2.8559,-1.4244 -2.8559,-3.0473 0,-1.6228 -0.1984,-2.048 1.226,-3.0755 1.4244,-0.9993 3.8764,-2.0268 3.8764,-2.0268 0,0 5.6763,-15.7465 10.8,-27.1205 5.1023,-11.4307 15.3,-35.0787 16.1008,-36.5244 0.822,-1.4031 1.6228,-2.2252 2.6503,-2.6291 1.0276,-0.3969 8.3764,-1.6512 11.8489,-3.6709 3.4511,-2.0268 6.9236,-4.1031 8.1496,-6.5268 1.226,-2.4519 3.4724,-6.3 4.0748,-9.1488 0.6236,-2.8772 1.5732,-7.1504 0.9992,-8.3764 -0.574,-1.2259 0.028,-2.4519 -2.0197,-4.0748 -2.0268,-1.6511 -1.6299,-2.6504 -3.8764,-1.8496 -2.2252,0.8221 -3.8764,0.4252 -3.8764,2.2465 0,1.8496 -1.1976,2.0551 0.8221,3.8764 2.0551,1.8496 2.6504,0.822 2.6504,2.4519 0,1.6229 -0.5953,2.8488 -2.4449,3.0756 -1.8283,0.1984 -7.1504,0.5953 -8.5535,-1.4527 -1.4528,-1.9985 -3.0756,-4.0748 -2.6717,-7.3489 0.4252,-3.2527 2.6717,-6.3 3.8693,-8.5748 1.2543,-2.2039 2.2535,-8.7519 3.4795,-12.8267 1.226,-4.0961 0.6236,-7.5473 0.1985,-10.4244 -0.3969,-2.8489 -1.4245,-4.4504 -3.678,-5.8748 -2.2252,-1.4245 -9.1701,-3.4512 -12.6496,-3.2528 -3.4512,0.2055 -8.7732,2.6008 -11.1969,7.9299 -2.4519,5.3008 -3.8763,12.026 -3.4724,14.2725 0.3969,2.2535 1.0205,3.8763 3.6709,5.3008 2.6504,1.4244 4.8756,2.4519 7.5472,1.0275 2.6504,-1.4244 4.3016,-1.8283 5.9032,-2.6504 1.6511,-0.8291 3.6992,-1.226 3.6992,-1.226 0,0 -0.2268,2.452 -2.2465,4.8969 -2.0551,2.452 -1.6299,4.0748 -6.1299,5.4992 -4.5,1.4244 -4.2945,1.0276 -6.7252,1.0276 l -3.6992,0 c 0,0 -2.1969,7.3275 -12.1961,27.0992 -9.9992,19.7787 -22.6488,49.5496 -26.1,54.248 -3.4795,4.6772 -5.7047,8.3551 -7.5756,10.2047 -1.8283,1.8213 -5.4992,4.6701 -9.574,6.7252 -4.0748,2.0481 -7.5543,4.6984 -7.5543,4.6984 0,0 -0.2197,9.7725 1.226,13.0465 1.4244,3.2811 3.0543,5.9244 4.6984,7.5543 1.6299,1.6229 2.8559,3.6213 3.4512,4.0465 0.6236,0.4039 1.4244,1.6299 0.1984,1.6299 -1.1976,0 -2.8488,-0.4252 -4.8756,-1.8283 -2.048,-1.3961 -4.0464,-3.6496 -5.8961,-5.2725 -1.8283,-1.6512 -4.4787,-4.7055 -5.4992,-5.3008 -1.0275,-0.6236 -0.8008,-2.048 -3.6496,-2.048 -2.8771,0 -3.274,0 -3.4795,2.6433 -0.2197,2.6504 0.8008,4.3016 0.4039,5.3008 -0.4039,1.0276 -0.6236,2.2535 -1.8496,1.8496 -1.2047,-0.4252 -1.6299,-1.8496 -3.0543,-3.4724 -1.4457,-1.6512 -3.0472,-4.2733 -3.0472,-4.2733 0,0 -2.4733,7.6961 -1.4528,11.9977 1.0276,4.2732 1.4528,17.9504 2.452,21.8267 1.0275,3.8764 0.6023,5.8961 3.274,7.3489 2.6504,1.4244 4.8756,3.274 7.9795,3.274 3.0189,0 2.6221,0.9992 5.4709,-0.6236 2.8771,-1.6229 8.9504,-4.8969 8.9504,-4.8969 0,0 -10.1481,9.3685 -12.1961,9.9992 -2.0551,0.5953 -7.9512,2.4449 -10.6016,2.0197 -2.6787,-0.3968 -6.3496,-0.822 -6.3496,-0.822 0,0 -23.074,51.0236 -28.7504,59.3716 -5.6763,8.3268 -15.0732,25.2567 -16.5047,28.3039 -1.4244,3.0756 -3.4724,8.3764 -5.2937,10.0276 -1.8496,1.6228 -3.0543,4.0748 -4.9039,4.0748 -1.8213,0 -2.2465,0.5953 -2.8488,-0.8291 -0.6237,-1.4244 -0.1985,-2.6504 1.0275,-3.8764 1.2189,-1.2189 3.0473,-2.6504 3.2457,-3.4441 0.2268,-0.8291 0.4252,-2.4803 0.4252,-2.4803 0,0 -11.6221,0.8291 -18.3756,8.3764 -6.7252,7.5472 -11.1969,14.4496 -13.2236,17.5252 -2.0481,3.0472 -6.952,8.7023 -11.5512,14.1023 0.7795,-4.2803 2.5795,-8.6031 3.1748,-10.6512 0.6236,-2.048 2.0268,-4.0535 2.6504,-5.2724 0.6236,-1.226 1.6299,-3.8764 1.6299,-3.8764 0,0 -9.0567,1.6229 -12.0543,3.1465 -8.4969,4.2732 -8.9504,5.7543 -13.252,9.6732 -3.6992,3.3803 -2.8488,10.5307 -5.6197,16.9299 -1.8992,4.4221 -3.9543,8.1496 -5.5771,11.0268 -1.6512,2.8488 -5.0741,4.8189 -9.1276,6.4984 4.0535,-6.2291 6.4772,-16.0795 6.874,-17.7236 0.4039,-1.6299 0.6024,-7.3559 0.6024,-7.3559 0,0 -3.4229,0.6307 -6.6969,3.0756 -3.2527,2.452 -8.7803,5.4992 -11.4236,11.4307 -2.6504,5.9244 -6.1512,14.2441 -5.9315,23.8465 0.1276,3.9259 0.4252,6.2007 1.3748,10.0275 0.1772,4.4221 -0.3472,7.1221 -2.1472,11.1756 -1.878,4.1953 -3.5717,6.4984 -7.1504,9.3969 -1.9772,0.9779 -3.8764,0.7724 -5.5772,-0.6024 -1.3465,-1.0488 -2.2252,-2.1969 -1.9701,-3.8976 0.1488,-1.0985 0.4961,-1.8284 1.3961,-2.452 0.9496,-0.6449 2.8772,-0.4252 2.8772,-0.4252 0,0 -0.9993,-4.6701 -2.3741,-7.3488 -0.9992,-1.9985 -1.7291,-3.0756 -3.1535,-4.826 -3.9969,0.7016 -6.3,1.6795 -9.574,4.0252 -6.2221,4.5283 -7.9229,9.8008 -9.3473,17.3551 -2.1047,11.0976 2.5512,19.2685 7.852,27.8717 4.8189,7.8023 8.5961,11.6504 12.3236,20.0267 3.6213,8.1992 2.2465,13.4504 6.5197,21.9969 4.2803,8.6031 8.6315,18.326 17.9504,26.7519 5.5276,4.9961 10.9772,7.5473 15.8811,10.6016 4.8969,3.0756 14.2724,7.9512 15.5197,8.7733 1.226,0.822 3.2527,1.6228 3.2527,1.6228 0,0 0,-2.4449 0.8221,-5.3008 0.8008,-2.8488 2.6504,-4.6701 2.6504,-4.6701 0,0 -0.6236,-3.9047 -0.6236,-5.9244 0,-2.0551 0.1984,-2.6787 1.4527,-4.0748 1.1977,-1.4315 1.8213,-2.452 3.0473,-2.452 1.226,0 1.8283,0 1.6228,1.4244 -0.1984,1.4245 -0.822,2.6504 -0.822,4.0749 0,1.4244 0.2267,3.4724 0.2267,3.4724 0,0 3.6709,2.8488 4.2733,6.1299 0.6023,3.2457 1.6228,15.874 5.9031,22.5992 4.2945,6.7252 14.6693,16.2 24.4205,26.2205 5.974,6.1512 10.5519,8.2772 15.5267,15.5551 5.8961,8.6457 7.0725,14.0457 11.9977,23.648 4.4008,8.6245 6.952,13.252 14.3008,18.8221 3.274,2.452 5.4992,3.274 9.0779,5.2795 3.1961,1.7717 6.7748,3.7701 8.2701,4.4717 1.1764,0.5527 3.9756,2.2535 6.5268,3.7275 -5.4213,0.3473 -8.5252,0.2764 -13.8969,-0.3259 -2.7283,-0.326 -4.2519,-0.652 -6.9519,-1.1268 -2.8276,-0.4961 -4.4221,-0.7512 -7.2284,-1.3961 -2.2464,-0.5244 -3.522,-0.7795 -5.7472,-1.4527 -3.1961,-0.9993 -4.3229,-1.6512 -8.0008,-3.0969 -2.126,-0.8787 -8.3481,-3.8551 -8.3481,-3.8551 0,0 2.0977,3.8551 11.452,10.3748 9.3473,6.5268 14.4496,9.6024 22.4008,14.2795 7.9441,4.6984 13.8189,7.5969 21.4228,14.0953 3.0473,2.6008 4.4221,4.4504 7.4977,7.0299 2.0764,1.7221 3.274,2.6221 5.4779,4.174 1.8213,1.2969 2.8985,1.9772 4.7977,3.1748 -2.7709,0.5457 -4.5,0.5244 -7.2709,-0.099 -3.4016,-0.7299 -5.0031,-2.1756 -7.9795,-4.0252 -3.7205,-2.3031 -5.4992,-3.7984 -8.8512,-6.9732 -2.7709,-2.6291 -4.3228,-3.6 -7.3701,-5.5276 -2.6008,-1.6228 -5.3008,-3.0755 -6.9307,-3.6992 -1.6441,-0.6023 -3.2457,-0.8787 -4.7197,0.2268 -2.2039,1.5945 -0.6803,4.3724 0.1984,6.9449 1.8497,5.3291 2.452,7.9795 4.9465,12.6283 2.8772,5.3717 7.1504,10.3748 9.2055,12.6213 2.0197,2.2535 5.7473,4.7055 10.0205,6.7039 -1.9205,0.1985 -3.926,0.021 -4.9465,0.021 -0.9992,0 -2.4236,-0.1984 -4.0748,-0.8008 -1.6299,-0.6236 -3.8764,-1.8496 -3.8764,-1.8496 0,0 -3.4724,7.1787 -2.6503,11.8488 0.9,5.1803 3.9259,7.4055 7.7527,11.0268 3.1465,2.9551 5.3504,4.1527 9.1984,6.1016 1.5237,0.7724 3.6709,0.6023 4.0748,1.8283 0.3969,1.2189 -1.0275,2.4732 -2.6504,2.4732 -1.6511,0 -7.9015,-2.7779 -12.4724,-5.5275 -4.0748,-2.4733 -6.8031,-3.6992 -9.7299,-7.4977 -2.048,-2.7 -2.8205,-4.5779 -3.926,-7.8023 -0.7724,-2.3244 -1.4244,-6.1229 -1.4244,-6.1229 0,0 -10.1764,-6.1015 -16.2709,-10.6015 -4.6275,-3.3733 -7.0512,-5.4992 -11.4519,-9.1772 -4.0252,-3.3236 -5.9245,-5.6976 -10.1977,-8.7449 -2.5299,-1.8 -6.7252,-4.2803 -6.7252,-4.2803 0,0 12.1748,2.3528 19.5732,5.0811 4.3229,1.6228 6.4985,3.0685 10.7717,4.748 4.252,1.6512 11.0268,3.8481 11.0268,3.8481 0,0 -2.0977,-8.8229 -4.4717,-14.1024 -3.5504,-7.7953 -6.9307,-11.5724 -12.4299,-18.1488 -4.9961,-5.974 -8.3197,-8.9221 -14.0953,-14.1449 -9.7512,-8.8016 -16.1291,-12.7276 -26.8795,-20.2535 -9.5953,-6.7252 -15.0236,-10.5733 -25.1504,-16.4481 -3.7701,-2.2039 -5.7968,-3.5787 -9.7441,-5.4283 -2.1756,-1.0205 -3.4299,-1.5732 -5.7047,-2.4449 0,0 7.3984,-0.7795 11.6504,0.1984 7.5543,2.2252 11.7992,3.6709 19.148,6.5197 13.9252,5.4284 26.5039,12.6567 34.4764,16.7528 7.9512,4.0748 18.1488,7.3275 18.1488,7.3275 0,0 -6.0236,-9.4039 -9.3968,-15.7252 -3.7772,-7.0299 -4.8756,-10.7008 -8.752,-18.5527 -3.5008,-7.0512 -7.0016,-10.2473 -12.8764,-15.4205 -3.0472,-2.7 -5.0953,-3.8551 -8.3693,-6.3 -6.4275,-4.8543 -10.8992,-6.6756 -16.4764,-12.5291 -5.0031,-5.2229 -9.3756,-12.8481 -10.8283,-15.1016 -1.4244,-2.2465 -3.4724,-5.6976 -3.4724,-5.6976 0,0 -11.9268,-7.1221 -19.3749,-12.026 -7.6748,-5.0244 -12.6283,-7.1717 -19.3535,-13.4504 -5.2724,-4.9252 -7.6465,-8.3268 -12.0189,-14.074 -3.026,-3.9473 -5.9315,-8.1496 -7.3559,-10.4032 -1.4244,-2.2464 -3.8693,-5.9244 -3.8693,-5.9244 0,0 -5.2795,10.2756 -7.1504,17.3551 -4.0252,15.2221 -2.5795,25.0725 1.226,40.3725 2.5724,10.4031 5.5205,19.1763 10.4244,25.4976 4.8756,6.3 12.4937,13.1528 21.1961,20.778 1.4244,1.2259 2.2535,1.9488 3.6992,3.1748 l 6.3992,4.1031 c -5.8252,-1.2047 -9.0992,-2.5299 -14.1732,-5.6551 -3.6496,-2.2465 -5.0244,-4.5 -8.5465,-6.9236 -1.6512,-1.0772 -4.3016,-2.6504 -4.3016,-2.6504 0,0 -4.5,6.1015 -2.048,12.6283 2.4449,6.5197 11.2465,19.148 19.5732,30.6 6.5977,9.0496 10.9985,13.6205 17.9221,22.4221 3.6992,4.6771 5.8535,7.2496 9.4039,12.0472 1.7008,2.2748 3.4725,4.6772 4.2732,5.9032 0.8221,1.2259 2.8489,3.8763 2.8489,3.8763 0,0 -1.3961,-0.4039 -5.6977,-2.8488 -4.2732,-2.452 -6.7252,-2.2535 -6.7252,-2.2535 z m 269.3977,-367.852 c 0,0 -4.5709,7.8803 -6.6969,11.9551 -2.126,4.0961 -4.0748,6.2221 -4.9039,11.4449 -0.8221,5.2512 -0.4961,12.4795 -0.4961,12.4795 0,0 -3.6,-13.6275 -2.3031,-18.6732 1.3039,-5.0811 1.3039,-6.5055 3.6992,-9.8291 1.7504,-2.5016 3.1748,-3.926 5.6551,-5.4 2.4449,-1.5024 5.0457,-1.9772 5.0457,-1.9772 z m -22.2733,1.4811 c 0,0 -7.6748,0.1701 -10.6228,9.4961 -2.9551,9.326 -2.7779,10.3039 -3.7772,16.0512 -0.9779,5.7472 -0.5031,12.1251 -0.5031,14.1023 0,1.9488 2.3031,11.1189 2.3031,11.1189 0,0 -3.274,-7.3701 -3.9259,-10.9701 -0.652,-3.6 -2.5725,-7.5756 -3.0969,-12.6283 -0.6307,-5.8961 -0.3543,-10.2969 0.7937,-15.2221 1.1551,-4.9039 3.7559,-9.3259 5.5772,-10.8 1.8,-1.474 3.4228,-3.1039 5.726,-3.274 2.3031,-0.1771 6.3779,0 6.3779,0 l 2.2961,1.8 -1.1481,0.326 z m -105.4275,80.2701 c 3.274,2.7779 3.3236,2.7992 5.8039,4.0039 1.5449,0.7229 4.1244,1.5236 4.1244,1.5236 0,0 2.5229,11.2961 6.9449,16.8237 2.2819,2.7992 3.7559,4.3724 6.7819,6.3 1.9488,1.226 3.0969,1.9771 5.322,2.5724 2.5512,0.7016 4.1528,0.7795 6.7465,0.3756 -2.7709,-1.9984 -4.2945,-3.2953 -6.6968,-5.7472 -2.7993,-2.8489 -4.5,-4.4717 -6.3993,-7.9725 -4.0252,-7.2992 -3.3732,-12.8764 -2.7779,-21.1535 0.5527,-7.4764 1.6795,-10.6016 2.6291,-17.3977 0.3756,-2.948 0.9709,-7.5047 0.9709,-7.5047 0,0 -0.9709,-3.848 -1.8992,-6.6189 -1.1268,-3.4795 -0.7016,-2.1047 -1.2473,-3.4016 -2.4519,-2.374 -4.3511,-4.7763 -5.3291,-6.9023 -0.9709,-2.0977 -1.4953,-5.3221 -3.2244,-8.3481 -1.8,-3.1252 -2.8488,-5.1519 -5.8252,-7.2 -1.5732,-1.1267 -3.8197,-3.6779 -4.4717,-2.2039 -0.6519,1.4811 -0.6519,4.7268 -0.6519,4.7268 0,0 1.8283,-0.9709 4.4291,2.7779 2.5937,3.7205 5.6693,11.0481 7.3205,18.7016 0.3047,1.3961 0.6519,3.6 0.6519,3.6 0,0 -1.7503,7.9724 -2.1259,13.174 -0.3969,5.3717 0.1771,12.026 0.1771,13.826 0,1.8 -0.1984,4.7976 -0.1984,4.7976 0,0 -4.252,-0.5031 -6.4276,-1.9771 -4.7763,-3.1961 -6.874,-8.2205 -8.1283,-10.4457 -1.7221,-3.1748 -4.0748,-7.5756 -5.648,-12.8055 -0.9,10.4244 1.3748,19.8496 9.1488,26.4756 z m -16.448,-25.0725 c 4.7267,4.0465 5.4,11.6221 5.7259,14.8748 0.326,3.2245 0.3969,4.4008 0.4748,7.2497 0.1205,6.1511 -1.4527,10.9771 -1.1267,15.6968 0.326,4.7268 2.4236,13.4291 3.8763,17.0008 1.4741,3.6 5.3717,13.8543 6.8528,16.1008 1.4457,2.3031 2.5937,5.648 4.6488,9.0496 3.0756,5.2016 8.3693,10.9984 9.1984,12.4512 0.8008,1.474 1.8497,2.5015 3.026,4.1031 -4.5496,-1.7008 -7.8236,-2.8771 -10.8992,-5.9527 -3.1039,-3.0969 -7.2779,-7.3489 -11.2039,-12.6496 -3.926,-5.3008 -6.1229,-8.3977 -8.7732,-14.478 -3.1536,-7.2709 -4.4221,-11.7709 -4.9749,-19.6724 -0.7228,-9.8504 3.8977,-15.2008 3.6993,-25.0725 -0.1489,-5.1023 -0.8504,-9.2764 -1.4741,-13.0252 -0.6519,-3.7275 -3.2244,-8.3267 -3.2244,-8.3267 0,0 2.7213,1.3748 4.1741,2.6503 z m -174.6497,60.9024 c 1.2969,2.1473 5.3221,3.6 5.3221,3.6 0,0 -3.5717,0.4465 -5.726,-0.1559 -2.1472,-0.574 -3.6709,-0.9992 -5.0244,-2.7709 -1.148,-1.5236 -1.4457,-2.7496 -1.4457,-4.6488 0,-1.8992 0.4961,-2.9764 1.4457,-4.6559 0.7795,-1.3961 1.3748,-2.1472 2.6291,-3.1748 0.7016,-0.5457 1.0489,-0.9709 1.8709,-1.1976 0.7512,-0.1985 1.2543,-0.2481 1.9772,0 0.7511,0.248 1.148,0.574 1.6015,1.1976 0.2764,0.5315 0.3756,0.9 0.3756,1.5024 -0.05,1.7291 -2.5015,1.4244 -3.3519,2.9267 -1.4244,2.5016 -1.1764,4.9252 0.3259,7.3772 z m 30.7772,-6.8811 c -0.2268,10.9559 0.9213,17.4756 4.8969,27.6803 1.9771,5.0953 3.7488,7.7244 6.3496,12.5008 2.0763,3.7984 3.5291,5.7685 5.4779,9.5953 1.3748,2.6787 2.1969,4.174 3.274,6.9732 1.3465,3.5291 1.2473,5.8039 2.6504,9.326 1.5733,3.8764 2.7496,6.0307 5.2229,9.4252 -9.1489,-9.2197 -13.7268,-15.1724 -20.3528,-26.3197 -2.1968,-3.6779 -3.6992,-5.6551 -5.2228,-9.6307 -1.2473,-3.2457 -1.5733,-5.2228 -2.2961,-8.6244 -1.3252,-6.6756 -1.4527,-10.5945 -1.4527,-17.426 0,-3.8693 -0.2977,-6.1228 0.5031,-9.9213 0.2693,-1.4244 0.4961,-2.2039 0.9496,-3.5787 z m 86.7756,36.1276 c 0,0 3.2457,9.7724 7.8732,14.0031 3.7488,3.3945 6.6473,4.5213 11.4733,5.9953 4.6488,1.4527 7.5259,1.8 12.3732,1.474 1.4527,3.5008 2.3527,5.4496 4.0748,8.8016 4.252,8.2488 6.7535,13.1244 13.0748,19.9275 3.926,4.252 6.5764,6.2717 11.1756,9.7725 3.5008,2.6291 9.2764,6.2504 9.2764,6.2504 l 1.9488,1.3039 c -3.926,-0.5031 -6.1512,-0.9779 -9.9,-2.2252 -8.0504,-2.6291 -12.1961,-5.4779 -18.8504,-10.7008 -5.726,-4.5 -9.0496,-7.2496 -13.1244,-13.3299 -2.6504,-3.9189 -3.926,-6.3709 -5.4992,-10.8496 -0.6024,-1.722 -1.3465,-4.4717 -1.3465,-4.4717 0,0 -8.0787,-2.1755 -12.5008,-5.0031 -3.1252,-1.9984 -5.0244,-3.2244 -7.2992,-6.2008 -1.5024,-1.9984 -2.3811,-3.1961 -3.1039,-5.5984 -0.3756,-1.4244 -0.5457,-2.2748 -0.574,-3.7488 -0.05,-2.126 0.9283,-5.4 0.9283,-5.4 z m -28.9772,-21.1748 c 0,0 -2.7496,7.7244 -2.9267,12.8763 -0.326,9.0213 0.248,15.952 6.8527,22.1244 2.2465,2.1473 3.7984,3.1465 6.6473,4.4008 3.6992,9.4465 7.6535,18.0709 11.2252,23.4496 3.6,5.3717 13.3511,21.3237 18.8787,26.8229 5.5488,5.5488 13.0465,11.4023 17.2701,14.4992 4.2236,3.0756 7.3275,6.1795 9.0992,8.3055 1.8,2.0976 3.4016,6.0236 3.4016,6.0236 0,0 -3.2528,-2.3244 -5.3504,-3.7771 -4.174,-2.8489 -6.7252,-4.1528 -10.7717,-7.1504 -3.4795,-2.5512 -5.074,-3.9969 -8.6244,-6.9237 -2.3244,-1.8992 -4.9252,-3.3732 -7.6039,-1.8779 -2.2961,1.3039 -2.9481,3.5291 -2.7709,6.1512 0.4748,7.3771 1.7504,10.7008 3.7205,17.3267 3.2527,10.8993 7.9512,21.1465 11.8771,26.6741 3.926,5.5275 9.7725,12.6779 13.3512,17.8724 3.6,5.2512 5.074,8.8299 8.7733,14.1307 2.3244,3.3732 3.4015,5.5205 6.2503,8.4473 2.4024,2.4023 3.926,3.6212 6.7749,5.4496 -2.9268,-0.2977 -4.6276,-0.7512 -7.2993,-1.9489 -4.4787,-1.9984 -6.2007,-4.5992 -9.7228,-8.0007 -4.8047,-4.6276 -6.4276,-8.2489 -10.9559,-13.1528 -3.2457,-3.5504 -4.9252,-5.7472 -8.6457,-8.7945 -4.1244,-3.4512 -6.9236,-4.7764 -11.5299,-7.5047 -4.0464,-2.374 -6.6685,-3.0756 -10.5945,-5.6977 -3.2244,-2.1755 -5.074,-3.4015 -7.8023,-6.1724 -1.878,-1.9276 -2.9977,-3.0543 -4.3725,-5.3504 -1.1055,-1.8283 -1.6016,-2.9055 -2.3031,-4.9039 3.1252,3.3236 5.0244,5.074 8.6527,7.8236 2.9197,2.2535 4.3725,3.274 7.8733,5.2299 2.374,1.3252 4.5212,2.6008 7.0228,1.3252 1.3535,-0.652 1.9772,-1.4031 2.6787,-2.7283 1.8496,-3.4725 -1.2543,-6.4772 -3.3519,-9.5528 -5.0741,-7.2992 -9.3473,-11.3457 -12.0473,-20.0693 -1.6512,-5.3008 -2.0551,-8.5252 -2.1756,-14.074 -0.078,-2.9268 0.5953,-4.6063 0.2977,-7.5047 -0.5528,-5.4992 -3.4016,-7.9512 -5.2512,-13.174 -1.6512,-4.6772 -3.8481,-9.9213 -3.8481,-12.1961 0,-2.2819 0.326,-5.3787 0.326,-5.3787 l -7.1504,-20.7496 c 0,0 -1.7291,-0.7725 -2.7779,-1.3748 -2.5228,-1.5024 -3.7701,-2.6788 -5.726,-4.8756 -2.2748,-2.5725 -3.4724,-4.0748 -4.5992,-7.4977 -1.6512,-4.9252 -1.6512,-6.7252 -1.7221,-11.0267 -0.1275,-6.4985 1.8,-12.8481 5.6977,-16.2284 0.8008,-0.6732 3.2527,-1.2472 3.2527,-1.2472 z m -78.3283,388.148 c 0,0 -1.8496,-1.0205 -2.0197,-2.4732 -0.2268,-1.4244 5.4992,-1.878 9.1984,-2.2252 3.8764,-0.4252 6.3709,-1.0489 10.0205,0.4039 3.9047,1.4953 5.7543,3.6 7.9795,7.1433 1.1481,1.8567 2.2465,5.1307 2.2465,5.1307 0,0 9.4252,-3.0756 15.3496,-2.6787 5.9527,0.4252 13.3299,3.6496 16.5756,5.1236 3.3023,1.5024 3.5504,1.6299 4.6984,2.8276 0.7299,0.7511 0.7299,1.7007 0.3047,2.6504 -0.7015,1.5732 -1.8992,1.5023 -4.3795,0.6519 -2.4449,-0.8008 -3.1748,-1.4031 -5.322,-2.0267 -4.3016,-1.2756 -6.952,-1.2969 -11.452,-1.3536 -4.7197,-0.071 -7.4197,0.2764 -12.0756,1.1551 -2.4236,0.4252 -4.2449,0.3756 -6.1228,1.3961 -1.8213,1.0275 -2.7496,1.7787 -4.7268,1.8779 -1.7221,0.071 -3.6992,0.3969 -4.2945,-1.0488 -0.6307,-1.4244 -0.9779,-3.026 -1.8567,-4.8756 -1.3961,-3.0756 -1.9984,-5.1519 -4.5,-7.3771 -1.8496,-1.6512 -3.2457,-2.1756 -5.5205,-3.0756 -1.5519,-0.6236 -4.1031,-1.226 -4.1031,-1.226 z m 74.0055,44.1992 c 0,0 -2.6504,-0.3472 -4.0819,-1.2189 -1.5236,-1.0063 -2.1685,-2.0551 -2.9976,-3.5787 -0.8008,-1.552 -1.4457,-4.0961 -1.226,-6.7748 0.2551,-2.5229 0.8504,-3.9969 2.2748,-6.1229 1.3535,-2.0551 2.3031,-3.3732 4.5779,-4.3015 1.9772,-0.8008 4.0252,-0.326 5.4497,-0.4252 1.4244,-0.078 2.0763,-0.1276 2.8488,-0.9993 1.1976,-1.3748 -0.4961,-2.7992 -0.3969,-4.6275 0.2693,-4.7197 1.7717,-7.774 5.3221,-10.9488 1.9984,-1.8 3.4724,-2.5229 6.0236,-3.3733 3.2031,-1.0488 5.3291,-1.5236 8.6031,-0.7015 3.7985,0.9 5.5985,2.8275 8.1709,5.7472 2.5795,2.9551 3.1039,8.4756 4.6276,8.8795 1.5236,0.3969 4.5779,0.1489 6.2008,2.1473 1.1976,1.5023 1.3464,3.6779 1.2755,4.826 -0.099,1.1267 -0.099,2.0267 -0.099,2.0267 0,0 -2.3244,0.9709 -3.9047,1.2473 -1.2189,0.1984 -1.9205,0.248 -3.1748,0.1984 -0.9709,-0.05 -2.4449,-0.3189 -2.4449,-0.3189 0,0 -3.2527,2.7213 -5.6268,3.9969 -1.7503,0.9283 -2.8275,1.3748 -4.6984,1.9771 -2.8488,0.6236 -4.4787,0.8504 -7.4055,0.9709 -4.5,0.2551 -9.5953,-0.9 -11.5441,-0.9992 -1.9559,-0.099 -2.0551,0.1984 -3.3803,0.4252 -1.2968,0.6732 -2.048,1.3039 -2.8701,2.4236 -0.8008,1.1268 -1.3252,2.9764 -1.6299,4.2024 -0.2976,1.2259 -0.5244,2.1472 0,2.9763 0.5032,0.8221 0.9283,1.1268 0.9283,1.6229 0,0.5244 -0.822,0.7228 -0.822,0.7228 z m 153.9496,-59.074 c 1.8213,0.7299 5.7685,2.5299 7.2213,2.5299 1.4527,0 3.5008,-1.0772 3.5008,-1.0772 0,0 1.8,-3.8267 4.3228,-5.4283 2.5299,-1.6228 6.6756,-3.2457 12.1039,-4.8756 5.4,-1.6228 13.6985,-2.8984 18.3969,-3.2457 4.6984,-0.3543 16.5047,-1.0771 20.4519,-1.6228 3.9756,-0.5528 7.7741,-1.0772 7.7741,-1.0772 l -0.1985,-1.2756 c 0,0 -7.6252,0.1772 -15.9236,0 -8.3268,-0.1771 -21.4795,-1.0771 -24.9023,-1.9771 -3.4229,-0.9213 -5.5985,-0.9213 -7.5756,-1.9984 -1.9985,-1.0772 -3.7985,-1.9772 -4.6985,-2.8772 -0.9,-0.9 -2.5228,-1.9984 -2.5228,-1.9984 0,0 -7.1008,7.0511 -9.8008,9.3756 -2.7283,2.374 -4.8756,4.6984 -7.4268,5.2511 -2.5228,0.5244 -5.4,0.1772 -6.6543,0.7229 -1.2685,0.5527 4.1315,8.8512 5.9315,9.574 z m -270.6307,13.5496 c 1.2047,1.7008 2.0268,3.1535 3.5787,3.9756 1.5237,0.8291 5.3221,1.9488 8.5748,2.7496 3.3024,0.8504 5.4993,1.5803 5.4993,1.5803 0,0 1.722,-2.4803 3.7488,-3.8055 2.048,-1.3252 3.4512,-1.8 5.8252,-2.048 3.2031,-0.3473 5.6267,-0.4748 8.0504,1.6228 1.6511,1.4031 2.4236,2.6291 2.7992,4.7268 0.4748,2.7 -0.3969,4.5496 -2.0481,6.7748 -3.0259,4.0748 -7.6748,4.1244 -12.5503,3.4015 -4.9252,-0.7511 -7.5969,-1.9275 -12.2245,-3.848 -1.8779,-0.7795 -3.6779,-1.8283 -4.7267,-2.126 -0.9992,-0.326 -1.5237,-0.326 -2.126,0.8008 -0.6236,1.1197 -1.4457,2.7496 -0.7228,4.5 0.7228,1.7504 2.7496,3.6709 4.7976,4.2945 2.0551,0.6024 4.8756,1.226 7.6748,1.4315 2.7992,0.2197 5.4496,0.8221 6.874,1.4457 1.4528,0.6023 11.778,4.3795 16.1787,5.4992 4.4008,1.1268 18.2977,2.9764 24.2221,3.8764 5.9528,0.9496 10.1551,2.1259 16.7244,2.4732 2.4307,0.1276 4.4008,0.4252 6.2291,0.099 1.8496,-0.3189 2.7709,-0.3968 2.7709,-0.3968 0,0 4.3016,1.6015 6.7535,3.6779 2.452,2.0976 3.5717,4.3228 5.6268,5.7473 2.0481,1.4527 18.2693,10.7716 20.2465,12.274 1.9984,1.5519 6.1795,6.4488 8.2984,8.1 2.1756,1.6228 4.6276,3.6779 5.1307,3.6779 0.5244,0 7.1717,-1.3252 9.5244,-2.4519 2.3457,-1.1268 6.0236,-2.6788 6.6473,-3.6 0.6023,-0.9 0.8008,-1.1977 0.1984,-2.2252 -0.6236,-1.0276 -1.7221,-0.9284 -3.0756,-2.5512 -1.3252,-1.6512 -1.8213,-2.452 -2.5441,-3.6992 -0.7299,-1.226 -1.6512,-2.5512 -2.8772,-3.6993 -1.2259,-1.0984 -3.5787,-1.4031 -4.5992,-2.4236 -0.9992,-1.0275 -1.5236,-1.1267 -1.226,-2.6787 0.2977,-1.5236 0.2977,-2.2465 1.7504,-2.4449 1.4244,-0.2055 2.5512,0.7228 4.5992,1.4457 2.0481,0.7015 3.7772,1.4244 5.8252,1.4244 2.0481,0 1.3252,0.099 4.2024,-0.326 2.8488,-0.3969 5.9244,-0.9 6.9449,-1.1976 1.0275,-0.326 3.3803,-1.9276 4.3016,-2.8772 0.9,-0.9709 3.9756,-2.7992 5.1023,-3.7205 1.1197,-0.9283 6.6969,-4.2023 7.8236,-4.7055 1.1268,-0.5244 1.8,-0.7937 2.5512,-1.7433 0.9992,-1.3039 1.1268,-2.6504 0.9213,-4.0748 -0.1984,-1.4315 -1.3465,-3.9047 -2.4449,-5.9528 -1.1268,-2.048 -2.2535,-2.4519 -1.3535,-4.5 0.9283,-2.048 2.5511,-4.4007 3.6,-5.2015 1.0275,-0.8221 3.8763,-2.8772 3.8763,-2.8772 0,0 -6.1228,-4.8968 -7.0511,-6.9449 -0.9213,-2.0551 -3.3237,-6.7535 -3.3237,-8.9008 0,-2.1543 -0.3756,-7.1008 0.2481,-9.6519 0.6236,-2.5512 3.1748,-5.9244 6.0519,-9.0992 2.8489,-3.1748 5.3008,-5.6268 5.6268,-6.8528 0.2976,-1.2472 0.5953,-3.8976 0.4961,-5.8252 -0.099,-1.9488 -0.099,-4.0961 0.5031,-5.4213 0.6236,-1.3252 1.9984,-2.948 1.7717,-4.3724 -0.1984,-1.4315 -2.5229,-4.1811 -3.1748,-4.6559 -0.652,-0.4961 -2.5229,-1.1197 -3.2244,-1.6724 -0.6733,-0.5245 -1.7717,-1.8284 -1.9489,-2.0764 -0.1771,-0.2481 -4.5496,-0.9992 -7.6535,-1.6512 -3.0968,-0.6732 -6.2504,-0.9496 -10.4457,-1.0488 -4.2023,-0.099 -10.4527,0.099 -13.5,1.2543 -3.0756,1.1197 -6.548,3.3732 -9.5244,4.6701 -2.9551,1.3535 -2.3527,2.0764 -6.4488,1.6512 -4.1031,-0.3969 -1.5307,-0.6024 -6.4559,-0.8221 -4.8969,-0.2055 -12.8693,0 -21.274,2.7709 -8.3977,2.7779 -10.9488,4.2023 -15.4488,6.052 -4.5,1.8283 -6.2504,2.948 -6.9733,4.2732 -0.7228,1.3535 -0.8008,2.374 -0.8008,2.374 0,0 -3.6,-0.3969 -4.0039,-1.4244 -0.4181,-1.0488 -1.2189,-2.5725 -0.3189,-3.9969 0.9213,-1.4244 3.6,-4.3015 5.4496,-5.5488 1.8213,-1.226 4.3725,-2.9551 4.3725,-5.4 0,-2.4803 -1.3252,-14.3291 -2.8489,-17.6244 -1.5236,-3.2527 -5.1236,-10.5307 -7.6748,-12.6779 -2.5795,-2.1473 -3.3732,-2.3528 -5.0244,-3.2528 -1.6299,-0.9496 -4.6984,-1.6441 -4.6984,-1.6441 0,0 1.3252,5.4 1.7433,8.5748 0.4039,3.1748 -0.4181,14.9457 -0.2976,17.6244 0.078,2.6504 0.9,6.4205 1.1976,6.9449 0.3047,0.5032 -0.7937,1.226 -1.5236,1.226 -0.7228,0 -2.3457,-1.1197 -3.3732,-3.9756 -1.0276,-2.8984 -1.2473,-8.1992 -2.0481,-12.8976 -0.8291,-4.7268 -3.6,-11.5725 -6.3496,-15.1512 -2.7779,-3.6 -9.8291,-7.4764 -13.3016,-9.0213 -3.4724,-1.5307 -9.5244,-4.5992 -11.048,-6.1299 -1.552,-1.5449 -4.5992,-3.8976 -6.7535,-5.648 -2.1473,-1.7221 -4.826,-5.1024 -4.826,-5.1024 0,0 1.7504,9.9283 4.0039,13.7268 2.2465,3.7771 6.0236,8.3764 9.0992,10.226 3.0756,1.8283 6.3709,6.548 7.3772,9.1984 1.0205,2.6787 2.5441,12.5008 1.6441,16.6039 -0.9213,4.0961 -2.374,9 -5.0244,10.8213 -2.6504,1.8496 -3.4725,0.8291 -7.774,4.7268 -4.3229,3.8976 -6.874,6.4275 -8.0717,7.6748 -1.2543,1.2259 -2.6787,2.3527 -3.8055,2.7496 -1.1197,0.4252 -4.8968,0.6236 -5.8252,1.3535 -0.9212,0.6945 -1.8496,1.8496 -1.6441,2.6433 0.1984,0.8291 0.1984,1.5307 1.9205,2.1543 1.7504,0.6237 5.8535,1.5237 8.4047,1.4245 2.5725,-0.099 4.5496,0.021 7.3701,-0.5032 2.7496,-0.5457 3.4512,-0.5457 6.874,-2.1472 1.5803,-0.7512 2.6504,-2.1473 3.5787,-2.778 0.9,-0.5953 3.9969,-0.2976 5.4213,0.6307 1.4315,0.9213 4.1528,2.6717 5.0032,5.4213 0.8007,2.4519 0.7724,4.3228 -0.5032,6.548 -1.6724,2.9055 -4.5496,2.7496 -7.774,3.7063 -4.4221,1.2685 -7.9228,0.9496 -11.8205,0.7441 -3.8764,-0.1984 -6.0307,-0.6236 -9.7795,-1.4953 -5.0457,-1.1267 -9.326,-2.7496 -12.6,-4.174 -3.274,-1.4315 -6.548,-3.4016 -8.0504,-3.9047 -1.5449,-0.4961 -3.9189,0 -4.5213,1.226 -0.6236,1.2472 0.1772,7.2779 1.1268,11.7779 1.0488,4.9748 1.3465,8.1496 4.2945,12.2953 z m 32.1803,-766.5732 c 0.5244,0 5.0244,1.5023 6.3496,2.6787 1.3252,1.1693 2.5229,0.6945 1.6512,2.5228 -0.8291,1.8213 -1.8283,2.3245 -1.6512,3.8268 0.1701,1.4953 8.3197,35.6953 10.1693,49.4008 1.8567,13.6984 9.0284,42.7181 9.3756,48.8693 0.326,6.2008 0.8291,10.7008 0.652,12.5504 -0.1488,1.8283 0.1771,3.1748 -0.8221,4.174 -1.0275,0.978 -4.8543,2.6504 -5.8535,4.1244 -0.9992,1.5307 -1.6725,1.6795 -1.1764,3.026 0.5032,1.3252 0.6803,2.0055 0.6803,2.0055 0,0 -2.3527,0.6449 -2.5016,3.1748 -0.1771,2.4945 0.4961,5.6693 -0.3543,7.1717 -0.822,1.5023 -3.3236,5.4992 -2.8488,7.1787 0.5244,1.6724 3.8764,5.8465 5.8535,6.0236 2.0268,0.1701 2.6717,-1.0275 5.6764,0.1701 3.0189,1.1551 7.0228,4.1811 8.3693,5.152 1.3252,0.9992 3.3307,3.1748 2.8276,4.5283 -0.4961,1.3252 -0.3473,2.4945 -1.1764,2.3244 -0.8221,-0.1488 -4.174,-3.0047 -6.8457,-4.5 -2.6504,-1.5023 -5.8252,-2.1756 -10.6795,-2.3527 -4.8473,-0.1488 -10.0205,0.9992 -11.1756,2.3527 -1.1693,1.3252 -0.9992,2.9977 -0.9992,4.174 0,1.1481 0.326,1.3252 0.326,1.3252 0,0 5.6763,2.1756 7.0015,2.9977 1.3465,0.8504 5.5276,3.8764 6.8528,4.3512 1.3465,0.5031 4.6701,1.6724 4.6701,1.6724 0,0 1.1764,1.8 0.6732,3.0047 -0.4961,1.1481 -0.9496,4.0465 -0.822,6.6473 0.1984,4.6488 2.9763,9.6732 3.9968,11.2039 1.0063,1.4953 5.6551,7.4976 6.8528,8.1709 1.1763,0.6732 2.1756,0.9992 2.1756,0.9992 0,0 0.1275,-1.6725 0.6236,-2.9977 0.5031,-1.3535 0.9992,-2.5015 0.9992,-3.1748 l 0,-1.3535 c 0,0 8.8512,-4.5 9.7016,-6.1724 0.8291,-1.6512 4.1527,-7.852 4.5,-8.8512 0.326,-0.9992 0.5031,-1.6512 0.5031,-1.6512 0,0 0.8221,1.1764 2.1756,0.9992 1.3252,-0.1701 3.6709,-2.1685 3.6709,-2.1685 0,0 1.3252,7.8449 -2.3457,13.0252 -3.6779,5.1732 -10.1764,11.8488 -9.5031,19.5236 0.6732,7.6748 5.322,35.3764 6.8244,41.0457 1.5023,5.6764 1.6724,12.2031 2.3527,13.7055 0.6732,1.4953 -0.326,1.8213 1.4953,1.4953 1.8283,-0.326 13.2024,-5.1732 14.8748,-6.1725 1.6512,-0.9992 5.8535,-2.6787 6.5055,-4.174 0.6449,-1.5023 2.3244,-6.1795 1.148,-10.5236 -1.148,-4.3299 -3.6779,-24.8528 -3.6779,-28.0276 0,-3.1748 -0.1488,-7.0015 -0.326,-9.5244 -0.1488,-2.5015 -0.1488,-7.8519 -0.1488,-7.8519 0,0 8.3764,20.0763 10.9984,24.9023 2.6504,4.7977 7.6819,18.326 7.6819,19.6512 0,1.3465 0.1701,2.5228 0.1701,2.5228 0,0 12.3236,-7.6748 12.848,-8.5252 0.5032,-0.822 0.978,-5.322 0,-6.6755 -0.9992,-1.3252 -8.6953,-13.5 -9.1984,-15.6756 -0.4961,-2.1473 -7.3488,-20.5229 -8.4969,-23.8465 -1.148,-3.352 -3.0047,-7.0299 -3.9756,-9.0283 -0.9992,-2.0268 -2.0267,-3.678 -2.0267,-3.678 0,0 -2.8205,2.5016 -4.3512,4.3299 -1.4953,1.8496 -3.5008,4.6701 -3.6496,5.1733 -0.1701,0.5244 -2.0197,2.0267 -2.0197,2.0267 0,0 -1.4811,-2.5299 -1.3252,-4.0252 0.1701,-1.5023 0.4961,-3.3732 3.6709,-10.6795 3.1748,-7.3205 5.6763,-11.6716 5.6763,-13.6701 0,-1.9984 0.6733,-2.8275 -0.6732,-3.6779 -1.3252,-0.8221 -1.6795,-1.9984 -1.6795,-4.1457 0,-2.2039 -0.1488,-9.8504 -3.3236,-14.2016 -3.1748,-4.3511 -13.8473,-15.9023 -15.2008,-17.5535 -1.3252,-1.6228 -2.8205,-3.6496 -2.9977,-5.1449 -0.1771,-1.5024 0.9993,-0.8291 1.6725,-2.0055 0.652,-1.1693 1.1551,-1.4953 1.1551,-1.4953 0,0 -7.3276,-17.7023 -9,-23.0527 -1.6795,-5.3221 -7.3559,-26.6741 -7.6748,-31.5213 -0.3543,-4.8543 -1.6795,-19.5307 -1.8567,-22.2024 -0.1488,-2.6787 -4.174,-20.1755 -3.9968,-22.5283 0.1488,-2.3244 0.1488,-4.9961 1.5023,-6.9945 1.3465,-2.0055 0.6732,-1.6795 3.3449,-3.1748 2.6787,-1.5307 7.6748,-2.5016 8.5039,-3.352 0.8504,-0.8291 3.6709,-3.848 3.8481,-5.4992 0.1771,-1.6795 0.8291,-10.0275 0,-12.026 -0.8221,-1.9984 -1.9985,-5.6763 -3.6709,-7.1787 -1.6795,-1.5236 -3.5008,-3.3449 -6.6756,-3.5008 -3.1748,-0.1701 -3.5008,-0.4961 -4.6772,1.5024 -1.1763,1.9984 -2.0267,2.8275 -2.1755,5.1732 -0.1772,2.3244 -0.1772,3.3307 0.1488,3.8551 0.3543,0.4748 0.1771,1.1481 1.6795,0.1488 1.5236,-0.9992 2.5228,-1.8283 3.848,-0.9992 1.3252,0.8504 2.9977,1.6725 2.3244,3.1748 -0.6519,1.4953 -0.4748,1.6512 -1.6511,1.9985 -1.1764,0.3259 -1.8496,-1.1764 -2.1756,0.822 -0.326,2.0055 0.326,3.026 -0.326,4.1811 -0.6732,1.1693 -2.0197,2.8488 -3.3449,2.8488 -1.3252,0 -7.0016,-1.8496 -8.8299,-3.8267 -1.8496,-2.0268 -3.5008,-3.8481 -3.848,-6.378 -0.326,-2.4945 -0.1489,-6.8244 -1.6725,-8.8441 -1.5023,-2.0055 -14.4992,-8.8299 -17.6811,-8.3551 -3.1748,0.5244 -8.022,2.3527 -11.374,6.2008 -3.3236,3.8267 -5.6693,6.8244 -5.6693,8.674 0,1.8283 2.1685,5.1803 3.848,7.0016 1.6725,1.8496 5.6764,3.1748 5.6764,3.1748 z M 2231.43,848.0959 c 0,0 20.7,22.0748 26.4755,31.9465 5.7969,9.9 30.4229,71.1496 34.1008,82.7504 3.6709,11.5795 6.0237,15.2504 10.474,20.374 4.4221,5.1024 20.4237,36.7016 21.1252,46.2543 0.7016,9.5457 -0.7015,21.4725 -1.3748,24.2008 -0.6732,2.7213 -0.6732,4.0961 -0.6732,4.0961 0,0 4.7693,-4.7764 5.7969,-9.9 1.0275,-5.0953 4.4504,-42.1725 3.7488,-51.6969 -0.6732,-9.5527 -3.4016,-21.4015 -2.7213,-27.5244 0.6732,-6.1299 4.0961,-22.5 4.7693,-28.9771 0.6803,-6.4772 1.3819,-30.926 1.3819,-36.0496 0,-5.1024 0.3189,-8.5252 0.3189,-8.5252 0,0 -1.0205,-1.7008 -5.0953,0 -4.1031,1.7007 -6.8527,5.8252 -6.8527,5.8252 0,0 -0.2977,-4.7764 1.4031,-8.2276 1.6725,-3.3732 3.3945,-6.7748 9.1701,-9.1701 5.8252,-2.4023 5.8252,-1.7008 8.1992,-3.0756 2.3811,-1.3748 9.8008,-13.8756 18.652,-24.4488 8.8795,-10.5803 9.1984,-13.3016 15.0023,-16.3772 5.7969,-3.0756 6.7961,-3.3732 10.226,-5.7756 3.3945,-2.374 19.3465,-14.9244 23.4496,-17.6244 4.0748,-2.7496 8.1709,-4.7763 9.1985,-9.574 1.0275,-4.7551 1.7007,-34.6748 2.0267,-44.8795 0.3473,-10.226 3.7488,-50.0244 3.7488,-57.5221 0,-7.4976 -1.3748,-10.5732 1.3748,-15.3283 2.7213,-4.7693 7.4977,-9.9 10.8993,-11.948 3.4228,-2.0268 7.1787,-1.3465 10.5732,-4.0748 3.4016,-2.7213 11.5016,-16.2709 11.5016,-19.7008 0,-3.4016 1.7008,-4.7764 -1.3748,-8.8512 -3.0756,-4.0961 -2.9764,-6.1228 -6.378,-5.0953 -3.3945,0.9992 -6.4701,3.3733 -5.1236,5.4496 1.3748,2.0268 2.0551,3.7205 2.0551,5.0953 0,1.3748 -0.326,4.4291 -3.4016,4.7764 -3.0756,0.326 -6.8244,0 -10.5732,-5.4709 -3.7559,-5.4496 -6.4772,-16.3275 -8.5252,-18.7299 -2.0551,-2.374 -14.3008,-9.1984 -19.0772,-11.2465 -4.7976,-2.048 -9.8007,-4.0748 -12.5291,-2.7283 -2.7213,1.3535 -4.4504,3.7488 -3.7488,7.8307 0.6803,4.0961 3.8268,8.1992 7.5047,10.9205 3.6496,2.7283 7.7457,5.8039 7.7457,9.1984 0,3.4016 -4.6701,58.6276 -5.3717,64.6795 -0.6803,6.0449 -5.4496,47.7 -8.8512,53.426 -3.4228,5.6976 -8.5535,17.2984 -14.0031,20.0197 -5.4213,2.7283 -10.5449,3.4016 -12.926,4.7764 -2.3953,1.3535 -3.0685,4.748 -1.0205,7.4976 2.0481,2.7 5.1024,4.0819 5.1024,6.4772 0,2.374 -1.0276,3.7275 -2.7,3.4016 -1.7291,-0.3473 -7.1787,-5.1237 -9.5528,-8.5252 -2.4023,-3.4016 -4.174,-6.4772 -8.1992,-8.8512 -4.0039,-2.4024 -5.7047,-3.7772 -9.4535,-4.0961 -3.7488,-0.3543 -6.1228,0 -6.1228,0 0,0 0.3259,12.9473 2.374,17.3976 2.0267,4.4008 4.4291,8.1497 6.4771,11.2252 2.0481,3.0756 5.1237,6.1512 5.1237,6.1512 0,0 0.3259,1.8496 -2.4024,0.9213 -2.7213,-0.9213 -10.8992,-5.6977 -12.9472,-9.4465 -2.0481,-3.7771 -4.1032,-9.9 -5.7969,-12.9543 -1.7291,-3.0756 -6.8031,-13.9748 -6.8031,-13.9748 0,0 -26.178,31.9535 -28.552,37.4031 -2.3953,5.4497 -6.8244,15.3497 -7.1504,18.3969 -0.3756,3.0756 0,5.1307 0,5.1307 0,0 15.5764,-2.4024 18.9992,-3.4016 3.4016,-1.0488 9.5244,-3.1039 9.5244,-3.1039 0,0 -6.4701,7.5047 -8.5181,10.5803 -2.0551,3.0685 -5.2016,7.4976 -7.1504,10.2189 -1.9559,2.7284 -4.6772,7.1787 -4.6772,7.1787 0,0 0.3473,-5.1236 0.3473,-8.1779 0,-3.0969 0.326,-5.4709 0.326,-5.4709 0,0 -2.7213,-0.6803 -5.1237,1.3748 -2.374,2.0268 -10.8992,9.8717 -12.6,10.5449 -1.7007,0.7016 -5.4496,4.8047 -9.1984,4.8047 l -8.5252,0 c -2.0551,0 -2.7283,-0.7015 -2.7283,-0.7015 0,0 6.1299,-4.4221 9.8787,-8.178 3.7488,-3.7488 11.6008,-7.1716 11.6008,-9.9 0,-2.7213 0.9992,-9.1701 0.6732,-13.2732 -0.3543,-4.0961 -1.0275,-9.5457 -1.0275,-9.5457 0,0 -13.3016,4.4221 -17.3764,4.4221 -4.0961,0 -20.0197,4.1031 -24.4488,4.7763 -4.4504,0.7016 -9.2268,1.7008 -9.2268,4.0748 0,2.4024 4.4504,6.1512 4.4504,6.1512 l 4.1032,2.374 z"
         inkscape:connector-curvature="0" />
      <path
         id="path3036"
         style="fill:#ed1c24;fill-opacity:1;fill-rule:evenodd;stroke:none"
         d="m 1897.4591,1430.5802 c 0,0 1.8283,5.2016 -2.1969,8.3976 -4.0039,3.2032 -21.0047,10.9985 -23.8039,12.4299 -2.7992,1.3749 -5.2016,3.1961 -7.2,3.9969 -1.9984,0.8008 -5.5772,2.4024 -7.2,2.4024 -1.5732,0 -5.2016,-1.0276 -6.2008,-1.4032 -0.9992,-0.4252 -1.1976,-0.4252 -1.1976,-2.0268 0,-1.5944 0.6023,-4.174 0.3968,-5.7968 -0.1984,-1.6016 -1.1976,-2.374 -0.3968,-3.2032 0.8008,-0.8007 7.2,-1.9984 11.4023,-4.7976 4.1953,-2.7992 7.3985,-5.0031 9,-7.0016 1.5945,-1.9984 2.7992,-2.3952 3.6,-4.996 0.8008,-2.6008 0.5953,-3.8055 1.5945,-4.8048 1.0063,-0.9992 1.2047,-1.8 5.4,-2.3952 4.2307,-0.6024 6.2008,0.2196 8.8299,1.1976 2.6008,0.9992 4.7764,2.7992 5.7756,3.9969 0.9992,1.2047 2.1969,4.0039 2.1969,4.0039 z m -43.3984,36.6024 c 0,0 10.8,4.3937 20.1968,4.996 9.4039,0.6236 21.8055,-0.1984 26.4047,-1.9984 4.6205,-1.8 15.4205,-6.5976 18.5953,-9.9992 3.2032,-3.4016 7.6039,-8.1992 9.4252,-9.8008 1.7787,-1.6016 4.9748,-5.8039 5.3787,-7.2 0.3969,-1.4032 1.6016,-2.4024 0,-2.9976 -1.6015,-0.6024 -4.8047,-1.2048 -7.3984,-1.2048 -2.6008,0 -5.4,-0.9992 -8.0008,-1.8 -2.5795,-0.8008 -5.0031,-1.1976 -5.0031,-1.1976 0,0 -18.1984,11.6008 -25.1717,15.2008 -7.0299,3.6 -12.2244,8.0008 -16.6252,9.8008 -4.4008,1.8 -7.0015,2.8204 -9.4039,3.6 -2.3953,0.8008 -8.3976,2.6008 -8.3976,2.6008 z m -3.9756,17.27 c -6.9024,2.2748 -10.7221,3.9756 -17.0221,7.604 -6.6543,3.8197 -15.0803,10.7716 -15.9023,11.6008 -0.8292,0.7937 2.7,3.2456 2.7,3.2456 l 15.1724,7.2496 c 6.3283,3.0544 12.2244,-0.9992 17.674,-3.4512 6.2504,-2.7708 8.9504,-4.1952 14.4496,-7.3204 2.9764,-1.7008 7.1292,-3.926 7.526,-4.5496 0,0 -6.7252,-4.5496 -11.0764,-7.3985 -3.0968,-2.0267 -4.7197,-3.3519 -7.9937,-5.1307 -1.4315,-0.7724 -2.8559,-1.8496 -3.6779,-1.8496 -0.8221,0 -1.1268,-0.099 -1.8496,0 z m -2.7496,35.752 c 0,0 5.4496,-0.9283 8.9008,-1.8 5.4212,-1.3748 8.348,-2.6008 13.5212,-4.7268 3.6284,-1.4456 5.726,-2.1968 9.1488,-4.096 3.0048,-1.63 7.3772,-4.7055 7.3772,-4.7055 0,0 7.852,4.4007 13.0252,6.9519 5.726,2.7992 14.9527,6.6756 14.9527,6.6756 0,0 -7.5543,3.2032 -12.4015,5.2228 -6.0236,2.53 -9.0284,4.0252 -15.4985,6.378 -3.5007,1.2968 -4.8259,2.778 -8.1779,2.5724 -2.5016,-0.099 -3.7205,-1.0984 -6.1016,-1.9204 -5.6693,-1.9772 -8.6456,-3.678 -14.1945,-6.0237 -4.1244,-1.7787 -10.5519,-4.5283 -10.5519,-4.5283 z m 43.3488,16.3772 c 0,0 11.3244,-2.9055 18.3968,-5.4284 6.4063,-2.2464 10.226,-3.274 16.1504,-6.5976 1.1055,-0.6024 2.8063,-1.6229 2.8063,-1.6229 0,0 7.8945,2.5229 13.0465,3.8197 3.9756,1.0276 10.226,2.374 10.226,2.374 0,0 -4.6276,3.2245 -7.7032,5.0811 -6.3708,3.8197 -10.148,5.8465 -17.1212,8.3977 -2.0268,0.7228 -5.2016,1.722 -5.2016,1.722 0,0 -9.1772,-2.4945 -15.1016,-3.8763 -3.4228,-0.7937 -5.4,-1.0205 -8.8228,-1.9489 -2.6221,-0.6732 -6.6756,-1.9204 -6.6756,-1.9204 z m 47.6504,10.2756 c 0,0 23.1236,3.1252 25.1716,3.1252 2.0551,0 7.1008,0.7937 7.1008,0.7937 0,0 2.126,-1.5449 3.5008,-2.5441 3.0543,-2.2536 5.7047,-4.2024 7.774,-5.8252 2.0551,-1.6512 8.4544,-6.9804 8.4544,-6.9804 0,0 -9,-1.4244 -12.9048,-2.048 -3.8693,-0.6236 -13.5212,-1.8992 -13.5212,-1.8992 0,0 -5.4284,4.6984 -9.2268,7.2283 -5.9457,3.9473 -16.3488,8.1497 -16.3488,8.1497 z m 54,-1.7788 -8.7024,6.4772 c 0,0 10.8284,0.6519 13.9252,0.8504 3.0047,0.1984 10.1764,0.6732 10.1764,0.6732 0,0 2.8275,-2.2748 5.4992,-4.5283 2.6787,-2.2465 14.1024,-11.1473 14.1024,-11.1473 l -8.2772,0 c -4.0961,0 -6.5764,-0.3968 -9.4465,-0.3968 -2.8488,0 -6.4275,-0.5741 -6.4275,-0.5741 0,0 -4.5,3.4937 -5.726,4.7481 -1.2472,1.226 -5.1236,3.8976 -5.1236,3.8976 z m 24.8031,9.5244 c 0,0 9.3969,-4.996 14.1449,-9.7512 2.7496,-2.7496 6.2787,-7.774 6.2787,-7.774 l 1.4245,-1.8496 c 0,0 10.6511,0 14.974,-0.2268 4.3015,-0.1984 7.9724,-0.1984 9.4252,-0.5952 1.4527,-0.404 2.048,0.1984 2.048,0.1984 0,0 -6.6968,7.6465 -9.3472,11.0268 -2.204,2.7496 -5.478,5.4708 -9.2764,8.6456 -5.3008,0.2552 -9.6732,0.4252 -13.578,0.4252 -3.8976,0 -16.0937,-0.099 -16.0937,-0.099 z m 44.3197,-1.6228 c 0,0 5.2795,-5.074 7.1291,-7.1504 1.8497,-2.048 3.4725,-4.7976 4.2945,-6.2221 0.8292,-1.4314 3.6567,-4.7551 3.6567,-4.7551 0,0 11.9693,-2.8984 15.2433,-3.522 3.3024,-0.6236 9.4536,-1.4528 9.4536,-1.4528 0,0 -2.0977,6.8244 -3.5221,9.3048 -1.4527,2.4448 -2.6291,4.8472 -4.6771,6.8952 -2.0764,2.0764 -3.8977,3.6992 -3.8977,3.6992 0,0 -4.1031,0.8788 -6.7748,1.2544 -3.5787,0.4748 -5.6551,0.326 -9.2551,0.6236 -4.5496,0.4252 -11.6504,1.3252 -11.6504,1.3252 z m 46.1551,-10.5732 c 0,0 2.6504,-5.1307 3.6709,-7.1788 1.0276,-2.048 2.8488,-8.0008 2.8488,-8.0008 0,0 16.8307,-3.6992 19.7008,-3.8976 2.8488,-0.1984 8.7236,-2.048 8.7236,-2.048 l 1.8496,-0.6024 c 0,0 -1.6724,8.5748 -3.6496,13.7764 -0.7937,2.0764 -2.2252,5.2016 -2.2252,5.2016 0,0 -4.996,1.2968 -11.3456,2.948 -6.3496,1.6228 -9.978,2.1756 -12.2032,2.5724 -2.2464,0.4252 -10.3464,2.2252 -10.3464,2.2252 l 2.9763,-4.996 z m 44.3481,-5.7756 c 0,0 2.4023,-5.8536 3.0968,-9.8292 0.5032,-2.7496 0.6236,-7.1504 0.6236,-7.1504 0,0 16.4055,-4.9252 18.0567,-5.5488 1.6229,-0.5953 3.6709,-1.6512 3.6709,-1.6512 0,0 -0.3969,6.052 -0.6024,8.426 -0.2976,3.3733 -1.8496,7.8024 -1.8496,7.8024 0,0 -5.5488,1.6228 -8.8228,3.0472 -3.274,1.4528 -14.1732,4.904 -14.1732,4.904 z m 32.2724,-10.8284 c 0,0 2.3032,-6.3496 1.8283,-10.474 -0.1984,-1.7008 -1.0275,-4.3016 -1.0275,-4.3016 0,0 5.0527,-1.8496 6.6756,-2.048 1.6512,-0.1984 8.1992,-2.452 8.1992,-2.452 l 2.2535,-1.0488 c 0,0 0.7725,1.8496 1.0205,4.3016 0.3047,2.7709 0.5032,4.5212 0.078,6.952 -0.2481,1.3748 -0.652,2.6504 -0.652,2.6504 l -13.8969,4.5708 -4.4787,1.8496 z m 28.7504,-9.9496 c 0,0 0.078,-2.948 0.1276,-4.826 0.05,-1.148 0.1204,-1.7716 0.099,-2.8984 -0.05,-1.8496 -0.6733,-4.6488 -0.6733,-4.6488 0,0 10.4244,-3.1252 13.0748,-3.5504 2.6717,-0.3969 4.7197,-1.3535 4.7197,-1.3535 0,0 0.404,2.5795 0.404,4.2307 0.071,3.2456 -1.1481,8.1708 -1.1481,8.1708 0,0 -1.4031,-0.326 -4.8756,1.1268 -3.5007,1.4244 -6.2007,1.7717 -6.2007,1.7717 l -5.5276,1.9771 z m 27.4535,-7.4764 c 0,0 1.0701,-3.848 1.1197,-6.3708 0.05,-2.2748 -0.7228,-5.8536 -0.7228,-5.8536 0,0 9.326,-2.2464 10.9772,-2.8488 1.6228,-0.6236 7.37,-1.6512 7.37,-1.6512 0,0 0.2055,4.8048 0,6.5551 -0.1984,1.7717 -0.4181,6.5977 -0.4181,6.5977 0,0 -6.7535,1.5236 -9.6023,1.9275 -2.8772,0.4182 -8.7237,1.6441 -8.7237,1.6441 z m 26.8229,-6.9732 c 0,0 0,-3.4016 0.1984,-5.0527 0.1984,-1.6441 0,-3.6993 0,-4.2945 0,-0.6237 -0.1984,-1.4528 -0.1984,-1.4528 0,0 10.0275,-2.048 12.3023,-2.2464 2.2465,-0.2268 5.9457,-0.6308 6.5481,-0.6308 0.6236,0 1.0488,1.226 1.0488,2.4804 0,1.2259 -0.5528,3.1252 -0.6236,5.1236 -0.078,1.8 0.071,4.5992 0.071,4.5992 0,0 -6.8456,0.8504 -9.3189,0.8504 -2.4519,0 -10.0275,2.048 -10.0275,2.048 l 0,-1.4244 z m 27.0992,-2.3527 c 0,0 0.6732,-4.7481 0.6732,-5.7685 l 0,-3.9048 -0.2976,-1.2472 c 0,0 5.2512,0.2268 8.922,0.2268 3.7063,0 6.1512,0.5952 7.1788,0.822 1.0275,0.1984 2.4519,0.6236 2.4519,0.6236 0,0 -0.6307,7.5544 -1.2543,8.3764 -0.5953,0.8008 -6.3496,0.6236 -8.3976,0.4252 -2.0481,-0.1984 -9.2764,0.4465 -9.2764,0.4465 z m 25.2992,-0.6449 c 0,0 0.8291,-2.4236 1.226,-3.9756 0.4252,-1.552 0.9,-4.004 0.9,-4.004 l 15.1016,3.4512 c 0,0 0.1204,2.6008 -0.5245,4.0536 -0.6519,1.474 -1.6299,2.7 -2.6503,3.1252 -1.0276,0.3968 -5.0528,-1.6016 -7.278,-2.0055 -2.2748,-0.3969 -6.7748,-0.6449 -6.7748,-0.6449 z m 20.8984,6.1724 c 0,0 3.104,-1.7716 4.1811,-3.6709 0.7229,-1.2259 1.1481,-3.4015 1.1481,-3.4015 l 6.6259,3.0968 c 0,0 6.9237,3.9756 5.0741,5.6268 -1.8496,1.6512 -3.0756,3.274 -4.5284,3.8976 -1.4244,0.6024 -1.4244,1.0276 -2.8488,-0.1984 -1.4457,-1.226 -9.652,-5.3504 -9.652,-5.3504 z m 16.5756,12.1536 3.7772,-1.7504 2.3244,-1.7008 c 0,0 2.048,1.9984 3.1039,3.5008 1.1693,1.722 2.2961,3.196 2.2961,4.8259 0,1.6441 0.5527,5.5489 -0.8717,5.9741 -1.4244,0.3968 -3.4299,1.0204 -4.6275,0 -1.2473,-1.0276 -0.9992,-3.678 -2.2252,-5.3008 -1.226,-1.6512 -3.7772,-5.5488 -3.7772,-5.5488 z M 1914.963,1473.681 c 0,0 11.7213,0.4748 14.3221,0.4748 2.5724,0 12.6496,0.1771 14.4,-0.1772 1.8,-0.2976 6.6472,-0.9496 7.9724,-1.2756 1.2756,-0.326 3.6992,-0.6519 3.6992,-0.6519 0,0 1.1551,-1.6229 3.0756,-4.1953 1.9488,-2.6008 4.3795,-5.8536 6.0024,-8.6032 1.6228,-2.7496 4.0464,-5.6763 4.3724,-6.9449 0.326,-1.3039 1.1268,-4.0039 1.8,-5.2015 0.6307,-1.226 2.2748,-6.2504 2.2748,-6.2504 0,0 -19.1197,0.496 -21.2244,0.6732 -2.126,0.1488 -5.9953,0 -5.9953,0 0,0 -3.9047,5.5772 -4.7267,7.2 -0.8008,1.6228 -9.1489,11.1756 -12.1252,13.4221 -2.9977,2.2818 -8.3481,7.3275 -8.3481,7.3275 l -5.4992,4.2024 z m 51.7465,-1.8 c 0,0 7.448,-12.6284 8.2771,-13.9252 0.8008,-1.304 4.4221,-6.1512 5.4,-8.1 0.9709,-1.9488 2.4237,-5.1024 2.7497,-5.7544 0.3472,-0.6448 0.8007,-2.5724 0.8007,-2.5724 l 1.4741,-1.148 c 0,0 12.7984,-2.7496 15.222,-3.0756 2.452,-0.326 6.8032,-0.4748 6.8032,-0.4748 l 4.8755,-0.8008 c 0,0 -4.8755,13.5 -5.6763,16.4268 -0.8292,2.9197 -3.7276,7.448 -4.2237,8.2488 -0.4748,0.8008 -4.8543,6.4772 -5.1803,7.1504 -0.3189,0.6236 -1.4456,2.2464 -1.4456,2.2464 0,0 -14.4993,2.126 -15.952,2.2748 -1.474,0.1559 -8.5961,0.4748 -10.226,0.652 -1.6016,0.1488 -4.0252,0.1488 -4.0252,0.1488 l 1.1268,-1.2968 z m 39.7771,-4.3796 c 0,0 6.7961,-11.4944 7.2709,-13.5992 0.5032,-2.0976 2.7496,-6.3708 3.5788,-8.022 0.8007,-1.6016 2.0763,-4.0252 2.7496,-5.4992 0.6519,-1.4528 1.1267,-4.3512 1.1267,-4.3512 l 0.1701,-1.6512 c 0,0 11.5512,-3.5504 14.0032,-3.7275 2.4236,-0.1489 9.9,-2.2465 10.5236,-2.4237 0.6519,-0.1488 4.6984,-1.5945 4.6984,-1.5945 l 2.7496,-0.9779 c 0,0 -1.6228,7.7527 -2.2464,9.3756 -0.652,1.6228 -4.8756,11.8984 -6.1512,13.6984 -1.2969,1.7787 -3.7488,7.1221 -4.4008,7.6039 -0.6236,0.4961 -1.9488,3.2457 -2.2465,3.8977 -0.3543,0.652 -0.8291,1.6228 -0.8291,1.6228 0,0 -11.7213,3.2244 -13.0252,3.5504 -1.2969,0.326 -13.1244,3.0756 -15.222,3.4016 -2.126,0.326 -3.2528,0.496 -3.2528,0.496 l 0.5031,-1.8 z m 44.9221,-10.5236 c -0.6236,-0.326 11.6787,-4.3724 13.3016,-4.8472 1.6228,-0.5032 7.9228,-3.4016 9.0708,-4.0536 1.1268,-0.6448 6.4772,-4.1244 6.4772,-4.1244 l 3.5504,-3.4015 c 0,0 2.1756,-2.9197 2.8488,-4.5213 0.652,-1.6512 2.2536,-6.3496 2.5795,-7.8024 0.326,-1.4456 0.6449,-5.322 0.6449,-7.5968 l 0,-6.4772 -0.8008,-2.6008 c 0,0 -9.9496,4.6985 -13.1952,5.6764 -3.2528,0.9496 -6.6544,2.2536 -7.278,2.7496 -0.6449,0.4748 -6.6756,3.7276 -6.6756,3.7276 0,0 -0.8008,8.2488 -1.9205,11.0267 -1.1551,2.7497 -1.4527,5.9741 -2.2748,7.9229 -0.8007,1.9488 -1.6299,4.4504 -2.7496,6.222 -1.1267,1.7788 -3.5787,6.0024 -3.5787,6.0024 0,0 0.652,2.4236 0,2.0976 z m 43.4976,-20.6504 c 0,0 2.9268,-7.5968 3.2528,-10.6724 0.326,-3.0756 1.7787,-6.8244 1.7787,-9.078 0,-2.2748 0.3189,-3.8976 0.3189,-4.5496 0,-0.6448 -0.7937,-3.8763 -0.7937,-3.8763 l -0.326,-1.1481 c 0,0 12.2953,-8.2488 13.7693,-8.9008 1.4528,-0.6732 6.13,-3.2456 6.13,-3.2456 l 3.0968,-2.0268 1.7787,-0.8008 c 0,0 0.326,7.3772 0.326,9.6236 0,2.2748 -0.326,8.1284 -0.326,9.73 0,1.6228 -0.4748,4.8685 -0.6307,5.5204 -0.17,0.6236 0,3.4016 0,3.4016 0,0 -12.8197,7.278 -14.4496,8.7236 -1.5945,1.474 -6.9449,4.2024 -7.5968,4.8756 -0.652,0.652 -4.6984,3.0756 -4.6984,3.0756 l -2.452,1.6228 0.822,-2.2748 z m 38.4024,-21.6992 c 0,0 12.5504,-5.6764 13.5283,-6.9732 0.9709,-1.3039 6.1441,-4.6984 6.9733,-5.8252 0.8008,-1.1268 2.0976,-3.7276 2.5724,-4.4008 0.5032,-0.6236 0.978,-3.1252 0.8291,-4.8968 -0.1771,-1.8 -0.6519,-5.0245 -0.8291,-6.0024 -0.1488,-0.978 -0.9709,-5.8252 -0.9709,-5.8252 l -0.9779,-4.0748 c 0,0 -13.5213,6.4984 -15.874,8.426 -2.3244,1.9488 -4.4504,3.4228 -4.4504,3.4228 0,0 1.474,12.2244 0.6732,15.7748 -0.822,3.5788 -0.822,6.3284 -0.822,6.3284 l -0.652,4.0464 z m 32.4779,-20.3244 c 0,0 0.6449,-5.0244 0.6449,-6.6472 0,-1.6016 0,-3.2244 -0.1701,-5.6764 -0.1488,-2.4236 -1.1267,-6.1512 -1.1267,-6.1512 l -0.978,-3.5716 c 0,0 9.5811,-6.3 10.8496,-7.4552 1.3252,-1.1196 5.8252,-3.3945 5.8252,-3.3945 l 3.5788,-2.2535 c 0,0 0.9708,4.5284 1.2968,7.9228 0.326,3.4016 0.978,6.9804 0.978,8.2772 0,1.2756 0.326,3.4016 0.326,4.3512 0,0.9992 -3.5788,4.4008 -7.1292,6.6472 -3.5504,2.2748 -6.796,5.2016 -7.448,5.5276 -0.652,0.326 -5.2016,2.9764 -5.2016,2.9764 l -1.9205,0.822 0.4748,-1.3748 z m 29.8701,-19.7716 c 0,0 0,-6.952 -0.3189,-8.5748 -0.3047,-1.63 -0.3047,-3.104 -0.8008,-4.8544 -0.4748,-1.8 -1.3039,-3.4016 -1.3039,-3.4016 l -1.2968,-3.2456 c 0,0 7.448,-3.5788 8.7448,-4.6984 1.304,-1.1552 5.2016,-2.7497 5.2016,-2.7497 l 3.3803,-2.1047 c 0,0 2.4449,6.1299 2.7496,9.3756 0.3473,3.2528 0.3473,6.0024 0.3473,6.6543 0,0.6449 -0.1772,2.5937 -0.1772,2.5937 0,0 -2.5724,3.0756 -4.5213,4.6772 -1.9488,1.6228 -5.6763,4.0536 -6.3283,4.5496 -0.652,0.4748 -3.0756,1.9276 -3.0756,1.9276 l -2.7496,1.3252 0.1488,-1.474 z m 24.9803,-15.052 c 0,0 0.4748,-4.8756 0.2977,-7.2992 -0.1772,-2.4236 -0.2977,-5.6764 -0.4748,-6.8032 -0.1488,-1.148 -0.978,-3.0756 -0.978,-3.0756 l -0.8008,-1.3748 c 0,0 14.5772,-6.9732 15.378,-7.122 0.822,-0.1772 4.2236,-1.474 4.2236,-1.474 l 1.1268,-0.4748 c 0,0 1.1268,4.8756 1.1268,6.6472 0,1.7788 -0.1489,4.5992 -0.1489,5.2512 0,0.652 -0.6519,4.0464 -1.3039,4.8472 -0.652,0.8008 -1.4457,2.4307 -1.4457,2.4307 0,0 -3.2527,2.1189 -5.0315,2.9197 -1.7716,0.8292 -6.3212,3.2528 -6.3212,3.2528 l -3.7276,2.4236 -2.0976,1.3039 0.1771,-1.4527 z m 28.0701,-13.9536 c 0,0 0.5032,-2.1755 0.5032,-4.1244 0,-1.9204 -0.1772,-3.0756 -0.326,-5.1732 -0.1772,-2.0976 0,-2.9268 -0.326,-3.7276 -0.326,-0.822 -1.148,-2.9196 -1.148,-2.9196 0,0 14.4212,-5.8252 15.0732,-5.8252 0.652,0 3.2244,-0.8008 3.2244,-0.8008 0,0 0.8291,1.6228 0.9992,4.5212 0.1559,2.9056 0.1559,4.8544 0.1559,5.8252 0,0.978 0.1701,2.778 0.1701,3.43 0,0.6236 -0.4961,2.0976 -0.4961,2.0976 0,0 -3.2244,1.8496 -5.1803,2.7496 -1.9488,0.8717 -7.448,2.8276 -7.448,2.8276 l -5.5276,2.4236 0.326,-1.304 z m 26.752,-11.0976 c 0,0 0,-2.4236 -0.1772,-4.0464 -0.1488,-1.6016 -0.3189,-2.7284 -0.3189,-3.5504 0,-0.8008 -0.326,-4.0536 -0.326,-4.0536 l -0.4748,-1.2968 c 0,0 12.9473,-5.1804 14.2441,-5.1804 1.304,0 2.9055,-0.3188 2.9055,-0.3188 0,0 1.3252,4.0464 1.4741,5.9952 0.1488,1.9276 0.1488,4.8544 0.1488,4.8544 l -0.1488,2.0976 c 0,0 0,0.822 -3.4016,1.9488 -3.4016,1.1268 -11.5016,4.2024 -11.5016,4.2024 l -3.2457,0.822 0.8221,-1.474 z m 24.7039,-6.626 c 0,0 -0.3543,-2.6008 -0.1771,-5.0244 0.1771,-2.4236 0.1771,-5.1732 0.1771,-5.1732 l -0.6519,-1.8 c 0,0 11.3244,-1.7788 11.9763,-1.9276 0.6449,-0.1701 3.8977,-0.9708 3.8977,-0.9708 0,0 0.6236,1.7716 0.8008,3.8976 0.1771,2.0764 -0.1772,6.1512 -0.1772,6.1512 l -0.1276,1.4456 c 0,0 -6.0236,2.1048 -7.7952,2.6008 -1.7788,0.4748 -4.5284,0.9496 -4.5284,0.9496 l -3.3945,-0.1488 z m 24.9449,-5.3504 c 0,0 0.4748,-1.2968 0.4748,-3.2244 l 0,-4.2236 -0.4748,-2.7496 c 0,0 3.8764,-0.326 6.3,0.1488 2.4236,0.5032 6.4772,0.8291 6.4772,0.8291 0,0 0.9779,1.1197 0.822,3.8693 -0.1701,2.7496 -1.1197,5.6764 -1.1197,5.6764 l -1.8,1.1268 -7.1291,-0.4748 -3.8764,0.326 0.326,-1.304 z m 21.3732,1.8 c 0,0 5.1024,2.0764 6.5552,2.4024 1.4456,0.3472 3.5716,0.4961 3.5716,0.4961 0,0 2.1047,-1.1197 2.4236,-2.2748 0.3048,-1.1197 0.978,-2.8985 0.978,-4.2237 0,-1.2756 -0.326,-2.7212 -0.326,-2.7212 0,0 -1.8,-1.63 -4.2236,-2.2748 -2.4236,-0.652 -7.5969,-1.1268 -7.5969,-1.1268 0,0 -0.1771,1.4528 -0.326,3.5504 -0.1771,2.0976 -1.0559,6.1724 -1.0559,6.1724 z m 19.2048,5.6764 c 0,0 1.2755,-4.5496 1.2755,-5.2016 0,-0.6448 0.8221,-3.3945 0.8221,-3.3945 0,0 2.7496,0.6449 4.3795,1.1197 1.5945,0.5032 3.5433,1.304 4.3725,1.9488 0.8008,0.652 3.2244,2.6008 3.2244,2.6008 0,0 2.4519,0 2.3031,2.4024 -0.1771,2.452 -1.1551,4.0748 -1.9771,4.2236 -0.8008,0.1772 -1.4528,0.652 -3.7276,0.5032 -2.2465,-0.1772 -3.2244,-0.326 -4.1953,-0.9992 -0.9779,-0.6308 -4.2307,-1.9276 -4.2307,-1.9276 l -2.2464,-1.2756 z m 19.4244,14.3008 4.2236,5.0528 c 0,0 2.9268,0.9496 3.6992,0.2976 0.8291,-0.652 1.9488,-1.7788 1.9488,-3.0756 0,-1.2969 1.1551,-0.078 -0.2976,-2.7496 -1.474,-2.6787 -2.4236,-3.9756 -2.4236,-3.9756 l -2.6008,-2.2465 c 0,0 -0.652,0.7937 -2.126,1.9489 -1.4528,1.1196 -3.5504,2.7496 -3.5504,2.7496 l 1.1268,1.9984 z m -820.552,-758.2252 c 0,0 7.5047,6.874 12.678,9.5528 5.1732,2.6503 14.3503,7.9937 17.5251,9.496 3.1749,1.5024 7.526,4.1528 8.3481,5.0032 0.822,0.822 1.3535,1.6511 1.3535,1.6511 l 6.8457,-5.9811 c 0,0 -1.3465,-3.1748 -4.0252,-4.8472 -2.6504,-1.6724 -8.348,-5.322 -11.8772,-7.6748 -3.4724,-2.3244 -9.822,-5.8535 -11.4945,-7.0016 -1.6511,-1.1764 -3.0047,-2.0267 -3.0047,-2.0267 0,0 -0.1701,0.1559 -3.9968,0.1559 -3.8481,0 -4.5284,-0.1559 -8.178,0.3472 -3.6992,0.5032 -4.174,1.3252 -4.174,1.3252 z m 56.0764,17.5465 c 0,0 -8.3268,-7.8449 -10.3536,-9.6733 -1.9984,-1.8496 -11.6716,-11.2252 -12.522,-12.8764 -0.8221,-1.6724 -3.8268,-4.996 -3.8268,-4.996 0,0 0.652,-0.6732 2.8276,-0.5032 2.1756,0.1772 19.0275,0.8504 22.8756,2.3244 3.8267,1.5024 16.4976,8.178 18.7015,10.5308 2.1756,2.3456 4.6701,6.6755 5.8252,8.022 1.1693,1.3252 4.3229,3.8268 5.5205,5.3504 1.1551,1.474 1.3252,2.3244 1.3252,2.3244 0,0 1.5024,1.3252 -3.5008,0.9992 -5.0244,-0.326 -13.3724,-0.1771 -17.022,-0.5244 -3.678,-0.2976 -7.0229,-0.1488 -8.0221,-0.1488 -1.0063,0 -1.8283,-0.8291 -1.8283,-0.8291 z m 252.2764,-4.3229 c 0,0 -10.6512,-10.0205 -13.3796,-12.1464 -2.7212,-2.126 -6.9449,-5.9244 -10.6228,-8.1496 -3.6496,-2.2536 -8.3764,-5.6764 -9.1984,-6.2788 -0.8504,-0.574 -3.3237,-2.8205 -3.3237,-2.8205 0,0 6.626,-0.1275 9.5741,0.4748 2.948,0.5953 12.5007,4.9465 14.8748,6.7252 2.374,1.8 13.5496,14.4 14.7259,15.2434 1.1977,0.8007 3.6709,2.8275 3.6709,2.8275 0,0 -1.7716,1.3039 -2.4732,1.8992 -0.7228,0.574 -2.9268,2.3528 -2.9268,2.3528 l -0.9212,-0.1276 z m 17.4259,-6.5976 c 0,0 -4.2803,-1.8992 -5.7756,-4.1528 -1.5519,-2.2252 -8.2488,-9.0992 -10.5023,-10.9701 -2.2465,-1.9063 -7.774,-7.4551 -8.5961,-8.2559 -0.8504,-0.8504 -1.2047,-1.8992 -1.2047,-1.8992 0,0 4.4291,-0.1204 9.9283,0.6024 5.4993,0.7016 18.4961,2.948 21.8197,4.4716 3.3024,1.5308 10.5024,4.3796 13.1032,5.7756 2.6008,1.4244 4.2519,2.7284 4.2519,2.7284 0,0 2.2465,9.574 1.7717,11.7 -0.4748,2.126 -2.126,6.1228 -2.126,6.1228 0,0 -4.5992,-3.0756 -7.2212,-3.3023 -2.5796,-0.2197 -5.1733,-1.1693 -8.1284,-1.4245 -2.9764,-0.2196 -3.6709,-0.3472 -4.8472,-0.6944 -1.1764,-0.3544 -2.4733,-0.7016 -2.4733,-0.7016 z m 193.7693,21.1748 c 0,0 -12.2952,-9.2268 -15.5197,-11.6008 -3.2244,-2.374 -15.7535,-10.148 -18.9992,-12.7276 -3.2244,-2.6007 -7.7527,-5.1944 -8.6244,-5.6196 l -1.5023,-1.5024 c 0,0 12.0756,-0.4252 14.4496,1.0772 2.374,1.5236 24.3708,17.2488 26.3267,19.8496 1.9489,2.5724 3.2457,4.2732 3.8693,6.4204 0.652,2.1756 0,4.1032 0,4.1032 z m 7.6252,-11.204 c 0,0 -9.574,-7.2708 -12.848,-11.5724 -3.274,-4.3512 -7.1504,-8.674 -7.4976,-9.1488 -0.3544,-0.4748 -1.9772,-2.452 -1.9772,-2.452 0,0 -0.8221,-0.5953 -0.1276,-1.2968 0.7016,-0.7016 3.8764,-2.5796 5.8536,-2.7992 1.9771,-0.2268 16.122,-1.1764 20.3244,0.3472 4.2236,1.5236 15.7039,7.5969 17.922,10.4032 2.2252,2.8204 7.3772,11.7212 7.604,13.5992 0.248,1.8708 0.822,5.2511 0.822,5.2511 0,0 -0.9212,0.4748 -3.3945,-0.4535 -2.4519,-0.9496 -6.7748,-1.5236 -10.5307,-1.0772 -3.7488,0.4748 -8.4189,2.2252 -10.0701,1.878 -1.6299,-0.3473 -3.0259,-0.3473 -3.8551,-0.8008 -0.822,-0.5031 -2.2252,-1.878 -2.2252,-1.878 z m 280.878,8.3056 c 0,0 -29.2252,-23.1024 -30.926,-24.4772 -1.7221,-1.3535 -3.0756,-2.7284 -3.0756,-2.7284 0,0 -1.0205,-0.9992 2.4024,-2.374 3.4015,-1.3748 5.3504,-2.048 7.7244,-1.0204 2.4023,1.0204 6.8244,4.4504 9.5527,7.4976 2.7213,3.0756 14.3221,13.9465 14.6481,15.3283 0.3472,1.3748 2.4023,3.7489 2.4023,3.7489 l -2.7283,4.0252 z m -14.3221,-38.452 c 0,0 32.3717,31.6984 34.774,32.4 2.3741,0.6732 4.6701,2.0268 7.0725,2.374 2.374,0.3473 5.1024,0.2764 7.1504,1.2756 2.048,1.0276 5.1023,1.722 5.1023,1.722 0,0 1.7221,-1.97 2.0481,-5.0456 0.3472,-3.0756 -0.326,-9.1984 -0.9992,-11.9268 -0.7016,-2.7213 -5.2016,-9.8716 -11.6008,-12.274 -6.3992,-2.374 -17.6528,-7.8236 -23.1024,-8.178 -5.4496,-0.3472 -9.8716,-1.0204 -12.2457,-1.0204 -2.4023,0 -8.1992,0.6732 -8.1992,0.6732"
         inkscape:connector-curvature="0" />
    </g>
  </g>
</svg>
