<svg version="1.1" id="Layer_2" xmlns="http://www.w3.org/2000/svg" width="290.883px" height="360.665px" xml:space="preserve">
<path fill="#FFFF00" d="M145.421,360.665c-74.688-7.576-110.248-46.689-126.929-78.166C0.431,248.415,0.009,216.663,0,215.329V0h290.84v215.333c-0.009,1.271-0.421,33.063-18.492,67.166C255.667,313.975,220.105,353.086,145.421,360.665L145.421,360.665z"/>
<path fill="#FF0000" d="M290.296,207.5v-58.168h-29.084h-29.084V207.5H173.96v-58.168h-28.584V207.5h0.087v153.164c144.58-14.668,145.42-145.334,145.42-145.334v-7.83H290.296z M0,0v149.333h58.168V207.5h29.084h29.084v-58.167h29.084V0H0z"/>
<path fill="#FFFF00" d="M65.832,29.313l9.761,22.021l23.951-2.558L85.353,68.24l14.191,19.464l-23.951-2.559l-9.761,22.022l-9.761-22.022L32.12,87.704L46.312,68.24L32.12,48.776l23.951,2.558L65.832,29.313z M135.159,51.334l-23.951-2.557l14.191,19.463l-14.191,19.464l23.951-2.559l9.76,22.022V29.313L135.159,51.334z"/>
<path fill="#FF0000" d="M225.008,29.313l9.762,22.021l23.951-2.557L244.527,68.24l14.193,19.464l-23.951-2.559l-9.762,22.022l-9.761-22.022l-23.951,2.559l14.19-19.464l-14.19-19.463l23.951,2.557L225.008,29.313z M178.632,48.777l-23.95,2.557l-9.763-22.021v77.854l9.763-22.022l23.95,2.559L164.439,68.24L178.632,48.777z"/>
</svg>
