<svg version="1.1" id="Layer_2" xmlns="http://www.w3.org/2000/svg" width="1200px" height="596px" xml:space="preserve">
<rect fill="#FFFF00" width="1200" height="596"/>
<rect y="50.098" fill="#FF0000" width="1200" height="500"/>
<path fill="#FFFF00" d="M596.077,486.948c-79.084-8.023-116.931-49.8-134.754-83.435c-19.209-36.249-19.646-70.351-19.656-71.783V106.334h310.84v225.332c-0.01,1.498-0.447,35.6-19.656,71.849c-17.822,33.635-55.67,75.41-134.754,83.435l-1.01,0.103L596.077,486.948z"/>
<path fill="#FF0000" d="M741.963,323.835v-58.168h-29.084h-29.084v58.168h-58.168v-58.168h-28.584v58.168h0.087v153.164c144.58-14.667,145.42-145.333,145.42-145.333v-7.831H741.963L741.963,323.835z M451.667,116.334v149.333h58.168v58.168h29.084h29.084v-58.168h29.084V116.334H451.667z M676.675,145.647l9.761,22.022l23.951-2.558l-14.191,19.463l14.191,19.464l-23.951-2.559l-9.761,22.022l-9.761-22.022l-23.951,2.559l14.191-19.464l-14.191-19.463l23.951,2.558L676.675,145.647z M630.299,165.111l-23.951,2.558l-9.762-22.022v77.854l9.762-22.022l23.951,2.559l-14.191-19.464L630.299,165.111z"/>
<path fill="#FFFF00" d="M517.499,145.647l9.761,22.022l23.951-2.558l-14.191,19.463l14.191,19.464l-23.951-2.559l-9.761,22.022l-9.761-22.022l-23.951,2.559l14.191-19.464l-14.191-19.463l23.951,2.558L517.499,145.647z M586.826,167.669l-23.951-2.558l14.191,19.463l-14.191,19.464l23.951-2.559l9.76,22.022v-77.854L586.826,167.669z"/>
</svg>
